<?xml version="1.0" encoding="utf-8"?>
<!-- Generator: Adobe Illustrator 25.0.1, SVG Export Plug-In . SVG Version: 6.00 Build 0)  -->
<svg version="1.1" xmlns="http://www.w3.org/2000/svg" xmlns:xlink="http://www.w3.org/1999/xlink" x="0px" y="0px"
	 viewBox="0 0 110 110" style="enable-background:new 0 0 110 110;" xml:space="preserve">
<style type="text/css">
	.st0{fill:#2F8DCC;}
	.st1{fill:url(#SVGID_1_);}
	.st2{fill:#FFFFFF;}
	.st3{fill:#344E9C;}
	.st4{fill:#69C7F2;}
	.st5{fill:none;stroke:#FFFFFF;stroke-width:3;stroke-linecap:round;stroke-linejoin:round;}
	.st6{fill:url(#SVGID_4_);}
	.st7{fill:url(#SVGID_5_);}
	.st8{fill:url(#SVGID_6_);}
	.st9{fill:url(#SVGID_7_);}
	.st10{fill:none;stroke:#2F8DCC;stroke-width:3;stroke-linecap:round;stroke-linejoin:round;}
	.st11{fill:none;stroke:#2F8DCC;stroke-width:3;stroke-linecap:round;stroke-linejoin:round;stroke-dasharray:12.1299,12.1299;}
	.st12{fill:url(#SVGID_8_);}
	.st13{fill:url(#SVGID_9_);}
	.st14{fill:none;stroke:#2F8DCC;stroke-width:3;stroke-linecap:round;stroke-linejoin:round;stroke-dasharray:11.8519,11.8519;}
	.st15{fill:#575756;}
	.st16{fill:url(#SVGID_10_);}
	.st17{fill:url(#SVGID_11_);}
	.st18{fill:none;stroke:#2F8DCC;stroke-width:3;stroke-linecap:round;stroke-linejoin:round;stroke-dasharray:12.1014,12.1014;}
	.st19{fill:#006FE7;}
	.st20{fill:none;stroke:#2F8DCC;stroke-width:3;stroke-linecap:round;stroke-linejoin:round;stroke-dasharray:12.0435,12.0435;}
	.st21{fill:url(#SVGID_12_);}
	.st22{fill:url(#SVGID_13_);}
	
		.st23{fill:none;stroke:#2F8DCC;stroke-width:3;stroke-linecap:round;stroke-linejoin:round;stroke-miterlimit:10;stroke-dasharray:12;}
	.st24{fill:none;stroke:#2F8DCC;stroke-miterlimit:10;}
	.st25{opacity:0.1;}
	.st26{fill:#3F3D56;}
	.st27{opacity:0.1;enable-background:new    ;}
	.st28{opacity:0.1;fill:#2F8DCC;enable-background:new    ;}
	.st29{fill:none;stroke:#3F3D56;stroke-width:4;stroke-miterlimit:10;}
	.st30{fill:url(#SVGID_14_);}
	.st31{fill:#BE6F72;}
	.st32{fill:#FF6F61;}
	.st33{fill:url(#);}
	.st34{opacity:0.1;fill:none;stroke:#000000;stroke-miterlimit:10;enable-background:new    ;}
	.st35{fill:url(#SVGID_15_);}
	.st36{fill:#2F2E41;}
	.st37{fill:#FBBEBE;}
	.st38{fill:#E8E8F0;}
	.st39{fill:#F86D70;}
	.st40{fill:url(#SVGID_16_);}
	.st41{fill:url(#SVGID_17_);}
	.st42{fill:#2EAAE2;}
	.st43{fill:#1F67AF;}
	.st44{fill:#2A3188;}
	.st45{fill:url(#SVGID_18_);}
	.st46{fill:#878787;}
	.st47{fill:#078ADB;}
</style>
<g id="Capa_1">
	<g>
		<g>
			<linearGradient id="SVGID_1_" gradientUnits="userSpaceOnUse" x1="16.6928" y1="16.6928" x2="93.3072" y2="93.3072">
				<stop  offset="0" style="stop-color:#24C6DC"/>
				<stop  offset="1" style="stop-color:#514A9D"/>
			</linearGradient>
			<path class="st1" d="M55,5.83c27.11,0,49.17,22.06,49.17,49.17S82.11,104.17,55,104.17S5.83,82.11,5.83,55S27.89,5.83,55,5.83
				 M55,0.83C25.08,0.83,0.83,25.08,0.83,55S25.08,109.17,55,109.17S109.17,84.92,109.17,55S84.92,0.83,55,0.83L55,0.83z"/>
		</g>
		<g>
			<path class="st0" d="M56.68,81.14c-1.39,0-2.54-0.44-3.44-1.31c-0.9-0.87-1.34-1.95-1.34-3.25V38.95l1.05,1.64l-5.45,4.03
				c-0.7,0.55-1.57,0.82-2.61,0.82c-1.19,0-2.24-0.45-3.14-1.34c-0.9-0.9-1.34-1.97-1.34-3.21c0-1.59,0.77-2.89,2.31-3.88
				l10.75-7.17c0.5-0.35,1.06-0.6,1.68-0.75c0.62-0.15,1.21-0.22,1.75-0.22c1.44,0,2.59,0.44,3.43,1.31
				c0.85,0.87,1.27,1.95,1.27,3.25v43.16c0,1.29-0.46,2.38-1.38,3.25C59.3,80.7,58.12,81.14,56.68,81.14z"/>
		</g>
	</g>
</g>
<g id="Capa_2">
</g>
</svg>
