<?xml version="1.0" encoding="utf-8"?>
<!-- Generator: Adobe Illustrator 25.0.1, SVG Export Plug-In . SVG Version: 6.00 Build 0)  -->
<svg version="1.1" xmlns="http://www.w3.org/2000/svg" xmlns:xlink="http://www.w3.org/1999/xlink" x="0px" y="0px"
	 viewBox="0 0 110 110" style="enable-background:new 0 0 110 110;" xml:space="preserve">
<style type="text/css">
	.st0{fill:#2F8DCC;}
	.st1{fill:url(#SVGID_1_);}
	.st2{fill:#FFFFFF;}
	.st3{fill:#344E9C;}
	.st4{fill:#69C7F2;}
	.st5{fill:none;stroke:#FFFFFF;stroke-width:3;stroke-linecap:round;stroke-linejoin:round;}
	.st6{fill:url(#SVGID_4_);}
	.st7{fill:url(#SVGID_5_);}
	.st8{fill:url(#SVGID_6_);}
	.st9{fill:url(#SVGID_7_);}
	.st10{fill:none;stroke:#2F8DCC;stroke-width:3;stroke-linecap:round;stroke-linejoin:round;}
	.st11{fill:none;stroke:#2F8DCC;stroke-width:3;stroke-linecap:round;stroke-linejoin:round;stroke-dasharray:12.1299,12.1299;}
	.st12{fill:url(#SVGID_8_);}
	.st13{fill:url(#SVGID_9_);}
	.st14{fill:none;stroke:#2F8DCC;stroke-width:3;stroke-linecap:round;stroke-linejoin:round;stroke-dasharray:11.8519,11.8519;}
	.st15{fill:#575756;}
	.st16{fill:url(#SVGID_10_);}
	.st17{fill:url(#SVGID_11_);}
	.st18{fill:none;stroke:#2F8DCC;stroke-width:3;stroke-linecap:round;stroke-linejoin:round;stroke-dasharray:12.1014,12.1014;}
	.st19{fill:#006FE7;}
	.st20{fill:none;stroke:#2F8DCC;stroke-width:3;stroke-linecap:round;stroke-linejoin:round;stroke-dasharray:12.0435,12.0435;}
	.st21{fill:url(#SVGID_12_);}
	.st22{fill:url(#SVGID_13_);}
	
		.st23{fill:none;stroke:#2F8DCC;stroke-width:3;stroke-linecap:round;stroke-linejoin:round;stroke-miterlimit:10;stroke-dasharray:12;}
	.st24{fill:none;stroke:#2F8DCC;stroke-miterlimit:10;}
	.st25{opacity:0.1;}
	.st26{fill:#3F3D56;}
	.st27{opacity:0.1;enable-background:new    ;}
	.st28{opacity:0.1;fill:#2F8DCC;enable-background:new    ;}
	.st29{fill:none;stroke:#3F3D56;stroke-width:4;stroke-miterlimit:10;}
	.st30{fill:url(#SVGID_14_);}
	.st31{fill:#BE6F72;}
	.st32{fill:#FF6F61;}
	.st33{fill:url(#);}
	.st34{opacity:0.1;fill:none;stroke:#000000;stroke-miterlimit:10;enable-background:new    ;}
	.st35{fill:url(#SVGID_15_);}
	.st36{fill:#2F2E41;}
	.st37{fill:#FBBEBE;}
	.st38{fill:#E8E8F0;}
	.st39{fill:#F86D70;}
	.st40{fill:url(#SVGID_16_);}
	.st41{fill:url(#SVGID_17_);}
	.st42{fill:#2EAAE2;}
	.st43{fill:#1F67AF;}
	.st44{fill:#2A3188;}
	.st45{fill:url(#SVGID_18_);}
	.st46{fill:#878787;}
	.st47{fill:#078ADB;}
</style>
<g id="Capa_1">
	<g>
		<g>
			<linearGradient id="SVGID_1_" gradientUnits="userSpaceOnUse" x1="16.6928" y1="16.6928" x2="93.3072" y2="93.3072">
				<stop  offset="0" style="stop-color:#24C6DC"/>
				<stop  offset="1" style="stop-color:#514A9D"/>
			</linearGradient>
			<path class="st1" d="M55,5.83c27.11,0,49.17,22.06,49.17,49.17S82.11,104.17,55,104.17S5.83,82.11,5.83,55S27.89,5.83,55,5.83
				 M55,0.83C25.08,0.83,0.83,25.08,0.83,55S25.08,109.17,55,109.17S109.17,84.92,109.17,55S84.92,0.83,55,0.83L55,0.83z"/>
		</g>
		<g>
			<g>
				<path class="st0" d="M67.96,70.27c1.19,0,2.19,0.4,2.99,1.19c0.8,0.8,1.19,1.79,1.19,2.99c0,1.15-0.4,2.1-1.19,2.88
					c-0.8,0.77-1.79,1.16-2.99,1.16H42.57c-1.3,0-2.31-0.4-3.06-1.19c-0.75-0.8-1.12-1.82-1.12-3.06c0-1.24,0.45-2.34,1.34-3.29
					l16.28-17.4c1.84-1.99,3.3-4.03,4.37-6.12c1.07-2.09,1.61-3.91,1.61-5.45c0-2.49-0.72-4.49-2.17-6.01
					c-1.44-1.52-3.36-2.28-5.75-2.28c-0.95,0-1.92,0.22-2.91,0.67c-1,0.45-1.95,1.07-2.88,1.87c-0.92,0.8-1.78,1.72-2.58,2.76
					c-0.6,0.8-1.19,1.29-1.79,1.49c-0.6,0.2-1.15,0.3-1.64,0.3c-1.1,0-2.1-0.41-3.02-1.23c-0.92-0.82-1.38-1.78-1.38-2.87
					c0-0.85,0.29-1.67,0.86-2.46c0.57-0.8,1.28-1.62,2.13-2.46c1.24-1.24,2.64-2.34,4.18-3.29c1.54-0.94,3.14-1.68,4.78-2.2
					c1.64-0.52,3.24-0.78,4.78-0.78c3.33,0,6.23,0.66,8.7,1.98c2.46,1.32,4.37,3.19,5.71,5.6c1.34,2.42,2.02,5.26,2.02,8.55
					c0,2.74-0.81,5.79-2.43,9.15c-1.62,3.36-3.8,6.51-6.53,9.45L51.98,70.94l-0.82-0.67H67.96z"/>
			</g>
		</g>
	</g>
</g>
<g id="Capa_2">
</g>
</svg>
