<?xml version="1.0" encoding="utf-8"?>
<!-- Generator: Adobe Illustrator 25.0.1, SVG Export Plug-In . SVG Version: 6.00 Build 0)  -->
<svg version="1.1" xmlns="http://www.w3.org/2000/svg" xmlns:xlink="http://www.w3.org/1999/xlink" x="0px" y="0px"
	 viewBox="0 0 110 110" style="enable-background:new 0 0 110 110;" xml:space="preserve">
<style type="text/css">
	.st0{fill:#2F8DCC;}
	.st1{fill:url(#SVGID_1_);}
	.st2{fill:#FFFFFF;}
	.st3{fill:#344E9C;}
	.st4{fill:#69C7F2;}
	.st5{fill:none;stroke:#FFFFFF;stroke-width:3;stroke-linecap:round;stroke-linejoin:round;}
	.st6{fill:url(#SVGID_4_);}
	.st7{fill:url(#SVGID_5_);}
	.st8{fill:url(#SVGID_6_);}
	.st9{fill:url(#SVGID_7_);}
	.st10{fill:none;stroke:#2F8DCC;stroke-width:3;stroke-linecap:round;stroke-linejoin:round;}
	.st11{fill:none;stroke:#2F8DCC;stroke-width:3;stroke-linecap:round;stroke-linejoin:round;stroke-dasharray:12.1299,12.1299;}
	.st12{fill:url(#SVGID_8_);}
	.st13{fill:url(#SVGID_9_);}
	.st14{fill:none;stroke:#2F8DCC;stroke-width:3;stroke-linecap:round;stroke-linejoin:round;stroke-dasharray:11.8519,11.8519;}
	.st15{fill:#575756;}
	.st16{fill:url(#SVGID_10_);}
	.st17{fill:url(#SVGID_11_);}
	.st18{fill:none;stroke:#2F8DCC;stroke-width:3;stroke-linecap:round;stroke-linejoin:round;stroke-dasharray:12.1014,12.1014;}
	.st19{fill:#006FE7;}
	.st20{fill:none;stroke:#2F8DCC;stroke-width:3;stroke-linecap:round;stroke-linejoin:round;stroke-dasharray:12.0435,12.0435;}
	.st21{fill:url(#SVGID_12_);}
	.st22{fill:url(#SVGID_13_);}
	
		.st23{fill:none;stroke:#2F8DCC;stroke-width:3;stroke-linecap:round;stroke-linejoin:round;stroke-miterlimit:10;stroke-dasharray:12;}
	.st24{fill:none;stroke:#2F8DCC;stroke-miterlimit:10;}
	.st25{opacity:0.1;}
	.st26{fill:#3F3D56;}
	.st27{opacity:0.1;enable-background:new    ;}
	.st28{opacity:0.1;fill:#2F8DCC;enable-background:new    ;}
	.st29{fill:none;stroke:#3F3D56;stroke-width:4;stroke-miterlimit:10;}
	.st30{fill:url(#SVGID_14_);}
	.st31{fill:#BE6F72;}
	.st32{fill:#FF6F61;}
	.st33{fill:url(#);}
	.st34{opacity:0.1;fill:none;stroke:#000000;stroke-miterlimit:10;enable-background:new    ;}
	.st35{fill:url(#SVGID_15_);}
	.st36{fill:#2F2E41;}
	.st37{fill:#FBBEBE;}
	.st38{fill:#E8E8F0;}
	.st39{fill:#F86D70;}
	.st40{fill:url(#SVGID_16_);}
	.st41{fill:url(#SVGID_17_);}
	.st42{fill:#2EAAE2;}
	.st43{fill:#1F67AF;}
	.st44{fill:#2A3188;}
	.st45{fill:url(#SVGID_18_);}
	.st46{fill:#878787;}
	.st47{fill:#078ADB;}
</style>
<g id="Capa_1">
	<g>
		<g>
			<linearGradient id="SVGID_1_" gradientUnits="userSpaceOnUse" x1="16.6928" y1="16.6928" x2="93.3072" y2="93.3072">
				<stop  offset="0" style="stop-color:#24C6DC"/>
				<stop  offset="1" style="stop-color:#514A9D"/>
			</linearGradient>
			<path class="st1" d="M55,5.83c27.11,0,49.17,22.06,49.17,49.17S82.11,104.17,55,104.17S5.83,82.11,5.83,55S27.89,5.83,55,5.83
				 M55,0.83C25.08,0.83,0.83,25.08,0.83,55S25.08,109.17,55,109.17S109.17,84.92,109.17,55S84.92,0.83,55,0.83L55,0.83z"/>
		</g>
		<g>
			<g>
				<path class="st0" d="M44.06,67.96c0.45,0,0.93,0.08,1.46,0.22c0.52,0.15,1.11,0.45,1.75,0.9c0.85,0.65,1.85,1.22,3.02,1.72
					c1.17,0.5,2.53,0.75,4.07,0.75c1.54,0,3-0.39,4.37-1.16c1.37-0.77,2.5-1.87,3.4-3.29s1.34-3.12,1.34-5.12
					c0-1.89-0.39-3.46-1.16-4.7c-0.77-1.24-1.79-2.19-3.06-2.84c-1.27-0.65-2.63-0.97-4.07-0.97c-1.1,0-2,0.1-2.73,0.3
					c-0.72,0.2-1.42,0.41-2.09,0.63c-0.67,0.22-1.46,0.34-2.35,0.34c-1.15,0-2.03-0.4-2.65-1.19c-0.62-0.8-0.93-1.74-0.93-2.84
					c0-0.7,0.14-1.32,0.41-1.87c0.27-0.55,0.68-1.14,1.23-1.79l13.14-13.96l2.02,1.72H42.87c-1.19,0-2.19-0.4-2.99-1.2
					c-0.8-0.79-1.19-1.79-1.19-2.99c0-1.14,0.4-2.1,1.19-2.88c0.8-0.77,1.79-1.16,2.99-1.16h22.85c1.54,0,2.7,0.42,3.47,1.27
					c0.77,0.85,1.16,1.92,1.16,3.21c0,0.65-0.18,1.28-0.52,1.9c-0.35,0.62-0.77,1.18-1.27,1.68L55.34,48.84l-2.02-2.54
					c0.55-0.25,1.31-0.47,2.28-0.67c0.97-0.2,1.78-0.3,2.43-0.3c2.94,0,5.49,0.76,7.65,2.28c2.17,1.52,3.83,3.48,5,5.9
					c1.17,2.42,1.75,5.02,1.75,7.8c0,3.68-0.82,6.87-2.46,9.56c-1.64,2.69-3.96,4.75-6.94,6.2c-2.99,1.44-6.47,2.17-10.45,2.17
					c-1.84,0-3.66-0.22-5.45-0.67c-1.79-0.45-3.34-1.04-4.63-1.79c-1.1-0.6-1.83-1.26-2.2-1.98c-0.37-0.72-0.56-1.41-0.56-2.05
					c0-1.14,0.41-2.23,1.23-3.25C41.78,68.47,42.82,67.96,44.06,67.96z"/>
			</g>
		</g>
	</g>
</g>
<g id="Capa_2">
</g>
</svg>
