<?xml version="1.0" encoding="utf-8"?>
<!-- Generator: Adobe Illustrator 25.0.1, SVG Export Plug-In . SVG Version: 6.00 Build 0)  -->
<svg version="1.1" xmlns="http://www.w3.org/2000/svg" xmlns:xlink="http://www.w3.org/1999/xlink" x="0px" y="0px"
	 viewBox="0 0 300 80" style="enable-background:new 0 0 300 80;" xml:space="preserve">
<style type="text/css">
	.st0{fill:#2F8DCC;}
	.st1{fill:url(#SVGID_1_);}
	.st2{fill:#FFFFFF;}
	.st3{fill:#344E9C;}
	.st4{fill:#69C7F2;}
	.st5{fill:none;stroke:#FFFFFF;stroke-width:3;stroke-linecap:round;stroke-linejoin:round;}
	.st6{fill:url(#SVGID_4_);}
	.st7{fill:url(#SVGID_5_);}
	.st8{fill:url(#SVGID_6_);}
	.st9{fill:url(#SVGID_7_);}
	.st10{fill:none;stroke:#2F8DCC;stroke-width:3;stroke-linecap:round;stroke-linejoin:round;}
	.st11{fill:none;stroke:#2F8DCC;stroke-width:3;stroke-linecap:round;stroke-linejoin:round;stroke-dasharray:12.1299,12.1299;}
	.st12{fill:url(#SVGID_8_);}
	.st13{fill:url(#SVGID_9_);}
	.st14{fill:none;stroke:#2F8DCC;stroke-width:3;stroke-linecap:round;stroke-linejoin:round;stroke-dasharray:11.8519,11.8519;}
	.st15{fill:#575756;}
	.st16{fill:url(#SVGID_10_);}
	.st17{fill:url(#SVGID_11_);}
	.st18{fill:none;stroke:#2F8DCC;stroke-width:3;stroke-linecap:round;stroke-linejoin:round;stroke-dasharray:12.1014,12.1014;}
	.st19{fill:#006FE7;}
	.st20{fill:none;stroke:#2F8DCC;stroke-width:3;stroke-linecap:round;stroke-linejoin:round;stroke-dasharray:12.0435,12.0435;}
	.st21{fill:url(#SVGID_12_);}
	.st22{fill:url(#SVGID_13_);}
	
		.st23{fill:none;stroke:#2F8DCC;stroke-width:3;stroke-linecap:round;stroke-linejoin:round;stroke-miterlimit:10;stroke-dasharray:12;}
	.st24{fill:none;stroke:#2F8DCC;stroke-miterlimit:10;}
	.st25{opacity:0.1;}
	.st26{fill:#3F3D56;}
	.st27{opacity:0.1;enable-background:new    ;}
	.st28{opacity:0.1;fill:#2F8DCC;enable-background:new    ;}
	.st29{fill:none;stroke:#3F3D56;stroke-width:4;stroke-miterlimit:10;}
	.st30{fill:url(#SVGID_14_);}
	.st31{fill:#BE6F72;}
	.st32{fill:#FF6F61;}
	.st33{fill:url(#);}
	.st34{opacity:0.1;fill:none;stroke:#000000;stroke-miterlimit:10;enable-background:new    ;}
	.st35{fill:url(#SVGID_15_);}
	.st36{fill:#2F2E41;}
	.st37{fill:#FBBEBE;}
	.st38{fill:#E8E8F0;}
	.st39{fill:#F86D70;}
	.st40{fill:url(#SVGID_16_);}
	.st41{fill:url(#SVGID_17_);}
	.st42{fill:#2EAAE2;}
	.st43{fill:#1F67AF;}
	.st44{fill:#2A3188;}
	.st45{fill:url(#SVGID_18_);}
	.st46{fill:#878787;}
	.st47{fill:#078ADB;}
</style>
<g id="Capa_1">
	<g>
		<g>
			<g>
				<g>
					<path class="st2" d="M119.99,32.06c-2.52-1.51-5.38-2.27-8.56-2.27c-2.77,0-5.28,0.59-7.54,1.77
						c-2.26,1.18-4.06,2.74-5.43,4.68V18.01c0-0.74-0.22-1.34-0.65-1.77c-0.44-0.43-1-0.65-1.71-0.65c-0.74,0-1.34,0.22-1.77,0.65
						s-0.65,1.02-0.65,1.77v29.28c0.04,3.23,0.82,6.13,2.33,8.72c1.51,2.59,3.56,4.62,6.14,6.11s5.49,2.23,8.72,2.23
						c3.31,0,6.26-0.75,8.87-2.26s4.66-3.57,6.17-6.17c1.51-2.6,2.26-5.56,2.26-8.87c0-3.27-0.73-6.2-2.2-8.81
						C124.51,35.63,122.51,33.57,119.99,32.06z M121.82,53.68c-1.1,1.94-2.6,3.48-4.5,4.62c-1.9,1.14-4.05,1.71-6.45,1.71
						c-2.36,0-4.49-0.57-6.39-1.71c-1.9-1.14-3.39-2.68-4.47-4.62c-1.08-1.94-1.61-4.16-1.61-6.64c0-2.44,0.54-4.64,1.61-6.61
						c1.07-1.96,2.56-3.5,4.47-4.62c1.9-1.12,4.03-1.67,6.39-1.67c2.4,0,4.55,0.56,6.45,1.67c1.9,1.12,3.4,2.66,4.5,4.62
						s1.64,4.17,1.64,6.61C123.47,49.52,122.92,51.74,121.82,53.68z M157.43,31.94c-2.34-1.43-5.08-2.14-8.22-2.14
						c-3.18,0-6,0.74-8.44,2.23s-4.35,3.53-5.74,6.11s-2.08,5.57-2.08,8.97c0,3.35,0.73,6.33,2.2,8.93
						c1.47,2.61,3.49,4.64,6.08,6.11c2.59,1.47,5.55,2.2,8.9,2.2c1.94,0,3.97-0.38,6.08-1.15c2.11-0.77,3.85-1.73,5.21-2.89
						c0.5-0.41,0.73-0.91,0.71-1.49c-0.02-0.58-0.3-1.12-0.84-1.61c-0.41-0.33-0.91-0.49-1.49-0.46c-0.58,0.02-1.1,0.22-1.55,0.59
						c-0.91,0.79-2.12,1.44-3.63,1.95c-1.51,0.52-3.01,0.77-4.5,0.77c-2.48,0-4.67-0.56-6.58-1.67c-1.9-1.12-3.4-2.65-4.5-4.59
						c-0.86-1.53-1.37-3.26-1.56-5.15h25.04c0.66,0,1.2-0.2,1.61-0.59c0.41-0.39,0.62-0.92,0.62-1.58c0-3.23-0.64-6.1-1.92-8.62
						C161.58,35.34,159.77,33.36,157.43,31.94z M137.61,44.68c0.22-1.56,0.63-3,1.28-4.31c0.97-1.96,2.35-3.51,4.13-4.62
						c1.78-1.11,3.85-1.67,6.2-1.67c2.32,0,4.31,0.54,5.99,1.61c1.67,1.07,2.97,2.56,3.88,4.47c0.66,1.38,1.06,2.89,1.22,4.53
						H137.61z M251.88,16.89c-0.91,0-1.71,0.3-2.39,0.9c-0.68,0.6-1.02,1.42-1.02,2.45c0,0.95,0.33,1.76,0.99,2.42
						c0.66,0.66,1.45,0.99,2.36,0.99c0.95,0,1.76-0.33,2.42-0.99c0.66-0.66,0.99-1.47,0.99-2.42c0-1.03-0.34-1.85-1.02-2.45
						C253.53,17.19,252.75,16.89,251.88,16.89z M251.88,30.11c-0.74,0-1.33,0.22-1.77,0.65c-0.44,0.44-0.65,1.02-0.65,1.77v29.1
						c0,0.74,0.22,1.33,0.65,1.77c0.43,0.44,1.02,0.65,1.77,0.65c0.7,0,1.27-0.22,1.71-0.65c0.44-0.43,0.65-1.02,0.65-1.77v-29.1
						c0-0.74-0.22-1.33-0.65-1.77C253.15,30.32,252.59,30.11,251.88,30.11z M289.23,60.63l-12.91-15.9l12.41-11.22
						c0.5-0.41,0.75-0.9,0.77-1.46c0.02-0.56-0.2-1.09-0.65-1.58c-0.46-0.5-0.95-0.76-1.49-0.78c-0.54-0.02-1.05,0.2-1.55,0.65
						l-17.5,15.81V17.95c0-0.7-0.22-1.27-0.65-1.71c-0.43-0.43-1-0.65-1.71-0.65c-0.7,0-1.27,0.22-1.71,0.65s-0.65,1-0.65,1.71
						v43.74c0,0.7,0.22,1.27,0.65,1.71c0.43,0.44,1,0.65,1.71,0.65c0.7,0,1.27-0.22,1.71-0.65c0.44-0.43,0.65-1,0.65-1.71v-9.72
						l4.67-4.22l12.76,15.68c0.41,0.54,0.91,0.84,1.49,0.9c0.58,0.06,1.14-0.13,1.67-0.59c0.54-0.46,0.83-0.96,0.87-1.52
						C289.83,61.65,289.64,61.12,289.23,60.63z M198.47,30.11c-0.7,0-1.27,0.22-1.71,0.65c-0.44,0.44-0.65,1-0.65,1.71v18.36
						c0,1.74-0.48,3.29-1.43,4.65c-0.95,1.37-2.24,2.44-3.88,3.23c-1.63,0.78-3.46,1.18-5.49,1.18c-2.11,0-4-0.41-5.68-1.24
						c-1.67-0.83-3-2.07-3.97-3.72c-0.97-1.66-1.46-3.76-1.46-6.33V32.46c0-0.66-0.23-1.22-0.68-1.67
						c-0.46-0.45-1.03-0.68-1.74-0.68c-0.66,0-1.22,0.23-1.67,0.68c-0.46,0.46-0.68,1.01-0.68,1.67v16.13
						c0,3.39,0.67,6.27,2.02,8.62s3.17,4.15,5.49,5.37c2.32,1.22,4.94,1.83,7.88,1.83c2.69,0,5.13-0.59,7.32-1.77
						c1.55-0.83,2.86-1.89,3.97-3.16v2.14c0,0.74,0.22,1.33,0.65,1.77c0.43,0.44,1,0.65,1.71,0.65c0.7,0,1.28-0.22,1.74-0.65
						c0.45-0.43,0.68-1.02,0.68-1.77V32.46c0-0.7-0.23-1.27-0.68-1.71C199.75,30.32,199.17,30.11,198.47,30.11z M233.21,31.56
						c-2.32-1.22-4.94-1.83-7.88-1.83c-2.69,0-5.13,0.59-7.32,1.77c-1.54,0.83-2.86,1.89-3.97,3.15v-2.12
						c0-0.74-0.22-1.33-0.65-1.77c-0.44-0.43-1-0.65-1.71-0.65c-0.74,0-1.34,0.22-1.77,0.65c-0.43,0.44-0.65,1.02-0.65,1.77v29.16
						c0,0.7,0.22,1.27,0.65,1.71c0.43,0.44,1.02,0.65,1.77,0.65c0.7,0,1.27-0.22,1.71-0.65c0.43-0.43,0.65-1,0.65-1.71V43.32
						c0-1.74,0.48-3.29,1.43-4.65c0.95-1.37,2.24-2.44,3.88-3.23c1.63-0.78,3.46-1.18,5.49-1.18c2.11,0,4,0.41,5.68,1.24
						c1.67,0.83,3,2.07,3.97,3.72c0.97,1.66,1.46,3.76,1.46,6.33v16.13c0,0.66,0.23,1.22,0.68,1.68c0.45,0.45,1.03,0.68,1.74,0.68
						c0.66,0,1.22-0.23,1.68-0.68c0.45-0.46,0.68-1.01,0.68-1.68V45.55c0-3.39-0.67-6.27-2.02-8.62
						C237.36,34.57,235.53,32.78,233.21,31.56z"/>
				</g>
			</g>
		</g>
		<g>
			<circle class="st2" cx="42.83" cy="40" r="32.62"/>
			<g>
				<path class="st3" d="M57.18,26.89c-1.31-5.67-5.03-10.41-10.03-13.08c-1.41-0.23-2.84-0.38-4.32-0.38
					c-0.72,0-1.44,0.03-2.15,0.09c-0.01,0-0.02,0-0.04,0c-1.26,0.08-2.27,0.24-3.1,0.46c-0.14,0.04-0.28,0.07-0.41,0.11
					c-2.57,0.81-3.1,3.26-3.1,5.36v9.49v1.48c0,0,0,0.46,0.44,0.24c1.34-0.67,2.79-0.96,4.43-0.96c1.99,0,3.78,0.47,5.36,1.42
					c1.58,0.94,2.83,2.23,3.75,3.86c0.9,1.6,1.35,3.4,1.37,5.39c0,0.35-0.03,0.69-0.06,1.02h0.01c-0.12,1.71-0.56,3.26-1.36,4.65
					c-0.94,1.63-2.23,2.92-3.86,3.86c-1.06,0.62-2.23,1.01-3.48,1.22c9.65-1.39,17.08-9.66,17.09-19.7c0-0.01,0-0.01,0-0.02
					C57.71,29.85,57.51,28.35,57.18,26.89z"/>
				<path class="st4" d="M47.89,64.49c-9.46,0-17.34-6.6-19.42-15.43c-0.95-4.02-0.71-7.45-0.66-8.05c0.01,0.13,0.02,0.25,0.04,0.37
					c-0.02-0.24-0.04-0.48-0.05-0.73V18.92c0,0,0.06-0.85-0.6-0.37c-4.26,3.11-7.56,7.46-9.37,12.53c-1,2.79-1.57,5.79-1.57,8.93
					c0,14.67,11.9,26.57,26.57,26.57c5.92,0,11.36-1.96,15.78-5.23C55.51,63.33,51.84,64.49,47.89,64.49z"/>
				<path class="st0" d="M47.15,13.81c5,2.67,8.71,7.42,10.03,13.08c0.34,1.45,0.53,2.96,0.53,4.52c0,0.01,0,0.01,0,0.02
					c-0.01,10.03-7.43,18.31-17.09,19.7c-0.32,0.05-0.64,0.1-0.97,0.13c-0.1,0.01-0.21,0.01-0.31,0.02c-0.03,0-0.06,0.01-0.09,0.01
					c-0.38,0.05-0.77,0.08-1.16,0.08c-0.06,0-0.11-0.01-0.16-0.01c-2.66-0.04-5.05-1.14-6.79-2.9c-0.72-0.68-1.36-1.46-1.88-2.35
					c-0.48-0.83-1-2.06-1.28-3.74c-0.05-0.33-0.1-0.65-0.13-0.99c-0.01-0.12-0.03-0.24-0.04-0.37c-0.05,0.6-0.29,4.03,0.66,8.05
					c2.08,8.83,9.95,15.43,19.42,15.43c3.95,0,7.62-1.16,10.72-3.14c2.87-2.12,5.28-4.8,7.1-7.88c2.33-3.95,3.69-8.54,3.69-13.46
					C69.4,26.8,59.76,15.88,47.15,13.81z"/>
			</g>
		</g>
	</g>
</g>
<g id="Capa_2">
</g>
</svg>
