<svg id="Capa_1" data-name="Capa 1" xmlns="http://www.w3.org/2000/svg" viewBox="0 0 41 38"><defs><style>.cls-1{fill:#1f67af;}</style></defs><path class="cls-1" d="M40.65,1.49a2.81,2.81,0,0,0-3.8-1C29.29,5.58,23.32,12.29,18,19.54a37.73,37.73,0,0,0-2.33-5.44c-1.66-3.17-6.45-.37-4.8,2.8a30.74,30.74,0,0,1,3.17,10,2.73,2.73,0,0,0,2.31,2,2.84,2.84,0,0,0,2.77-1.32c5.69-8.39,12-16.48,20.54-22.25A2.84,2.84,0,0,0,40.65,1.49Z"/><path class="cls-1" d="M32.21,14.48c-.07.07-.15.11-.22.17A14.2,14.2,0,1,1,18.58,5.08a14,14,0,0,1,7.31,2.09c.33-.41.67-.8,1-1.19.61-.64,1.25-1.24,1.89-1.85,0-.07.08-.14.11-.2A18.33,18.33,0,0,0,18.58.71,18.58,18.58,0,1,0,37.16,19.29a18.25,18.25,0,0,0-1.74-7.74C34.36,12.54,33.3,13.52,32.21,14.48Z"/></svg>