<?xml version="1.0" encoding="utf-8"?>
<!-- Generator: Adobe Illustrator 25.0.1, SVG Export Plug-In . SVG Version: 6.00 Build 0)  -->
<svg version="1.1" xmlns="http://www.w3.org/2000/svg" xmlns:xlink="http://www.w3.org/1999/xlink" x="0px" y="0px"
	 viewBox="0 0 860 450" style="enable-background:new 0 0 860 450;" xml:space="preserve">
<style type="text/css">
	.st0{fill:none;}
	.st1{fill:#2F8DCC;}
	.st2{fill:url(#SVGID_1_);}
	.st3{fill:#FFFFFF;}
	.st4{fill:#344E9C;}
	.st5{fill:#69C7F2;}
	.st6{fill:none;stroke:#FFFFFF;stroke-width:3;stroke-linecap:round;stroke-linejoin:round;}
	.st7{fill:url(#SVGID_4_);}
	.st8{fill:url(#SVGID_5_);}
	.st9{fill:url(#SVGID_6_);}
	.st10{fill:url(#SVGID_7_);}
	.st11{fill:none;stroke:#2F8DCC;stroke-width:3;stroke-linecap:round;stroke-linejoin:round;}
	.st12{fill:none;stroke:#2F8DCC;stroke-width:3;stroke-linecap:round;stroke-linejoin:round;stroke-dasharray:12.1299,12.1299;}
	.st13{fill:url(#SVGID_8_);}
	.st14{fill:url(#SVGID_9_);}
	.st15{fill:none;stroke:#2F8DCC;stroke-width:3;stroke-linecap:round;stroke-linejoin:round;stroke-dasharray:11.8519,11.8519;}
	.st16{fill:#575756;}
	.st17{fill:url(#SVGID_10_);}
	.st18{fill:url(#SVGID_11_);}
	.st19{fill:none;stroke:#2F8DCC;stroke-width:3;stroke-linecap:round;stroke-linejoin:round;stroke-dasharray:12.1014,12.1014;}
	.st20{fill:#006FE7;}
	.st21{fill:none;stroke:#2F8DCC;stroke-width:3;stroke-linecap:round;stroke-linejoin:round;stroke-dasharray:12.0435,12.0435;}
	.st22{fill:url(#SVGID_12_);}
	.st23{fill:url(#SVGID_13_);}
	
		.st24{fill:none;stroke:#2F8DCC;stroke-width:3;stroke-linecap:round;stroke-linejoin:round;stroke-miterlimit:10;stroke-dasharray:12;}
	.st25{fill:none;stroke:#2F8DCC;stroke-miterlimit:10;}
	.st26{opacity:0.1;}
	.st27{fill:#3F3D56;}
	.st28{opacity:0.1;enable-background:new    ;}
	.st29{opacity:0.1;fill:#2F8DCC;enable-background:new    ;}
	.st30{fill:none;stroke:#3F3D56;stroke-width:4;stroke-miterlimit:10;}
	.st31{fill:url(#SVGID_14_);}
	.st32{fill:#BE6F72;}
	.st33{fill:#FF6F61;}
	.st34{fill:url(#SVGID_15_);}
	.st35{fill:url(#SVGID_16_);}
	.st36{opacity:0.1;fill:none;stroke:#000000;stroke-miterlimit:10;enable-background:new    ;}
	.st37{fill:url(#SVGID_17_);}
	.st38{fill:#2F2E41;}
	.st39{fill:#FBBEBE;}
	.st40{fill:#E8E8F0;}
	.st41{fill:#F86D70;}
	.st42{fill:url(#SVGID_18_);}
	.st43{fill:url(#SVGID_20_);}
	.st44{fill:url(#SVGID_21_);}
	.st45{fill:url(#SVGID_22_);}
	.st46{fill:#2EAAE2;}
	.st47{fill:#1F67AF;}
	.st48{fill:#2A3188;}
	.st49{fill:url(#SVGID_23_);}
	.st50{fill:#878787;}
	.st51{fill:#078ADB;}
</style>
<pattern  x="-1278.5" y="796" width="36.88" height="49.48" patternUnits="userSpaceOnUse" id="ad310e25-2b04-44c8-bb7b-9823891" viewBox="0 -49.48 36.88 49.48" style="overflow:visible;">
	<g>
		<rect x="0" y="-49.48" class="st0" width="36.88" height="49.48"/>
		<rect x="0" y="-49.48" class="st0" width="36.88" height="49.48"/>
		<path d="M4.33-13.19c4.5,0,4.51,7,0,7S-0.19-13.19,4.33-13.19z"/>
		<path d="M4.51-17.16c4.51,0,4.52,7,0,7S0-17.16,4.51-17.16z"/>
		<path d="M4.51-20.94c4.51,0,4.52,7,0,7S0-20.94,4.51-20.94z"/>
		<path d="M3.38-24.72c4.51,0,4.51,7,0,7S-1.13-24.72,3.38-24.72z"/>
		<path d="M1.09-28.29l0.2-0.38c0.98-1.65,3.11-2.21,4.78-1.25c1.63,1,2.19,3.11,1.26,4.79l-0.19,0.37
			c-0.98,1.66-3.12,2.22-4.79,1.26C0.72-24.5,0.17-26.61,1.09-28.29z"/>
		<path d="M1.49-30.1l0.18-0.57c0.26-0.87,0.84-1.61,1.61-2.09c0.82-0.47,1.79-0.59,2.7-0.35c1.85,0.53,2.93,2.45,2.44,4.31
			l-0.18,0.56c-0.26,0.88-0.83,1.62-1.61,2.1c-0.82,0.46-1.78,0.59-2.69,0.35C2.1-26.33,1.01-28.24,1.49-30.1z"/>
		<path d="M1.58-33.88v-0.38c0.02-1.92,1.58-3.48,3.5-3.5c1.92,0.03,3.47,1.58,3.5,3.5v0.38c-0.02,1.92-1.58,3.48-3.5,3.5
			C3.17-30.42,1.62-31.96,1.58-33.88z"/>
		<path d="M4.89-42.3c4.51,0,4.51,7,0,7S0.38-42.3,4.89-42.3z"/>
		<path d="M1.77-42v-0.19c0.02-1.92,1.58-3.48,3.5-3.5c1.92,0.03,3.47,1.58,3.5,3.5V-42c-0.02,1.92-1.58,3.48-3.5,3.5
			C3.35-38.53,1.8-40.08,1.77-42z"/>
		<path d="M6-49.29c4.5,0,4.51,7,0,7S1.48-49.29,6-49.29z"/>
		<path d="M10-14.14c4.5,0,4.51,7,0,7S5.48-14.14,10-14.14z"/>
		<path d="M6.59-20.94c4.51,0,4.52,7,0,7S2.08-20.94,6.59-20.94z"/>
		<path d="M8.48-27c4.51,0,4.51,7,0,7S3.97-27,8.48-27z"/>
		<path d="M8.48-29.26c4.51,0,4.51,7,0,7S3.97-29.26,8.48-29.26z"/>
		<path d="M14.91-33.79c4.5,0,4.51,7,0,7S10.4-33.79,14.91-33.79z"/>
		<path d="M9.81-38.52c4.5,0,4.51,7,0,7S5.29-38.52,9.81-38.52z"/>
		<path d="M10.56-45.13c4.51,0,4.51,7,0,7S6.05-45.13,10.56-45.13z"/>
		<path d="M10.56-49.48c4.51,0,4.51,7,0,7S6.05-49.48,10.56-49.48z"/>
		<path d="M12.83-18.12c2.57,0,2.58,4,0,4S10.25-18.12,12.83-18.12z"/>
		<path d="M13-20.39c2.57,0,2.58,4,0,4S10.42-20.39,13-20.39z"/>
		<path d="M13.1-21v-0.19c0-1.1,0.9-2,2-2s2,0.9,2,2V-21c0,1.1-0.9,2-2,2S13.1-19.9,13.1-21z"/>
		<path d="M15.1-25.87c2.57,0,2.58,4,0,4S12.52-25.87,15.1-25.87z"/>
		<path d="M16.61-11.07c0.55,0,1,0.45,1,1s-0.45,1-1,1s-1-0.45-1-1S16.06-11.07,16.61-11.07z"/>
		<path d="M21.71-16.55c0.55,0,1,0.45,1,1c0,0.55-0.45,1-1,1s-1-0.45-1-1C20.71-16.1,21.16-16.55,21.71-16.55z"/>
		<path d="M16.85-8.94v0.38c0,0.55-0.45,1-1,1c-0.55,0-1-0.45-1-1v-0.38c0-0.55,0.45-1,1-1C16.4-9.94,16.85-9.49,16.85-8.94z"/>
		<path d="M16.48-4.78v0.19c0,0.55-0.45,1-1,1c-0.55,0-1-0.45-1-1v-0.19c0-0.55,0.45-1,1-1C16.03-5.78,16.48-5.33,16.48-4.78z"/>
		<path d="M15.48-2c0.55,0,1,0.45,1,1s-0.45,1-1,1c-0.55,0-1-0.45-1-1S14.93-2,15.48-2z"/>
		<path d="M10.56-2c0.55,0,1,0.45,1,1s-0.45,1-1,1c-0.55,0-1-0.45-1-1S10.01-2,10.56-2z"/>
		<path d="M10.37-4.65c0.55,0,1,0.45,1,1s-0.45,1-1,1c-0.55,0-1-0.45-1-1S9.82-4.65,10.37-4.65z"/>
		<path d="M7.35-6.16c0.55,0,1,0.45,1,1s-0.45,1-1,1s-1-0.45-1-1S6.8-6.16,7.35-6.16z"/>
		<path d="M11.88-7.1h0.38c0.55,0,1,0.45,1,1s-0.45,1-1,1h-0.38c-0.55,0-1-0.45-1-1S11.33-7.1,11.88-7.1z"/>
		<path d="M13.28-11l0.57-1.32c0.28-0.48,0.89-0.64,1.37-0.36c0,0,0,0,0,0c0.48,0.28,0.64,0.89,0.36,1.37c0,0,0,0,0,0L15-10
			c-0.28,0.48-0.89,0.64-1.37,0.36c0,0,0,0,0,0C13.16-9.92,13.01-10.53,13.28-11z"/>
		<path d="M18.44-19.33v-0.19c0-0.55,0.45-1,1-1s1,0.45,1,1v0.19c0,0.55-0.45,1-1,1S18.44-18.78,18.44-19.33z"/>
		<path d="M20.68-24.93l0.19-0.38c0.57-1.15,2.3-0.14,1.72,1l-0.19,0.38C21.83-22.78,20.1-23.79,20.68-24.93z"/>
		<path d="M22.13-29.38c-0.53-0.47-0.84-1.15-0.84-1.86c0-0.55,0.45-1,1-1s1,0.45,1,1c0.01,0.18,0.1,0.34,0.25,0.44
			c0.39,0.39,0.39,1.02,0.01,1.41c0,0,0,0-0.01,0.01C23.15-28.99,22.52-28.99,22.13-29.38z"/>
		<path d="M20.32-33.41l-0.54-1.71c-0.38-1.23,1.55-1.76,1.93-0.53l0.54,1.71C22.63-32.71,20.7-32.18,20.32-33.41z"/>
		<path d="M19.44-37h-0.19c-0.55,0-1-0.45-1-1s0.45-1,1-1h0.19c0.55,0,1,0.45,1,1S19.99-37,19.44-37z"/>
		<path d="M17.64-41.5l-0.19-0.38c-0.58-1.15,1.15-2.16,1.72-1l0.19,0.38C19.94-41.35,18.21-40.34,17.64-41.5z"/>
		<path d="M15.8-47.87v-0.56c0-0.55,0.45-1,1-1c0.55,0,1,0.45,1,1v0.56c0,0.55-0.45,1-1,1S15.8-47.32,15.8-47.87z"/>
		<path d="M14.34-49.43c0.55,0,1,0.45,1,1s-0.45,1-1,1c-0.55,0-1-0.45-1-1S13.79-49.43,14.34-49.43z"/>
		<path d="M14.34-41.31c0.55,0,1,0.45,1,1s-0.45,1-1,1c-0.55,0-1-0.45-1-1S13.79-41.31,14.34-41.31z"/>
		<path d="M17.13-36.47c0.59,0.34,0.97,0.96,1,1.64c0,0.55-0.45,1-1,1s-1-0.45-1-1c0,0.13,0.19,0.2,0,0.08
			C14.98-35.33,15.99-37.05,17.13-36.47z"/>
		<path d="M17.37-31.29c0.55,0,1,0.45,1,1s-0.45,1-1,1s-1-0.45-1-1S16.82-31.29,17.37-31.29z"/>
		<path d="M18.12-28.46c0.55,0,1,0.45,1,1s-0.45,1-1,1s-1-0.45-1-1S17.57-28.46,18.12-28.46z"/>
		<path d="M19-24.94l0.19,0.38c0.58,1.15-1.15,2.16-1.72,1l-0.19-0.38C16.7-25.09,18.43-26.1,19-24.94z"/>
		<path d="M17.93-16c0.55,0,1,0.45,1,1s-0.45,1-1,1s-1-0.45-1-1S17.38-16,17.93-16z"/>
		<path d="M24.64-16.05l0.57-0.94c0.32-0.45,0.95-0.55,1.4-0.22c0.38,0.28,0.52,0.79,0.32,1.22L26.37-15
			c-0.3,0.47-0.91,0.6-1.38,0.31c-0.44-0.28-0.59-0.85-0.35-1.31L24.64-16.05z"/>
		<path d="M34.88-29.72v-0.19c0-0.55,0.45-1,1-1s1,0.45,1,1v0.19c0,0.55-0.45,1-1,1S34.88-29.17,34.88-29.72z"/>
		<path d="M24-39.23c0.55,0,1,0.45,1,1s-0.45,1-1,1s-1-0.45-1-1S23.45-39.23,24-39.23z"/>
		<path d="M22.85-29c0.55,0,1,0.45,1,1s-0.45,1-1,1s-1-0.45-1-1S22.3-29,22.85-29z"/>
		<path d="M18.24-21.9l0.57,0.56c0.93,0.89-0.48,2.3-1.41,1.41l-0.58-0.56C15.89-21.38,17.31-22.79,18.24-21.9z"/>
	</g>
</pattern>
<g id="Capa_1">
	<g>
		<g class="st26">
			<ellipse class="st27" cx="376.22" cy="283.63" rx="8.92" ry="11.66"/>
			<path class="st27" d="M383.29,233.75c1.24-2.17,1.89-4.63,1.87-7.13c0-6.44-4-11.66-8.93-11.66c-4.93,0-8.95,5.23-8.95,11.67
				c-0.02,2.5,0.62,4.96,1.87,7.13c-2.49,4.43-2.49,9.82,0,14.25c-2.49,4.43-2.49,9.82,0,14.25c-1.25,2.17-1.89,4.63-1.87,7.13
				c0,6.43,4,11.66,8.92,11.66c4.92,0,8.93-5.23,8.93-11.66c0.03-2.5-0.62-4.96-1.87-7.13c2.49-4.43,2.49-9.82,0-14.25
				c2.49-4.43,2.49-9.82,0-14.25L383.29,233.75z"/>
			<ellipse class="st27" cx="376.22" cy="212.39" rx="8.92" ry="11.66"/>
			<ellipse class="st27" cx="376.22" cy="198.14" rx="8.92" ry="11.66"/>
			<path class="st1" d="M342.82,100.62c-1.22-1.55-2.33-3.18-3.32-4.88l23.45-3.84l-25.36,0.19c-4.91-10.68-5.19-22.91-0.78-33.8
				l34.02,17.61l-31.36-23.02c11.68-20.48,37.78-27.64,58.31-15.99c20.53,11.65,27.7,37.7,16.02,58.18
				c-1.11,1.94-2.36,3.79-3.76,5.54c1.9,2.41,3.54,5.02,4.88,7.78l-30.45,15.82l32.45-10.87c4.63,13.66,2.04,28.73-6.89,40.06
				c14.6,18.52,11.39,45.34-7.17,59.9c-18.56,14.57-45.43,11.36-60.03-7.15c-12.2-15.48-12.2-37.28,0-52.75
				c-12.2-15.48-12.2-37.28,0-52.75V100.62z"/>
			<path class="st28" d="M419.17,127c0.02,9.57-3.21,18.86-9.15,26.38c14.6,18.52,11.39,45.34-7.17,59.9
				c-18.56,14.57-45.43,11.36-60.03-7.15c-12.2-15.48-12.2-37.28,0-52.75C337.09,146.12,419.17,122.21,419.17,127z"/>
		</g>
		<g class="st26">
			<ellipse class="st27" cx="480.4" cy="258.7" rx="6.67" ry="8.71"/>
			<path class="st27" d="M485.67,221.43c0.93-1.62,1.41-3.46,1.39-5.32c0-4.81-2.99-8.72-6.67-8.72c-3.68,0-6.67,3.91-6.67,8.72
				c-0.02,1.87,0.46,3.7,1.4,5.32c-1.86,3.31-1.86,7.34,0,10.65c-1.86,3.31-1.86,7.34,0,10.65c-0.93,1.62-1.42,3.45-1.4,5.32
				c0,4.81,2.99,8.72,6.67,8.72s6.67-3.91,6.67-8.72c0.02-1.87-0.46-3.7-1.39-5.32c1.85-3.31,1.85-7.34,0-10.65
				C487.52,228.77,487.52,224.75,485.67,221.43z"/>
			<ellipse class="st27" cx="480.4" cy="205.46" rx="6.67" ry="8.71"/>
			<ellipse class="st27" cx="480.4" cy="194.82" rx="6.67" ry="8.71"/>
			<path class="st1" d="M455.44,121.94c-0.92-1.15-1.75-2.37-2.49-3.65l17.53-2.87l-18.95,0.14c-3.67-7.98-3.9-17.12-0.61-25.27
				l25.43,13.17l-23.45-17.21c8.81-15.26,28.35-20.49,43.64-11.7c15.29,8.8,20.54,28.29,11.72,43.55c-0.77,1.34-1.64,2.62-2.6,3.83
				c1.42,1.8,2.64,3.75,3.65,5.81l-22.74,11.79l24.25-8.12c3.46,10.21,1.52,21.47-5.15,29.94c10.92,13.83,8.54,33.87-5.32,44.77
				c-13.86,10.9-33.94,8.52-44.86-5.31c-9.14-11.57-9.14-27.89,0-39.46c-9.12-11.57-9.12-27.86,0-39.42L455.44,121.94z"/>
			<path class="st28" d="M512.49,141.66c0.01,7.15-2.4,14.1-6.84,19.71c10.92,13.83,8.54,33.87-5.32,44.77
				c-13.86,10.9-33.94,8.52-44.86-5.31c-9.14-11.57-9.14-27.89,0-39.46C451.17,155.94,512.49,138.08,512.49,141.66z"/>
		</g>
		<g class="st26">
			<ellipse class="st27" cx="814.68" cy="252.33" rx="8.92" ry="11.66"/>
			<path class="st27" d="M807.61,202.45c-1.24-2.17-1.89-4.63-1.87-7.13c0-6.44,4-11.66,8.93-11.66c4.93,0,8.92,5.22,8.92,11.66
				c0.02,2.5-0.62,4.96-1.87,7.13c2.49,4.43,2.49,9.82,0,14.25c2.49,4.43,2.49,9.82,0,14.25c1.25,2.17,1.89,4.63,1.87,7.13
				c0,6.43-4,11.66-8.92,11.66s-8.93-5.23-8.93-11.66c-0.03-2.5,0.62-4.96,1.87-7.13c-2.49-4.43-2.49-9.82,0-14.25
				C805.12,212.28,805.12,206.88,807.61,202.45z"/>
			<ellipse class="st27" cx="814.68" cy="181.09" rx="8.92" ry="11.66"/>
			<ellipse class="st27" cx="814.68" cy="166.84" rx="8.92" ry="11.66"/>
			<path class="st1" d="M848.08,69.32c1.22-1.55,2.33-3.18,3.32-4.88l-23.45-3.84l25.36,0.19c4.91-10.68,5.19-22.91,0.78-33.8
				L820.08,44.6l31.36-23.02C839.77,1.1,813.66-6.06,793.14,5.59c-20.53,11.65-27.7,37.7-16.02,58.18c1.11,1.94,2.36,3.79,3.76,5.54
				c-1.9,2.41-3.54,5.02-4.88,7.78l30.45,15.82l-32.45-10.87c-4.63,13.66-2.04,28.73,6.89,40.06c-14.6,18.52-11.39,45.34,7.17,59.9
				c18.56,14.57,45.43,11.36,60.03-7.15c12.2-15.48,12.2-37.28,0-52.75c12.2-15.48,12.2-37.28,0-52.75L848.08,69.32z"/>
			<path class="st28" d="M771.73,95.7c-0.02,9.57,3.21,18.86,9.15,26.38c-14.6,18.52-11.39,45.34,7.17,59.9
				c18.56,14.57,45.43,11.36,60.03-7.15c12.2-15.48,12.2-37.28,0-52.75C853.81,114.82,771.73,90.91,771.73,95.7z"/>
		</g>
		<g class="st26">
			<ellipse class="st27" cx="728.53" cy="254.01" rx="6.67" ry="8.71"/>
			<path class="st27" d="M723.26,216.74c-0.93-1.62-1.41-3.46-1.39-5.32c0-4.81,2.99-8.72,6.67-8.72s6.67,3.91,6.67,8.72
				c0.02,1.87-0.46,3.7-1.4,5.32c1.86,3.31,1.86,7.34,0,10.65c1.86,3.31,1.86,7.34,0,10.65c0.93,1.62,1.42,3.45,1.4,5.32
				c0,4.81-2.99,8.72-6.67,8.72c-3.69,0-6.67-3.91-6.67-8.72c-0.02-1.87,0.46-3.7,1.39-5.32c-1.85-3.31-1.85-7.34,0-10.65
				C721.42,224.08,721.42,220.05,723.26,216.74z"/>
			<ellipse class="st27" cx="728.53" cy="200.77" rx="6.67" ry="8.71"/>
			<ellipse class="st27" cx="728.53" cy="190.12" rx="6.67" ry="8.71"/>
			<path class="st1" d="M753.5,117.25c0.92-1.15,1.75-2.37,2.49-3.65l-17.53-2.87l18.95,0.14c3.67-7.98,3.9-17.12,0.61-25.27
				l-25.43,13.17l23.45-17.21c-8.81-15.26-28.35-20.49-43.64-11.7s-20.54,28.29-11.72,43.55c0.77,1.34,1.64,2.62,2.6,3.83
				c-1.42,1.8-2.64,3.75-3.65,5.81l22.74,11.79l-24.21-8.11c-3.46,10.21-1.52,21.47,5.15,29.94c-10.92,13.83-8.54,33.87,5.32,44.77
				c13.86,10.9,33.94,8.52,44.86-5.31c9.14-11.57,9.14-27.89,0-39.46C762.62,145.11,762.62,128.82,753.5,117.25L753.5,117.25z"/>
			<path class="st28" d="M696.45,136.96c-0.01,7.15,2.4,14.1,6.84,19.71c-10.92,13.83-8.54,33.87,5.32,44.77
				c13.86,10.9,33.94,8.52,44.86-5.31c9.14-11.57,9.14-27.89,0-39.46C757.76,151.25,696.45,133.38,696.45,136.96z"/>
		</g>
		<g class="st26">
			<ellipse class="st27" cx="48.59" cy="252.33" rx="8.92" ry="11.66"/>
			<path class="st27" d="M55.65,202.45c1.24-2.17,1.89-4.63,1.87-7.13c0-6.44-4-11.66-8.92-11.66s-8.92,5.22-8.92,11.66
				c-0.03,2.5,0.62,4.96,1.86,7.13c-2.48,4.43-2.48,9.82,0,14.25c-2.48,4.43-2.48,9.82,0,14.25c-1.24,2.17-1.89,4.63-1.86,7.13
				c0,6.43,3.99,11.66,8.92,11.66s8.95-5.21,8.95-11.64c0.03-2.5-0.62-4.96-1.87-7.13c2.49-4.43,2.49-9.82,0-14.25
				c2.49-4.43,2.49-9.82,0-14.25L55.65,202.45z"/>
			<ellipse class="st27" cx="48.59" cy="181.09" rx="8.92" ry="11.66"/>
			<ellipse class="st27" cx="48.59" cy="166.84" rx="8.92" ry="11.66"/>
			<path class="st1" d="M15.2,69.32c-1.22-1.55-2.33-3.18-3.32-4.88l23.45-3.84L9.94,60.83c-4.91-10.68-5.19-22.91-0.78-33.8
				l34.03,17.61L11.83,21.62C23.55,1.17,49.67-5.93,70.16,5.77s27.61,37.76,15.88,58.21c-1.08,1.88-2.3,3.67-3.65,5.37
				c1.9,2.41,3.54,5.02,4.88,7.78L56.82,92.91l32.46-10.87c4.62,13.66,2.03,28.73-6.9,40.06c14.6,18.52,11.39,45.34-7.17,59.9
				c-18.56,14.57-45.43,11.36-60.03-7.15c-12.2-15.48-12.2-37.28,0-52.75c-12.2-15.48-12.2-37.28,0-52.75L15.2,69.32z"/>
			<path class="st28" d="M91.53,95.7c0.02,9.57-3.21,18.86-9.15,26.38c14.6,18.52,11.39,45.34-7.17,59.9
				c-18.56,14.57-45.43,11.36-60.03-7.15c-12.2-15.48-12.2-37.28,0-52.75C9.45,114.82,91.53,90.91,91.53,95.7z"/>
		</g>
		<g class="st26">
			<ellipse class="st27" cx="134.73" cy="254.01" rx="6.67" ry="8.71"/>
			<path class="st27" d="M140.01,216.74c0.93-1.62,1.41-3.46,1.39-5.32c0-4.81-2.98-8.72-6.67-8.72s-6.67,3.91-6.67,8.72
				c-0.02,1.87,0.47,3.7,1.4,5.32c-1.86,3.31-1.86,7.34,0,10.65c-1.86,3.31-1.86,7.34,0,10.65c-0.93,1.62-1.41,3.45-1.4,5.32
				c0,4.81,2.99,8.72,6.67,8.72s6.67-3.91,6.67-8.72c0.02-1.87-0.46-3.7-1.39-5.32c1.85-3.31,1.85-7.34,0-10.65
				C141.85,224.08,141.85,220.05,140.01,216.74z"/>
			<ellipse class="st27" cx="134.73" cy="200.77" rx="6.67" ry="8.71"/>
			<ellipse class="st27" cx="134.73" cy="190.12" rx="6.67" ry="8.71"/>
			<path class="st1" d="M109.76,117.25c-0.91-1.16-1.74-2.37-2.49-3.65l17.53-2.87l-18.95,0.14c-3.67-7.98-3.9-17.12-0.61-25.27
				l25.43,13.17l-23.45-17.21c8.81-15.26,28.35-20.49,43.64-11.7c15.29,8.8,20.54,28.29,11.72,43.55c-0.77,1.34-1.64,2.62-2.6,3.83
				c1.42,1.8,2.65,3.75,3.65,5.81l-22.74,11.79l24.25-8.12c3.46,10.21,1.52,21.47-5.15,29.94c10.92,13.83,8.54,33.87-5.32,44.77
				c-13.86,10.9-33.94,8.52-44.86-5.31c-9.14-11.57-9.14-27.89,0-39.46c-9.12-11.57-9.12-27.86,0-39.42L109.76,117.25z"/>
			<path class="st28" d="M166.82,136.96c0.01,7.15-2.4,14.1-6.84,19.71c10.92,13.83,8.54,33.87-5.32,44.77
				c-13.86,10.9-33.94,8.52-44.86-5.31c-9.14-11.57-9.14-27.89,0-39.46C105.48,151.25,166.82,133.38,166.82,136.96z"/>
		</g>
		<ellipse class="st29" cx="430" cy="386.14" rx="429.7" ry="6.93"/>
		<ellipse class="st29" cx="430" cy="443.07" rx="429.7" ry="6.93"/>
		<ellipse class="st29" cx="430" cy="267.34" rx="429.7" ry="6.93"/>
		<ellipse class="st29" cx="430" cy="326.74" rx="429.7" ry="6.93"/>
		<path class="st29" d="M634.49,86.65c-2.8-0.53-5.69-0.21-8.31,0.91c-3.18,1.41-6.81,1.41-9.99,0c-3.76-1.65-8.06-1.57-11.76,0.23
			c-1.04,0.55-2.2,0.84-3.38,0.85c-4.77,0-8.73-4.79-9.55-11.1c0.94-0.7,1.74-1.57,2.35-2.56c2.79-4.49,7.11-7.38,11.97-7.38
			s9.13,2.85,11.92,7.29c1.69,2.73,4.69,4.38,7.91,4.33h0.13C629.61,79.18,632.9,82.21,634.49,86.65z"/>
		<path class="st29" d="M649.01,66.81l-7.7,4.87l4.7-8.48c-1.33-1.05-2.96-1.63-4.66-1.65h-0.13c-0.53,0.01-1.05-0.03-1.57-0.12
			l-2.65,1.65l1.12-2.03c-1.85-0.64-3.45-1.85-4.57-3.46l-4.7,2.96l2.95-5.35c-2.73-3.27-6.41-5.27-10.46-5.27
			c-4.86,0-9.18,2.88-11.98,7.37c-1.68,2.73-4.7,4.36-7.91,4.26h-0.26c-5.36,0-9.71,6.06-9.71,13.54c0,7.48,4.34,13.55,9.71,13.55
			c1.18-0.01,2.34-0.3,3.38-0.85c3.7-1.8,8-1.88,11.76-0.23c3.18,1.42,6.81,1.42,9.99,0c3.73-1.61,7.98-1.53,11.65,0.23
			c1.03,0.54,2.18,0.82,3.34,0.83c5.36,0,9.71-6.07,9.71-13.55C651.05,72.19,650.36,69.35,649.01,66.81z"/>
		<path class="st29" d="M307.1,82.41c-1.96-0.37-3.99-0.15-5.83,0.63c-2.22,0.99-4.76,0.99-6.99,0c-2.63-1.15-5.64-1.09-8.23,0.16
			c-0.73,0.38-1.53,0.58-2.35,0.59c-3.33,0-6.11-3.35-6.69-7.77c0.67-0.49,1.23-1.09,1.67-1.79c1.95-3.13,4.98-5.16,8.38-5.16
			s6.39,2,8.34,5.1c1.19,1.91,3.29,3.06,5.54,3.04h0.09C303.68,77.2,305.98,79.32,307.1,82.41z"/>
		<path class="st29" d="M317.25,68.54l-5.39,3.41l3.27-5.94c-0.92-0.74-2.07-1.15-3.25-1.16h-0.09c-0.37,0.01-0.75-0.02-1.11-0.09
			l-1.83,1.16l0.78-1.42c-1.3-0.45-2.41-1.3-3.2-2.42l-3.27,2.07l2.07-3.74c-1.76-2.27-4.45-3.63-7.32-3.7
			c-3.4,0-6.43,2.02-8.38,5.16c-1.18,1.91-3.29,3.05-5.54,2.98h-0.18c-3.76,0-6.8,4.24-6.8,9.48c0,5.24,3.04,9.48,6.8,9.48
			c0.82-0.01,1.63-0.21,2.35-0.59c2.58-1.25,5.59-1.31,8.22-0.16c1.11,0.5,2.31,0.77,3.52,0.78c1.2,0,2.38-0.25,3.47-0.74
			c2.61-1.13,5.59-1.07,8.15,0.16c0.73,0.38,1.53,0.58,2.35,0.58c3.75,0,6.79-4.25,6.79-9.48
			C318.69,72.34,318.21,70.33,317.25,68.54z"/>
		<path class="st29" d="M211.69,143.77c1.96-0.37,3.98-0.15,5.82,0.63c2.23,0.99,4.77,0.99,6.99,0c2.63-1.15,5.64-1.09,8.23,0.16
			c0.72,0.39,1.53,0.59,2.35,0.59c3.33,0,6.11-3.36,6.68-7.78c-0.66-0.48-1.23-1.09-1.66-1.79c-1.96-3.13-4.99-5.16-8.38-5.16
			c-3.4,0-6.39,1.99-8.35,5.1c-1.18,1.91-3.28,3.06-5.54,3.04h-0.09C215.1,138.58,212.8,140.7,211.69,143.77z"/>
		<path class="st29" d="M201.53,129.92l5.39,3.41l-3.28-5.93c0.93-0.74,2.07-1.15,3.26-1.17H207c0.38,0.01,0.75-0.02,1.12-0.08
			l1.83,1.15l-0.78-1.42c1.29-0.45,2.41-1.3,3.19-2.42l3.27,2.07l-2.04-3.75c1.76-2.27,4.45-3.62,7.32-3.69
			c3.4,0,6.43,2.02,8.38,5.16c1.18,1.91,3.29,3.05,5.54,2.98h0.19c3.75,0,6.79,4.25,6.79,9.48c0,5.23-3.04,9.48-6.79,9.48
			c-0.82,0-1.63-0.2-2.35-0.59c-2.58-1.26-5.59-1.32-8.23-0.16c-1.1,0.51-2.3,0.77-3.51,0.78c-1.2,0-2.38-0.25-3.48-0.74
			c-2.61-1.13-5.58-1.07-8.15,0.16c-0.73,0.38-1.53,0.58-2.35,0.58c-3.76,0-6.8-4.24-6.8-9.48
			C200.11,133.72,200.58,131.72,201.53,129.92z"/>
		<path class="st30" d="M521.2,383.9c2.05-3.79-0.27-8.42-2.94-11.79c-2.67-3.37-5.93-6.89-5.86-11.18
			c0.1-6.17,6.67-9.83,11.92-13.1c3.9-2.44,7.49-5.33,10.7-8.61c1.34-1.26,2.46-2.75,3.29-4.4c1.09-2.41,1.06-5.16,0.99-7.82
			c-0.22-8.81-0.66-17.62-1.31-26.42"/>
		<path class="st1" d="M547.97,300.14c-0.15-3.28-1.97-6.26-4.82-7.9l-2.16,4.26l0.07-5.16c-5.11-1.5-10.48,1.42-11.99,6.52
			c-1.51,5.1,1.42,10.46,6.53,11.96c5.11,1.5,10.48-1.42,11.99-6.52C547.89,302.28,548.02,301.21,547.97,300.14z"/>
		<path class="st1" d="M530.75,365.34c-2.44,4.73-8.26,6.59-13,4.16c-3.06-1.57-5.05-4.64-5.22-8.07c-0.07-1.33,0.14-2.67,0.63-3.91
			c1.94-4.96,7.54-7.41,12.51-5.47c2.55,0.99,4.55,3.02,5.52,5.57l-6.03,4.9l6.63-1.56C531.8,362.47,531.45,363.98,530.75,365.34z"
			/>
		<path class="st1" d="M525.98,346.64c-5.33,0.25-9.85-3.85-10.1-9.17c-0.21-4.48,2.71-8.52,7.04-9.73l-0.05,3.97l2.19-4.32l0,0
			c5.33-0.25,9.85,3.86,10.1,9.17s-3.87,9.83-9.19,10.07L525.98,346.64z"/>
		<path class="st1" d="M549.42,331.07c-5.32,0.27-9.86-3.81-10.14-9.12c-0.28-5.31,3.82-9.84,9.14-10.12
			c1.84-0.09,3.66,0.34,5.26,1.24l-1.7,4.69l3.47-3.43c3.93,3.59,4.19,9.69,0.59,13.61c-1.72,1.87-4.12,2.99-6.66,3.11
			L549.42,331.07z"/>
		<path class="st28" d="M546.67,302.71c-2.23,0.24-4.39,0.93-6.63,1.07c-2.24,0.14-4.7-0.4-6.1-2.13c-0.66-1.01-1.25-2.05-1.79-3.13
			c-0.61-0.95-1.44-1.73-2.43-2.28c-2.42,4.74-0.54,10.54,4.21,12.96c4.75,2.42,10.56,0.54,12.99-4.2c0.38-0.75,0.66-1.54,0.84-2.36
			C547.4,302.65,547.03,302.67,546.67,302.71z"/>
		<path class="st28" d="M549.42,331.07c-5.32,0.25-9.85-3.85-10.1-9.17c-0.07-1.58,0.24-3.15,0.92-4.57
			c0.77,0.52,1.42,1.17,1.94,1.94c0.58,1.1,1.22,2.16,1.91,3.18c1.51,1.76,4.08,2.35,6.41,2.23c2.33-0.12,4.58-0.78,6.9-0.98
			c0.32,0,0.64-0.05,0.97-0.05C557.38,327.85,553.73,330.87,549.42,331.07z"/>
		<path class="st28" d="M525.98,346.64c-5.33,0.25-9.84-3.86-10.09-9.17c-0.07-1.51,0.21-3.01,0.83-4.39
			c0.8,0.52,1.49,1.19,2.05,1.96c0.63,1.12,1.33,2.21,2.09,3.25c1.62,1.81,4.37,2.45,6.83,2.35s4.7-0.63,7.06-0.78
			C533.55,343.72,530.05,346.44,525.98,346.64z"/>
		<path class="st28" d="M530.75,365.34c-2.44,4.73-8.26,6.59-13,4.16c-3.06-1.57-5.05-4.64-5.22-8.07
			c-0.07-1.33,0.14-2.67,0.63-3.91c0.8,0.52,1.51,1.16,2.12,1.89c0.92,1.11,1.52,2.35,2.59,3.42c1.97,1.93,5.16,2.73,7.99,2.8
			C527.49,365.62,529.13,365.53,530.75,365.34z"/>
		<path class="st30" d="M42.89,327.56c2.05-3.79-0.27-8.42-2.94-11.79c-2.67-3.37-5.93-6.9-5.86-11.18
			c0.1-6.17,6.67-9.83,11.92-13.1c3.9-2.44,7.49-5.33,10.7-8.61c1.34-1.26,2.46-2.75,3.29-4.4c1.09-2.41,1.06-5.16,0.99-7.82
			c-0.23-8.81-0.67-17.62-1.31-26.42"/>
		<path class="st1" d="M69.66,243.81c-0.15-3.28-1.97-6.26-4.82-7.9l-2.16,4.26l0.07-5.16c-5.11-1.5-10.48,1.42-11.99,6.52
			c-1.51,5.1,1.42,10.46,6.53,11.96c5.11,1.5,10.48-1.42,11.99-6.52C69.58,245.94,69.71,244.87,69.66,243.81L69.66,243.81z"/>
		<path class="st1" d="M52.44,309c-2.44,4.73-8.26,6.59-13,4.16c-3.06-1.57-5.05-4.64-5.22-8.07c-0.07-1.33,0.14-2.67,0.63-3.91
			c1.94-4.96,7.54-7.41,12.51-5.47c2.55,0.99,4.55,3.02,5.52,5.57l-6.03,4.9l6.63-1.56C53.49,306.14,53.13,307.64,52.44,309z"/>
		<path class="st1" d="M47.67,290.3c-5.33,0.25-9.85-3.85-10.1-9.17c-0.21-4.48,2.71-8.52,7.04-9.73l-0.05,3.97l2.19-4.32l0,0
			c5.33-0.25,9.85,3.86,10.1,9.17c0.25,5.32-3.87,9.83-9.19,10.07H47.67z"/>
		<path class="st1" d="M71.11,274.74c-5.32,0.27-9.86-3.81-10.14-9.12c-0.28-5.31,3.82-9.84,9.14-10.12
			c1.84-0.09,3.66,0.34,5.26,1.24l-1.7,4.69l3.47-3.43c3.93,3.6,4.19,9.69,0.59,13.61c-1.72,1.87-4.12,2.99-6.66,3.11L71.11,274.74z
			"/>
		<path class="st28" d="M68.35,246.37c-2.23,0.24-4.39,0.93-6.63,1.07c-2.24,0.14-4.7-0.4-6.1-2.13c-0.66-1.01-1.25-2.05-1.79-3.13
			c-0.61-0.95-1.44-1.73-2.43-2.28c-2.42,4.74-0.54,10.54,4.21,12.96c4.75,2.42,10.56,0.54,12.99-4.2c0.38-0.75,0.66-1.54,0.84-2.36
			C69.08,246.31,68.71,246.33,68.35,246.37z"/>
		<path class="st28" d="M71.11,274.74c-5.33,0.25-9.85-3.85-10.1-9.17c-0.07-1.58,0.24-3.15,0.92-4.57
			c0.77,0.52,1.42,1.17,1.94,1.94c0.58,1.1,1.22,2.16,1.91,3.18c1.51,1.76,4.08,2.35,6.41,2.23c2.33-0.12,4.58-0.78,6.9-0.98
			c0.32,0,0.64-0.05,0.97-0.05C79.07,271.51,75.41,274.54,71.11,274.74z"/>
		<path class="st28" d="M47.67,290.3c-5.33,0.25-9.84-3.86-10.09-9.17c-0.07-1.51,0.21-3.01,0.83-4.39c0.8,0.52,1.49,1.19,2.05,1.96
			c0.63,1.12,1.33,2.21,2.09,3.25c1.62,1.81,4.37,2.45,6.83,2.35c2.46-0.1,4.7-0.63,7.06-0.78C55.24,287.39,51.73,290.1,47.67,290.3
			z"/>
		<path class="st28" d="M52.44,309c-2.44,4.73-8.26,6.59-13,4.16c-3.06-1.57-5.05-4.64-5.22-8.07c-0.07-1.33,0.14-2.67,0.63-3.91
			c0.8,0.52,1.51,1.16,2.12,1.89c0.92,1.11,1.52,2.35,2.59,3.42c1.97,1.93,5.16,2.73,7.99,2.8C49.17,309.29,50.81,309.19,52.44,309z
			"/>
		<path class="st30" d="M361.4,263.11c-2.05-3.78,0.27-8.41,2.95-11.78s5.92-6.89,5.85-11.18c-0.09-6.18-6.67-9.83-11.92-13.1
			c-3.89-2.44-7.48-5.33-10.7-8.61c-1.35-1.26-2.47-2.74-3.29-4.39c-1.08-2.42-1.05-5.16-0.99-7.82c0.24-8.81,0.67-17.62,1.31-26.42
			"/>
		<path class="st1" d="M334.64,179.36c0.15-3.28,1.97-6.25,4.81-7.9l2.16,4.26l-0.06-5.16c1.03-0.3,2.1-0.43,3.18-0.38
			c5.33,0.25,9.44,4.76,9.19,10.07c-0.25,5.31-4.77,9.42-10.09,9.17C338.51,189.18,334.4,184.67,334.64,179.36L334.64,179.36z"/>
		<path class="st1" d="M351.85,244.56c2.44,4.73,8.25,6.6,13,4.17c4.74-2.43,6.61-8.24,4.18-12.97c-2.44-4.73-8.25-6.6-13-4.17
			c-2.14,1.1-3.8,2.96-4.64,5.21l6.03,4.9l-6.63-1.56C350.78,241.67,351.15,243.19,351.85,244.56z"/>
		<path class="st1" d="M356.62,225.86c5.32,0.26,9.85-3.84,10.11-9.16c0.22-4.49-2.7-8.53-7.04-9.74l0.05,3.97l-2.19-4.32l0,0
			c-5.32-0.26-9.85,3.83-10.12,9.15c-0.06,1.11,0.09,2.22,0.42,3.29C349.03,222.94,352.55,225.66,356.62,225.86z"/>
		<path class="st1" d="M333.19,210.28c5.32,0.27,9.86-3.82,10.13-9.13c0.27-5.31-3.83-9.84-9.15-10.11
			c-1.83-0.09-3.66,0.34-5.26,1.24l1.71,4.69l-3.51-3.36c-1.89,1.71-3.02,4.11-3.14,6.65c-0.05,0.89,0.04,1.78,0.24,2.65
			C325.23,207.1,328.89,210.1,333.19,210.28z"/>
		<path class="st28" d="M335.94,181.93c2.23,0.24,4.39,0.93,6.63,1.07c2.23,0.14,4.7-0.4,6.11-2.13c0.65-1.01,1.25-2.05,1.78-3.13
			c0.61-0.95,1.45-1.73,2.44-2.28c2.43,4.74,0.55,10.54-4.2,12.96c-4.75,2.42-10.56,0.55-12.99-4.19c-0.39-0.75-0.67-1.55-0.85-2.38
			C335.22,181.86,335.58,181.89,335.94,181.93z"/>
		<path class="st28" d="M333.19,210.28c5.33,0.24,9.85-3.87,10.09-9.19c0.07-1.57-0.24-3.13-0.91-4.55
			c-0.77,0.52-1.43,1.17-1.94,1.94c-0.58,1.1-1.22,2.16-1.91,3.18c-1.5,1.76-4.07,2.35-6.4,2.23c-2.33-0.12-4.58-0.78-6.9-0.98
			c-0.32,0-0.65-0.05-0.97-0.05C325.23,207.05,328.88,210.08,333.19,210.28z"/>
		<path class="st28" d="M356.62,225.86c5.32,0.26,9.84-3.84,10.1-9.15c0.07-1.52-0.21-3.03-0.84-4.41
			c-0.79,0.52-1.49,1.18-2.04,1.96c-0.63,1.12-1.33,2.21-2.09,3.25c-1.63,1.81-4.37,2.45-6.84,2.35c-2.47-0.1-4.7-0.63-7.06-0.78
			C349.05,222.95,352.56,225.66,356.62,225.86z"/>
		<path class="st28" d="M351.85,244.56c2.45,4.72,8.28,6.56,13.01,4.11c4.34-2.25,6.31-7.37,4.59-11.94
			c-0.8,0.52-1.51,1.15-2.12,1.89c-0.92,1.11-1.57,2.35-2.59,3.42c-1.98,1.93-5.16,2.73-8,2.8
			C355.12,244.84,353.48,244.75,351.85,244.56z"/>
		<ellipse class="st4" cx="611.71" cy="186.65" rx="78.38" ry="78.21"/>
		<path class="st5" d="M645.35,206.83c-2.73-2.72-9.29-6.83-12.55-8.36c-3.76-1.8-5.14-1.77-7.79,0.15
			c-2.21,1.56-3.65,3.08-6.19,2.52c-2.54-0.56-7.57-4.34-12.44-9.19c-4.87-4.84-8.65-9.84-9.19-12.41
			c-0.54-2.57,0.95-3.97,2.53-6.18c1.91-2.65,1.97-4.03,0.15-7.78c-1.57-3.25-5.64-9.78-8.39-12.52c-2.75-2.74-3.35-2.14-4.85-1.56
			c-1.55,0.65-3.04,1.43-4.45,2.35c-2.73,1.82-4.26,3.34-5.33,5.63c-1.07,2.28-2.29,6.53,3.96,17.63
			c4.61,8.49,10.45,16.26,17.33,23.06l0,0l0,0c6.83,6.88,14.65,12.72,23.19,17.32c11.12,6.26,15.38,5.02,17.67,3.95
			s3.81-2.57,5.63-5.32c0.92-1.4,1.7-2.89,2.35-4.44C647.49,210.17,648.1,209.56,645.35,206.83z"/>
		<path class="st28" d="M611.71,108.45c-43.31-0.02-78.43,34.99-78.45,78.21s35.07,78.26,78.37,78.29
			c43.31,0.02,78.43-34.99,78.45-78.21c0-0.03,0-0.05,0-0.08C690.06,143.47,654.98,108.47,611.71,108.45z M611.71,254.47
			c-37.53,0-67.96-30.36-67.96-67.82c0-37.45,30.43-67.82,67.96-67.82c37.53,0,67.96,30.36,67.96,67.82v0
			C679.67,224.11,649.24,254.47,611.71,254.47L611.71,254.47L611.71,254.47z"/>
		<ellipse class="st4" cx="431.63" cy="305.46" rx="78.38" ry="78.21"/>
		<path class="st5" d="M476.21,281.83l-23.47,23.83c-0.17,0.16-0.17,0.43-0.01,0.6c0,0,0.01,0.01,0.01,0.01l16.47,17.47
			c1.1,1.11,1.1,2.9-0.02,4.01c-0.53,0.52-1.24,0.82-1.98,0.82c-0.75,0-1.47-0.3-2.01-0.83l-16.38-17.41
			c-0.17-0.17-0.45-0.17-0.63,0l-3.99,4.02c-3.3,3.37-7.82,5.27-12.55,5.27c-4.81-0.02-9.41-1.97-12.77-5.41l-3.83-3.91
			c-0.17-0.17-0.45-0.17-0.63,0l-16.34,17.37c-1.1,1.1-2.9,1.11-4,0c0,0,0,0,0,0c-1.11-1.1-1.11-2.88-0.01-3.98
			c0,0,0.01-0.01,0.01-0.01l16.4-17.43c0.15-0.18,0.15-0.43,0-0.61l-23.47-23.83c-0.17-0.17-0.44-0.17-0.61,0
			c-0.08,0.08-0.13,0.19-0.13,0.31v47.68c0.01,3.84,3.13,6.94,6.97,6.96h76.74c3.84-0.01,6.96-3.12,6.97-6.96v-47.64
			c0.01-0.24-0.17-0.44-0.41-0.45C476.42,281.68,476.29,281.73,476.21,281.83z"/>
		<path class="st5" d="M431.63,313.95c3.21,0.03,6.3-1.24,8.56-3.52l34.18-34.72c-1.21-1-2.74-1.56-4.31-1.56h-76.8
			c-1.58,0.01-3.1,0.56-4.31,1.56l34.19,34.72C425.38,312.7,428.44,313.97,431.63,313.95z"/>
		<path class="st28" d="M430.64,227.25c-43.31-0.02-78.43,34.99-78.45,78.21c-0.02,43.21,35.07,78.26,78.37,78.29
			c43.31,0.02,78.43-34.99,78.45-78.21c0-0.03,0-0.05,0-0.08C508.99,262.27,473.92,227.27,430.64,227.25z M430.64,373.27
			c-37.53,0-67.96-30.36-67.96-67.82c0-37.45,30.43-67.82,67.96-67.82S498.6,268,498.6,305.46l0,0
			C498.6,342.91,468.18,373.27,430.64,373.27z"/>
		<ellipse class="st4" cx="245.61" cy="247.04" rx="78.38" ry="78.21"/>
		<path class="st5" d="M245.61,209.62l-31.25,71.94l2.92,2.91L245.62,272l28.34,12.47l2.92-2.91L245.61,209.62z"/>
		<path class="st28" d="M245.61,168.81c-43.31-0.02-78.43,34.99-78.45,78.21s35.07,78.26,78.37,78.29
			c43.31,0.02,78.43-34.99,78.45-78.21c0-0.01,0-0.03,0-0.04C323.99,203.85,288.9,168.83,245.61,168.81z M245.61,314.83
			c-37.53,0-67.96-30.36-67.96-67.82s30.43-67.82,67.96-67.82s67.96,30.36,67.96,67.82c0,0.01,0,0.03,0,0.04
			c0,37.45-30.43,67.81-67.96,67.81V314.83z"/>
		
			<linearGradient id="SVGID_1_" gradientUnits="userSpaceOnUse" x1="653.7968" y1="2065.1511" x2="653.7968" y2="2199.7954" gradientTransform="matrix(1 0 0 -1 -52 2511.3701)">
			<stop  offset="0" style="stop-color:#808080;stop-opacity:0.25"/>
			<stop  offset="0.54" style="stop-color:#808080;stop-opacity:0.12"/>
			<stop  offset="1" style="stop-color:#808080;stop-opacity:0.1"/>
		</linearGradient>
		<path class="st2" d="M618.92,345.55c-0.71-1.73-1.44-3.46-2.19-5.18c-0.62-1.68-1.52-3.24-2.67-4.61
			c-0.44-0.49-0.97-0.89-1.57-1.17c-0.66-0.24-1.35-0.38-2.05-0.41c-1.07-0.13-2.14-0.16-3.21-0.09c-0.42-0.13-0.89-0.29-1.35-0.48
			c4.76-1.25,8.15-5.46,8.34-10.37c0-0.16,0-0.32,0-0.48c0.03-6.16-4.96-11.17-11.13-11.2c0,0,0,0,0,0c-2.07,0-4.09,0.57-5.84,1.67
			c-4.76-1.08-9.64,1.27-11.76,5.66c-2.63,2.51-4.08,6-4,9.62c0,0.16,0,0.34,0,0.49c0.2,6.08,4.14,10.95,9.11,11.45
			c-0.53,0.24-1.02,0.56-1.44,0.96c-1.52,1.46-1.77,3.79-1.94,5.9l-0.12,1.56l-2.63,0.94c-0.25,0.09-0.38,0.37-0.29,0.62
			c0.03,0.09,0.1,0.18,0.18,0.23l2.52,1.79c0,0.15,0,0.3,0,0.45s0,0.34,0.05,0.51c-0.43,0.38-0.76,0.85-0.97,1.38
			c-0.25,0.82-0.32,1.68-0.23,2.54l0.09,2.18c-0.01,1.64,0.21,3.28,0.67,4.86c0.33,0.97,1.76,3.31,2.78,3.33
			c-0.95,4.3-1.2,13.38-1.2,13.38c-0.12,0.12,0.21,0.23,0.78,0.32c0.56,4.32,2.41,16.43,5.68,21.76c0.51,1.74,0.93,3.5,1.23,5.29
			c0,0,0.93,11.51,2.16,14.93c1.05,2.91,1.88,10.09,2.11,12.18c-0.43,0.11-0.77,0.46-0.87,0.89c-0.62,1.86-4.63,4.69-4.63,4.69
			c-1.23,0.61-2.39,1.36-3.47,2.21c-1.26,1.13-1.22,2.16,4.39,1.52c10.82-1.24,12.67-4.69,12.67-4.69s-0.17-0.58-0.43-1.33
			c-0.33-1.17-0.81-2.29-1.42-3.34c-0.16-0.15-0.31,0.1-0.5,0.49c-0.82-4.99-1.06-10.06-0.74-15.11c0,0,0.31-5.29-1.24-9.02
			c-0.34-1.95-0.34-3.95,0-5.91c0.62-2.49-2.47-14.62-2.47-14.62l-1.77-8.94c0.24,0.31,0.41,0.66,0.49,1.04l0.05,0.18l0.05,0.26
			c0.02,0.09,0.06,0.18,0.13,0.24c1.21,5.01,4.52,18.88,4.52,20.92c0,2.49,3.09,8.71,3.09,8.71s1.23,10.27,3.4,14.3
			c1.65,3.08,1.69,7.58,1.61,9.57l0,0c0,0-0.37,2.56-0.99,3.18c-0.49,0.61-0.89,1.29-1.17,2.03l-0.07,0.15c0,0-0.93,1.87-0.31,2.18
			c2.36,0.92,4.91,1.24,7.42,0.93c0,0,1.24-1.56,1.24-2.18c-0.03-0.37-0.07-0.74-0.14-1.11c-0.23-1.47-0.65-3.79-0.66-3.81
			c0.26-1-0.78-3.79-0.78-3.79l-0.31-8.71c0.57-5.9-0.16-11.85-2.16-17.43c0,0-1.57-5.59-1.23-7.15s-0.62-18.04-0.62-18.04
			l-0.09-0.23c-0.08-1.17-0.05-2.34,0.09-3.5c0.31-3.73-0.93-11.51-1.24-11.82c-0.26-0.84-0.4-1.7-0.44-2.57
			c0.07-0.65,0.28-2.55,0.57-4.91c3.05-0.1,6.09-0.37,9.11-0.78c0.29,0,0.57-0.11,0.78-0.31c0.12-0.19,0.19-0.41,0.18-0.63
			C622.42,354.44,620.7,349.88,618.92,345.55z M612.7,355.42c0.32-2.23,0.67-4.39,1.01-5.99l0.05,0.14
			c0.59,1.61,1.09,3.26,1.49,4.93C614.43,354.87,613.57,355.18,612.7,355.42z"/>
		<path class="st32" d="M588.68,380.6c0,0,1.85,16.61,5.86,23.07c0.51,1.72,0.93,3.46,1.23,5.23c0,0,0.93,11.38,2.16,14.76
			c1.23,3.38,2.16,12.61,2.16,12.61s4.31,4.91,5.86,0.92c-0.97-5.27-1.28-10.64-0.93-15.99c0,0,0.31-5.23-1.23-8.92
			c-0.34-1.93-0.34-3.91,0-5.84c0.61-2.46-2.47-14.45-2.47-14.45l-2.46-12L588.68,380.6z"/>
		<path class="st33" d="M608.1,440.27c0,0-1.85,3.38-12.63,4.61c-5.6,0.63-5.64-0.38-4.38-1.5c1.07-0.85,2.23-1.58,3.45-2.19
			c0,0,4.01-2.76,4.62-4.61s2.78-0.31,2.78-0.31c3.08,4.61,3.7-1.24,4.31-0.62c0.61,1.03,1.09,2.14,1.42,3.29
			C607.93,439.69,608.1,440.27,608.1,440.27z"/>
		<path class="st28" d="M608.1,440.27c0,0-1.85,3.38-12.63,4.61c-5.6,0.63-5.64-0.38-4.38-1.5c0.88,0.56,2.65,0.78,6.22-0.65
			c5.14-2.1,8.86-3.31,10.36-3.78C607.93,439.69,608.1,440.27,608.1,440.27z"/>
		<path class="st28" d="M605.02,421.2c0,0,0.31-5.23-1.23-8.92c-0.34-1.93-0.34-3.91,0-5.84c0.61-2.46-2.47-14.45-2.47-14.45
			l-2.46-12l-2.13,0.13l2.44,11.87c0,0,3.08,11.99,2.47,14.45c-0.34,1.93-0.34,3.91,0,5.84c1.57,3.69,1.23,8.92,1.23,8.92
			c-0.36,5.35-0.04,10.72,0.93,15.99c-0.17,0.5-0.48,0.94-0.89,1.27c1.14,0.52,2.35,0.49,3.05-1.27
			C604.97,431.92,604.66,426.55,605.02,421.2z"/>
		<path class="st27" d="M603.01,313.11c-2.06,0-4.07,0.57-5.82,1.65c-4.75-1.09-9.62,1.23-11.76,5.59
			c-2.62,2.47-4.06,5.92-3.99,9.51c0,6.54,4.41,11.84,9.86,11.84c3.92,0,7.36-2.79,8.93-6.82c0.91,0.24,1.84,0.36,2.78,0.36
			c6.13-0.01,11.09-4.97,11.09-11.08C614.08,318.06,609.12,313.11,603.01,313.11L603.01,313.11z"/>
		<path class="st32" d="M612.1,382.14l0.93,2.46c0,0,0.93,16.3,0.61,17.84c-0.31,1.54,1.24,7.04,1.24,7.04
			c1.99,5.51,2.73,11.39,2.16,17.21l0.31,8.61c0,0,1.23,3.38,0.62,4c-0.61,0.62-5.26-0.55-5.26-0.55s0.62-6.46-1.57-10.45
			c-2.19-4-3.39-14.15-3.39-14.15s-3.08-6.15-3.08-8.61s-4.93-22.45-4.93-22.45L612.1,382.14z"/>
		<path class="st27" d="M588.06,381.84c0,0,0.31-11.07,1.57-14.45c0.64-1.58,1.1-3.23,1.37-4.91c0,0,18.65,3.36,20.2,2.14
			c0,0,0.31,4.3,0.62,4.61c0.31,0.31,1.57,8,1.23,11.69s0,3.69,0,3.69s-12.64,1.85-12.95,0c-0.31-1.85-1.23-1.84-1.23-1.84
			S587.45,382.42,588.06,381.84z"/>
		<g class="st26">
			<path d="M598.23,381.84c0,0-7.79-0.21-10.15-0.63c0,0.4,0,0.63,0,0.63c-0.61,0.61,10.79,0.92,10.79,0.92
				c0.16,0.01,0.3,0.07,0.42,0.17C598.88,381.84,598.23,381.84,598.23,381.84z"/>
			<path d="M611.8,369.23c-0.31-0.31-0.62-4.61-0.62-4.61c-0.16,0.1-0.34,0.16-0.53,0.19c0.11,1.3,0.32,3.29,0.53,3.5
				c0.2,0.2,1.57,8,1.23,11.69c-0.34,3.69,0,3.69,0,3.69s-10,1.46-12.42,0.49c0,0.13,0.07,0.28,0.09,0.44c0.31,1.85,12.95,0,12.95,0
				s-0.31,0,0-3.69C613.34,377.23,612.1,369.54,611.8,369.23z"/>
			
				<pattern  id="SVGID_3_" xlink:href="#ad310e25-2b04-44c8-bb7b-9823891" patternTransform="matrix(0.7841 0 0 -0.7825 -1344.7362 -13421.0361)"  class="st26">
			</pattern>
			<path style="fill:url(#SVGID_3_);" d="M598.23,381.84c0,0-7.79-0.21-10.15-0.63c0,0.4,0,0.63,0,0.63
				c-0.61,0.61,10.79,0.92,10.79,0.92c0.16,0.01,0.3,0.07,0.42,0.17C598.88,381.84,598.23,381.84,598.23,381.84z"/>
			
				<pattern  id="SVGID_4_" xlink:href="#ad310e25-2b04-44c8-bb7b-9823891" patternTransform="matrix(0.7841 0 0 -0.7825 -1344.7362 -13421.0361)"  class="st26">
			</pattern>
			<path class="st7" d="M611.8,369.23c-0.31-0.31-0.62-4.61-0.62-4.61c-0.16,0.1-0.34,0.16-0.53,0.19c0.11,1.3,0.32,3.29,0.53,3.5
				c0.2,0.2,1.57,8,1.23,11.69c-0.34,3.69,0,3.69,0,3.69s-10,1.46-12.42,0.49c0,0.13,0.07,0.28,0.09,0.44c0.31,1.85,12.95,0,12.95,0
				s-0.31,0,0-3.69C613.34,377.23,612.1,369.54,611.8,369.23z"/>
		</g>
		<path class="st32" d="M601.64,332.48c0.27,0.59,0.67,1.11,1.18,1.52c0.33,0.24,0.71,0.41,1.11,0.48c-0.69,0.4-1.44,0.7-2.13,1.1
			c-1.09,0.73-2.13,1.51-3.14,2.35c-1.03,0.82-2.28,1.31-3.6,1.39c0.94-1.26,1.13-2.93,0.5-4.37c-0.28-0.46-0.47-0.98-0.55-1.52
			c0-0.88,0.78-1.56,1.51-2.03c0.59-0.4,1.19-0.78,1.8-1.17c0.48-0.3,1.2-0.92,1.8-0.9c0.6,0.02,0.67,0.56,0.78,1.1
			C601.07,331.14,601.32,331.83,601.64,332.48z"/>
		<path class="st28" d="M601.64,332.48c0.27,0.59,0.67,1.11,1.18,1.52c0.33,0.24,0.71,0.41,1.11,0.48c-0.69,0.4-1.44,0.7-2.13,1.1
			c-1.09,0.73-2.13,1.51-3.14,2.35c-1.03,0.82-2.28,1.31-3.6,1.39c0.94-1.26,1.13-2.93,0.5-4.37c-0.28-0.46-0.47-0.98-0.55-1.52
			c0-0.88,0.78-1.56,1.51-2.03c0.59-0.4,1.19-0.78,1.8-1.17c0.48-0.3,1.2-0.92,1.8-0.9c0.6,0.02,0.67,0.56,0.78,1.1
			C601.07,331.14,601.32,331.83,601.64,332.48z"/>
		<ellipse class="st32" cx="608.87" cy="343.55" rx="7.09" ry="7.07"/>
		<path class="st33" d="M618.88,443.95c0,0.62-1.23,2.15-1.23,2.15c-2.5,0.31-5.04-0.01-7.39-0.92c-0.62-0.31,0.31-2.15,0.31-2.15
			l0.07-0.15c0.28-0.72,0.68-1.4,1.17-2c0.61-0.61,0.98-3.13,0.98-3.13c1.91-3.13,5.31,1.35,5.31,1.35s0.43,2.35,0.66,3.77
			C618.82,443.38,618.88,443.8,618.88,443.95z"/>
		<path class="st28" d="M618.88,443.95c0,0.62-1.23,2.15-1.23,2.15c-2.5,0.31-5.04-0.01-7.39-0.92c-0.62-0.31,0.31-2.15,0.31-2.15
			l0.07-0.15c2.1,0.97,4.4,1.44,6.71,1.38l1.4-1.4C618.82,443.38,618.88,443.8,618.88,443.95z"/>
		<ellipse class="st32" cx="594.69" cy="328.79" rx="6.93" ry="6.92"/>
		<path class="st32" d="M589.1,342.62c-1.52,1.45-1.77,3.74-1.93,5.83l-0.24,3.06c-0.09,0.82-0.1,1.65-0.05,2.48
			c0,0.51,0.13,1.03,0.17,1.56c0.05,0.54,0.06,1.22,0.07,1.84v4.52c-0.07,0.93,0.1,1.87,0.5,2.72c0.45,0.85,1.47,1.21,2.35,0.85
			c0.49-0.37,0.83-0.91,0.97-1.5c0.76-1.83,1.29-3.76,1.57-5.73c0.06-0.68,0.07-1.36,0.13-2.04c0.06-0.68,0.18-1.39,0.28-2.08
			c0.44-2.88,0.64-5.79,0.83-8.69c0.05-0.86,0.83-4.25-0.3-4.62c-0.55-0.18-1.69,0.38-2.21,0.57
			C590.46,341.64,589.73,342.07,589.1,342.62z"/>
		<path class="st28" d="M589.1,342.62c-1.52,1.45-1.77,3.74-1.93,5.83l-0.24,3.06c-0.09,0.82-0.1,1.65-0.05,2.48
			c0,0.51,0.13,1.03,0.17,1.56c0.05,0.54,0.06,1.22,0.07,1.84v4.52c-0.07,0.93,0.1,1.87,0.5,2.72c0.45,0.85,1.47,1.21,2.35,0.85
			c0.49-0.37,0.83-0.91,0.97-1.5c0.76-1.83,1.29-3.76,1.57-5.73c0.06-0.68,0.07-1.36,0.13-2.04c0.06-0.68,0.18-1.39,0.28-2.08
			c0.44-2.88,0.64-5.79,0.83-8.69c0.05-0.86,0.83-4.25-0.3-4.62c-0.55-0.18-1.69,0.38-2.21,0.57
			C590.46,341.64,589.73,342.07,589.1,342.62z"/>
		<path class="st33" d="M603.47,333.25c0,0-5.24,4-8.32,4.92c0,0-1.83,2.08-2.14,2.58c-0.31,0.5-0.94,6.02-1.57,7.26
			c-0.63,1.24-2.16,4,0,6.76c0,0,0.61,2.77,0.31,3.69c-0.31,0.92-1.43,4.3-0.41,4.46c1.02,0.16,4.11,2.3,6.88,1.69
			c2.77-0.61,13.1,2.35,13.1,2.35s1.71-15.84,2.95-18.65l-2.78-0.92c0,0-7.7-4.61-3.08-11.68
			C608.4,335.71,604.08,334.79,603.47,333.25z"/>
		<path class="st27" d="M584.35,351.77l6.37,4.5c0.17,0.12,0.39,0.12,0.56,0l1.73-1.29c0.2-0.17,0.23-0.48,0.05-0.68
			c-0.02-0.02-0.03-0.04-0.05-0.05l-4.9-4.34c-0.13-0.12-0.31-0.15-0.48-0.09l-3.14,1.13c-0.25,0.09-0.38,0.36-0.3,0.61
			C584.21,351.63,584.27,351.71,584.35,351.77z"/>
		<path class="st32" d="M586.49,365.32c-0.45-1.56-0.67-3.17-0.67-4.8l-0.09-2.17c-0.09-0.84-0.02-1.69,0.23-2.5
			c0.49-1.13,1.46-1.97,2.64-2.31c1.17-0.32,2.39-0.41,3.6-0.26c0.16,0,0.32,0.04,0.46,0.13c0.12,0.11,0.21,0.26,0.25,0.42
			c0.36,0.7,0.41,1.52,0.14,2.26c-0.18,0.3-0.43,0.55-0.72,0.74c-0.85,0.61-1.85,1.02-2.66,1.68c-0.16,0.11-0.29,0.27-0.36,0.45
			c-0.04,0.16-0.04,0.33,0,0.49c0.1,0.43,0.24,0.85,0.41,1.26c0.07,0.2,0.19,0.39,0.35,0.53c0.15,0.13,0.34,0.17,0.5,0.29
			c0.34,0.27,1.04,0.63,1,1.06c-0.12,1.56-1.06,3.32-1.43,4.87C589.44,370.51,586.94,366.64,586.49,365.32z"/>
		<g class="st26">
			<path d="M596.39,364.62h-0.17c0.67,0.13,1.35,0.13,2.02,0h0.2C597.75,364.52,597.07,364.52,596.39,364.62z"/>
			<path d="M612.57,347.86c-1.11,2.48-2.74,15.92-3.03,18.58c1.08,0.28,1.8,0.49,1.8,0.49s1.69-15.81,2.93-18.61L612.57,347.86z"/>
		</g>
		<path class="st32" d="M609.11,343.77c0.12,0.62,0.48,1.17,1.01,1.53c0.65,0.55,1.26,1.16,1.8,1.82c0.77,1.09,1.38,2.29,1.78,3.56
			c0.59,1.59,1.08,3.22,1.48,4.87c-3.92,1.82-8.37,1.73-12.55,2.93c-1.8,0.47-3.43,1.43-4.7,2.78c-1.29,1.37-1.92,3.23-1.73,5.09
			c0.01,0.11,0.04,0.21,0.09,0.31c0.14,0.16,0.34,0.24,0.55,0.22c1.04,0,2.05-0.35,2.88-0.99c0.81-0.63,1.55-1.36,2.2-2.16
			c0.4-0.52,0.95-0.93,1.57-1.16c2.27-0.69,4.7-0.65,7.06-0.69c3.52-0.07,7.03-0.35,10.52-0.83c0.46,0.06,0.89-0.28,0.94-0.74
			c0.01-0.07,0.01-0.13,0-0.2c0.35-4.62-1.37-9.12-3.14-13.4c-0.71-1.72-1.43-3.42-2.18-5.13c-0.62-1.66-1.52-3.2-2.67-4.55
			c-0.44-0.49-0.97-0.89-1.57-1.16c-0.67-0.24-1.38-0.38-2.1-0.39c-1.14-0.15-2.3-0.17-3.44-0.06c-0.18,0.58-0.29,1.17-0.33,1.78
			c0.06,2.11,0.99,4.09,1.9,6C608.59,343.48,608.93,343.49,609.11,343.77z"/>
		<path class="st36" d="M596.56,347.73c-0.53,0.91-0.8,1.94-0.78,2.99c0,0.41,0.07,0.83,0.2,1.22c0.43,1.12,1.35,1.98,2.5,2.35"/>
		<path class="st27" d="M600.55,322.03c-0.39,0-0.77,0.06-1.14,0.18c-1.03-1.56-3.44-2.64-6.27-2.64c-3.75,0-6.78,1.93-6.78,4.31
			c0,2.38,3.03,4.3,6.78,4.3c1.4,0.02,2.79-0.28,4.07-0.86c0.89,1.83,3.1,2.6,4.93,1.71c1.84-0.89,2.61-3.09,1.72-4.92
			c-0.62-1.27-1.91-2.08-3.33-2.08H600.55z"/>
		<path class="st28" d="M600.85,328.48c-1.42,0-2.71-0.81-3.32-2.09c-1.28,0.58-2.67,0.88-4.07,0.86c-3.74,0-6.77-1.92-6.77-4.3
			c-0.01-0.14-0.01-0.29,0-0.43c-0.22,0.42-0.34,0.88-0.34,1.35c0,2.35,3.03,4.3,6.78,4.3c1.4,0.02,2.79-0.28,4.07-0.86
			c0.89,1.83,3.09,2.6,4.93,1.72c1.06-0.51,1.81-1.49,2.02-2.63C603.54,327.67,602.26,328.48,600.85,328.48z"/>
		<path class="st28" d="M585.44,322.17c2.14-4.37,7.01-6.69,11.76-5.59c5.21-3.21,12.04-1.6,15.26,3.6c0.92,1.48,1.47,3.16,1.62,4.9
			c0-0.31,0-0.61,0-0.92c-0.01-6.11-4.99-11.05-11.11-11.04c-2.05,0-4.06,0.58-5.8,1.65c-4.75-1.09-9.62,1.23-11.76,5.59
			c-2.62,2.47-4.06,5.92-3.99,9.51c0,0.31,0,0.62,0,0.92C581.56,327.5,583.01,324.4,585.44,322.17z"/>
		<path class="st30" d="M656.13,324.52c2.05-3.78-0.27-8.42-2.95-11.79s-5.92-6.88-5.85-11.18c0.09-6.17,6.67-9.82,11.92-13.1
			c3.89-2.44,7.48-5.32,10.7-8.61c1.35-1.26,2.46-2.74,3.29-4.39c1.08-2.42,1.05-5.16,0.99-7.82c-0.23-8.82-0.67-17.62-1.31-26.42"
			/>
		<path class="st1" d="M682.9,240.74c-0.15-3.28-1.97-6.25-4.81-7.89l-2.16,4.26l0.06-5.16c-1.03-0.31-2.1-0.44-3.18-0.38
			c-5.33,0.25-9.44,4.76-9.19,10.07c0.25,5.31,4.77,9.42,10.09,9.17C679.03,250.56,683.14,246.05,682.9,240.74
			C682.9,240.74,682.9,240.74,682.9,240.74L682.9,240.74z"/>
		<path class="st1" d="M665.68,305.94c-2.44,4.73-8.26,6.59-13,4.16s-6.61-8.24-4.17-12.97c2.44-4.73,8.26-6.59,13-4.16
			c2.14,1.1,3.79,2.96,4.63,5.21l-6.03,4.9l6.63-1.56C666.76,303.05,666.39,304.57,665.68,305.94z"/>
		<path class="st1" d="M660.92,287.23c-5.32,0.26-9.85-3.84-10.11-9.16c-0.22-4.49,2.7-8.53,7.04-9.74l-0.05,3.97l2.19-4.31l0,0
			c5.33-0.24,9.84,3.86,10.09,9.18c0.25,5.31-3.86,9.82-9.18,10.07c0,0-0.01,0-0.01,0L660.92,287.23z"/>
		<path class="st1" d="M684.35,271.68c-5.32,0.27-9.86-3.82-10.13-9.13s3.83-9.84,9.15-10.11c1.83-0.09,3.66,0.34,5.26,1.24
			l-1.71,4.69l3.51-3.36c1.89,1.71,3.02,4.11,3.14,6.65c0.05,0.89-0.03,1.78-0.24,2.65C692.31,268.49,688.65,271.49,684.35,271.68z"
			/>
		<path class="st28" d="M681.6,243.3c-2.23,0.25-4.4,0.94-6.63,1.08c-2.23,0.14-4.7-0.4-6.11-2.14c-0.66-1.01-1.25-2.05-1.78-3.13
			c-0.61-0.95-1.45-1.73-2.43-2.28c-2.43,4.74-0.55,10.54,4.2,12.96s10.56,0.55,12.99-4.19c0.39-0.75,0.67-1.55,0.85-2.38
			C682.32,243.24,681.96,243.27,681.6,243.3z"/>
		<path class="st28" d="M684.35,271.68c-5.33,0.24-9.85-3.87-10.09-9.19c-0.07-1.57,0.24-3.13,0.91-4.55
			c0.77,0.51,1.43,1.17,1.94,1.93c0.57,1.1,1.21,2.16,1.91,3.18c1.5,1.77,4.07,2.35,6.4,2.24c2.33-0.11,4.58-0.78,6.9-0.98
			c0.32,0,0.65-0.05,0.97-0.06C692.31,268.44,688.66,271.48,684.35,271.68z"/>
		<path class="st28" d="M660.92,287.23c-5.32,0.26-9.84-3.83-10.1-9.14c-0.07-1.52,0.21-3.04,0.84-4.43
			c0.79,0.53,1.48,1.19,2.04,1.96c0.78,1.06,1.22,2.28,2.09,3.25c1.63,1.82,4.37,2.45,6.84,2.39s4.7-0.64,7.06-0.82
			C668.49,284.32,664.98,287.04,660.92,287.23z"/>
		<path class="st28" d="M665.68,305.94c-2.52,4.7-8.37,6.47-13.07,3.96c-4.23-2.26-6.16-7.28-4.53-11.78
			c0.8,0.52,1.51,1.15,2.12,1.89c0.93,1.12,1.53,2.35,2.59,3.43c1.98,1.93,5.16,2.72,8,2.8
			C662.42,306.23,664.06,306.13,665.68,305.94z"/>
		<path class="st30" d="M780.81,443.45c2.05-3.78-0.27-8.42-2.95-11.79s-5.92-6.88-5.85-11.18c0.09-6.17,6.67-9.82,11.92-13.1
			c3.89-2.44,7.48-5.32,10.7-8.61c1.35-1.26,2.46-2.74,3.29-4.39c1.08-2.42,1.05-5.16,0.99-7.82c-0.22-8.82-0.66-17.62-1.31-26.42"
			/>
		<path class="st1" d="M807.57,359.67c-0.15-3.28-1.97-6.25-4.81-7.89l-2.16,4.26l0.06-5.16c-1.02-0.3-2.08-0.43-3.14-0.38
			c-5.33,0.25-9.44,4.76-9.19,10.07c0.25,5.31,4.77,9.42,10.09,9.17c5.33-0.25,9.44-4.76,9.19-10.07c0,0,0,0,0,0H807.57z"/>
		<path class="st1" d="M790.36,424.88c-2.44,4.73-8.26,6.59-13,4.16c-4.74-2.43-6.61-8.24-4.17-12.97s8.26-6.59,13-4.16
			c2.14,1.1,3.79,2.96,4.63,5.21l-6.03,4.9l6.63-1.56C791.43,421.99,791.07,423.51,790.36,424.88z"/>
		<path class="st1" d="M785.59,406.17c-5.32,0.26-9.85-3.84-10.11-9.16c-0.22-4.49,2.7-8.53,7.04-9.74l-0.05,3.97l2.19-4.31l0,0
			c5.33-0.24,9.84,3.86,10.09,9.18c0.25,5.31-3.86,9.82-9.18,10.07c0,0-0.01,0-0.01,0L785.59,406.17z"/>
		<path class="st1" d="M809.02,390.61c-5.32,0.27-9.86-3.82-10.13-9.13c-0.27-5.31,3.83-9.84,9.15-10.11
			c1.83-0.09,3.66,0.34,5.26,1.24l-1.71,4.69l3.51-3.36c1.89,1.71,3.02,4.11,3.14,6.65c0.05,0.89-0.03,1.78-0.24,2.65
			C816.98,387.42,813.32,390.43,809.02,390.61z"/>
		<path class="st28" d="M806.28,362.24c-2.23,0.25-4.4,0.94-6.63,1.08s-4.7-0.4-6.11-2.14c-0.66-1.01-1.25-2.05-1.78-3.13
			c-0.61-0.95-1.45-1.73-2.43-2.28c-2.43,4.74-0.55,10.54,4.2,12.96c4.75,2.42,10.56,0.55,12.99-4.19c0.39-0.75,0.67-1.55,0.85-2.38
			C807,362.18,806.64,362.2,806.28,362.24z"/>
		<path class="st28" d="M809.02,390.61c-5.33,0.24-9.85-3.87-10.09-9.19c-0.07-1.57,0.24-3.13,0.91-4.55
			c0.77,0.51,1.43,1.17,1.94,1.93c0.57,1.1,1.21,2.16,1.91,3.18c1.5,1.77,4.07,2.35,6.4,2.24s4.58-0.78,6.9-0.98
			c0.32,0,0.65-0.05,0.97-0.06C816.99,387.38,813.33,390.41,809.02,390.61z"/>
		<path class="st28" d="M785.59,406.17c-5.32,0.26-9.84-3.83-10.1-9.14c-0.07-1.52,0.21-3.04,0.84-4.43
			c0.79,0.53,1.48,1.19,2.04,1.96c0.78,1.06,1.22,2.28,2.09,3.25c1.63,1.82,4.37,2.45,6.84,2.39c2.47-0.05,4.7-0.64,7.06-0.82
			C793.17,403.25,789.66,405.97,785.59,406.17z"/>
		<path class="st28" d="M790.36,424.88c-2.52,4.7-8.37,6.47-13.07,3.96c-4.23-2.26-6.16-7.28-4.53-11.78
			c0.8,0.52,1.51,1.15,2.12,1.89c0.93,1.12,1.57,2.35,2.59,3.43c1.98,1.93,5.16,2.72,8,2.8
			C787.1,425.16,788.73,425.07,790.36,424.88z"/>
		
			<linearGradient id="SVGID_5_" gradientUnits="userSpaceOnUse" x1="374.5455" y1="2121.3669" x2="374.5455" y2="2200.3879" gradientTransform="matrix(1 0 0 -1 -52 2511.3701)">
			<stop  offset="0" style="stop-color:#808080;stop-opacity:0.25"/>
			<stop  offset="0.54" style="stop-color:#808080;stop-opacity:0.12"/>
			<stop  offset="1" style="stop-color:#808080;stop-opacity:0.1"/>
		</linearGradient>
		<path class="st8" d="M375.11,333.05c0.02-2.43-1.12-4.73-3.07-6.2c-0.02-4.38-3.21-8.11-7.54-8.83c-0.66-3.14-2.95-5.69-6-6.69
			l0,0c-0.36-0.11-0.74-0.2-1.11-0.26h-0.11h-0.2h-0.16h-0.17h-0.21h-0.48c-4.3,0.1-7.91,3.28-8.53,7.53
			c-2.75-0.63-5.27,0.19-5.73,1.92c-0.12,0.46-0.09,0.95,0.08,1.39c0.47,1.35,2,2.64,4.05,3.27l0.27,0.08l0.4,0.1h0.09l0,0
			c-0.44,0.93-0.66,1.94-0.66,2.97c-0.01,2.56,1.41,4.92,3.69,6.1l-0.18,0.11c-0.26,0.23-0.46,0.51-0.6,0.83
			c-0.5,0.87-0.88,1.8-1.15,2.77c-0.2,0.83-0.23,1.69-0.47,2.51c-0.45,1.51-1.62,2.79-1.75,4.36c-0.06,0.7,0.05,1.56-0.45,2.02
			c-0.12,0.11-0.26,0.2-0.4,0.28c-0.35,0.25-0.64,0.56-0.87,0.92c-0.15,0.33-0.36,0.62-0.61,0.88c-0.45,0.34-1.2,0.31-1.42,0.83
			c-0.22,0.52,0.35,1.14,0.22,1.71c-0.13,0.57-0.62,0.68-0.97,1c-0.41,0.44-0.7,0.98-0.84,1.56c-1.5,0.29-3.05-0.11-4.23-1.08
			c0.2,0.51,0.35,1.03,0.44,1.56c-0.68-0.52-1.46-0.91-2.28-1.14c-0.93-0.42-1.76-1.03-2.43-1.8l1.3-0.18l-5.75-8.76l-1.7-0.35
			l1.52,2.92c-0.26,0.12-0.45,0.34-0.52,0.62c-0.08,0.32-0.1,0.66-0.05,0.99c0.08,0.79,0.21,1.57,0.39,2.35l0.44,2.05
			c0.04,0.19,0.09,0.38,0.14,0.57c-0.57-0.03-1.15,0.04-1.7,0.19c-1.14-0.42-2.33-0.7-3.54-0.84c-0.26-0.05-0.53-0.05-0.78,0
			c-0.29,0.14-0.55,0.35-0.74,0.6c-0.99,1.15-1.87,2.38-2.63,3.69c-3.14,5.37-7.22,10.05-11.09,14.91c-2.67,1.08-5.36,2.1-8.05,3.13
			l-5.79,2.21c-1.13,0.51-2.35,0.78-3.59,0.78c-0.55,0-1.23-0.12-1.57,0.35c-0.15,0.24-0.27,0.51-0.35,0.78l-0.6,0.06l0,0
			c-0.27-0.94-0.75-1.81-1.39-2.55c-0.29,0.05-0.53,0.24-0.65,0.5c-0.14,0.26-0.23,0.54-0.39,0.78c-0.31,0.45-0.85,0.67-1.23,1.06
			s-0.63,0.98-1.05,1.37c-0.58,0.43-1.26,0.7-1.97,0.78c-1.07,0.25-2.11,0.64-3.08,1.17c-0.36,0.22-0.74,0.4-1.14,0.52
			c-0.44,0.09-0.89,0.1-1.34,0.05l-3.06-0.23c-0.27-0.03-0.55-0.02-0.82,0.04c-0.63,0.26-1.02,0.89-0.97,1.56
			c0.08,0.67,0.43,1.28,0.97,1.68c0.53,0.39,1.12,0.69,1.74,0.9c2.65,1.03,5.37,1.83,8.15,2.41v0.62c1.95,0.98,4.09,1.49,6.27,1.49
			c0.16,0.01,0.32-0.02,0.47-0.09c0.2-0.15,0.34-0.37,0.39-0.61c0.65-1.94,1.06-3.95,1.22-5.99l0,0c0.38-0.03,0.76-0.12,1.11-0.28
			c1.05-0.29,2.1,0.43,3.19,0.55c1.34,0.15,2.58-0.63,3.85-1.11l0.55-0.18c-0.36,0.46-0.79,0.87-1.27,1.21
			c-0.53,0.38-1.11,0.66-1.62,1.05c-0.43,0.39-0.89,0.75-1.38,1.06c-0.34,0.16-0.7,0.29-1.06,0.41c-0.53,0.2-1.04,0.46-1.51,0.78
			c-0.42,0.25-0.77,0.59-1.03,1c-0.26,0.43-0.29,0.95-0.09,1.41c0.22,0.37,0.59,0.63,1.01,0.7c0.41,0.06,0.83,0.06,1.25,0
			c1.66-0.13,3.32-0.27,4.97-0.42c0.7-0.04,1.39-0.14,2.08-0.3c0.36-0.09,0.72-0.2,1.08-0.31c0.62-0.16,1.25-0.25,1.89-0.28
			c0.18-0.01,0.37,0,0.55,0.05c0.38,0.13,0.66,0.52,1.05,0.59c0.27,0.03,0.54,0,0.78-0.1c1.21-0.26,2.44-0.39,3.68-0.39
			c0.54,0,1.18-0.13,1.43-0.63s-0.2-1.31-0.41-1.97c-0.1-0.43-0.16-0.86-0.17-1.3c-0.09-1.08-0.4-2.13-0.91-3.08
			c-0.27-0.45-0.5-0.92-0.68-1.41c2.37-0.9,4.64-2.05,6.77-3.43c1.17-0.84,2.47-1.47,3.86-1.85c1.64-0.19,3.3,0,4.85,0.56
			c3.77,1.09,7.48,2.38,11.11,3.87c1.73,0.71,3.46,1.46,5.25,2c0.52,0.7,1.15,1.31,1.87,1.81c1.23,0.69,2.62,1.07,4.04,1.1
			c1.89,0.17,3.79,0.24,5.68,0.21c1.45,0.06,2.9-0.2,4.23-0.78c0.32-0.16,0.62-0.36,0.89-0.59c1.04,0.09,2.06-0.29,2.79-1.03
			c1.03-0.88,1.77-2.05,2.12-3.35c0.46-1.78,0.11-3.91,1.21-5.34c0.29-0.39,0.67-0.7,0.96-1.1c0.35-0.54,0.53-1.17,0.5-1.81
			c0.01-0.03,0.03-0.05,0.05-0.07c0.24-0.57,0.4-1.18,0.47-1.8c0.13-0.49,0.31-0.96,0.51-1.42c0.56-1.38,1.04-2.79,1.46-4.22
			c0.28-0.95,0.51-1.92,0.67-2.9c0.12-0.78,0.19-1.56,0.25-2.35c0.08-1.23,0.32-2.45,0.71-3.62c0.98-2.79,1.54-5.71,1.65-8.67v-0.17
			c2.99-0.34,5.23-2.91,5.16-5.92c0-0.87-0.18-1.73-0.54-2.53C374.75,335.8,375.12,334.44,375.11,333.05z M347.06,367.07
			c0.09,0.31,0.19,0.6,0.29,0.9c-0.46-0.45-0.91-0.91-1.37-1.36c0.18,0.06,0.37,0.12,0.54,0.19c0.18,0.07,0.35,0.17,0.52,0.27
			H347.06z M344.84,365.56c-2.71-2.35-5.85-4.17-8.63-6.45c1.51,0.74,2.99,1.61,4.45,2.44c1.73,0.99,3.48,1.93,5.26,2.84
			c-0.29,0.45-0.67,0.85-1.11,1.17H344.84z M345.99,359.65l0.13-0.13c0,0.34,0,0.64,0,0.93l-0.73-0.25c0.2-0.17,0.39-0.35,0.57-0.55
			H345.99z M322.13,365.99c1.11-1.26,2.08-2.64,2.89-4.11c1.07,1.87,2.82,3.22,4.3,4.8C326.93,366.37,324.53,366.11,322.13,365.99z"
			/>
		<polygon class="st38" points="325.99,343.2 327.7,343.55 333.52,352.15 330.96,352.49 		"/>
		<path class="st39" d="M284.54,378.08c0.46,1.52,1.03,3,1.71,4.44c1.93-0.41,3.83-0.95,5.68-1.62c-0.37-0.54-0.76-1.07-1.18-1.56
			c-0.46-0.5-1-0.92-1.61-1.23c-0.64-0.15-1.31-0.15-1.95,0C286.31,378.08,285.42,378.1,284.54,378.08z"/>
		<path class="st38" d="M289.15,380.38c-0.94-0.42-1.65-1.22-1.94-2.21c-0.3-0.97-0.8-1.87-1.48-2.64
			c-0.29,0.04-0.54,0.23-0.66,0.49c-0.14,0.25-0.23,0.53-0.38,0.78c-0.31,0.45-0.86,0.67-1.25,1.04c-0.39,0.38-0.63,0.96-1.05,1.35
			c-0.58,0.43-1.27,0.7-1.98,0.78c-1.09,0.25-2.15,0.63-3.14,1.15c-0.36,0.22-0.75,0.39-1.15,0.52c-0.45,0.07-0.9,0.07-1.35,0
			l-3.09-0.22c-0.26-0.04-0.52-0.04-0.78,0c-0.65,0.23-1.05,0.88-0.98,1.56c0.07,0.67,0.43,1.27,0.98,1.66
			c0.54,0.38,1.13,0.69,1.76,0.89c2.69,1.01,5.46,1.8,8.28,2.35v0.61c1.96,0.96,4.12,1.46,6.31,1.46c0.16,0.01,0.32-0.02,0.47-0.08
			c0.2-0.15,0.34-0.37,0.39-0.61c0.74-2.16,1.18-4.42,1.29-6.7c0.05-0.58,0.01-1.16-0.13-1.73c-0.17-0.56,0.41-0.32-0.13-0.54"/>
		<path class="st38" d="M348.4,368.76c-9.16,0.55-18.21-2.13-27.38-2.41c-1.14-0.07-2.28,0-3.4,0.21c-1.17,0.32-2.3,0.75-3.37,1.31
			c-4.92,2.28-10.01,4.18-15.09,6.06l-5.84,2.17c-1.14,0.51-2.37,0.78-3.61,0.78c-0.56,0-1.24-0.12-1.57,0.34
			c-0.95,1.41-0.5,3.47,0.13,5.05c0.2,0.51,0.55,1.06,1.1,1.12c0.39-0.03,0.76-0.12,1.11-0.28c1.06-0.28,2.12,0.43,3.21,0.55
			c1.35,0.14,2.6-0.63,3.88-1.1c2.12-0.78,4.42-0.78,6.65-1.13c3.72-0.62,7.18-2.35,10.41-4.31c1.17-0.84,2.49-1.46,3.88-1.83
			c1.65-0.19,3.32,0,4.89,0.56c3.8,1.07,7.54,2.34,11.21,3.8c1.91,0.83,3.86,1.54,5.85,2.14c4.35,1.13,8.94,0.86,13.12-0.78
			c1.47-0.58,3.06-1.56,3.14-3.18c0.05-0.9-0.65-1.69-1.11-2.46c-0.3-0.49-0.6-0.99-0.93-1.46
			C353.09,371.63,351.18,368.59,348.4,368.76z"/>
		<path class="st28" d="M348.4,368.76c-9.16,0.55-18.21-2.13-27.38-2.41c-1.14-0.07-2.28,0-3.4,0.21c-1.17,0.32-2.3,0.75-3.37,1.31
			c-4.92,2.28-10.01,4.18-15.09,6.06l-5.84,2.17c-1.14,0.51-2.37,0.78-3.61,0.78c-0.56,0-1.24-0.12-1.57,0.34
			c-0.95,1.41-0.5,3.47,0.13,5.05c0.2,0.51,0.55,1.06,1.1,1.12c0.39-0.03,0.76-0.12,1.11-0.28c1.06-0.28,2.12,0.43,3.21,0.55
			c1.35,0.14,2.6-0.63,3.88-1.1c2.12-0.78,4.42-0.78,6.65-1.13c3.72-0.62,7.18-2.35,10.41-4.31c1.17-0.84,2.49-1.46,3.88-1.83
			c1.65-0.19,3.32,0,4.89,0.56c3.8,1.07,7.54,2.34,11.21,3.8c1.91,0.83,3.86,1.54,5.85,2.14c4.35,1.13,8.94,0.86,13.12-0.78
			c1.47-0.58,3.06-1.56,3.14-3.18c0.05-0.9-0.65-1.69-1.11-2.46c-0.3-0.49-0.6-0.99-0.93-1.46
			C353.09,371.63,351.18,368.59,348.4,368.76z"/>
		<path class="st39" d="M302.13,378.51c1.43,0.49,2.88,0.93,4.34,1.35c0.78-1.34,2.35-2.27,2.69-3.8c0.02-0.07,0.02-0.14,0-0.2
			c-0.04-0.06-0.1-0.12-0.16-0.15c-1.05-0.57-2.21-0.91-3.4-0.99c-0.94-0.05-1.37,0.92-1.8,1.61
			C303.62,376.62,302.51,378.66,302.13,378.51z"/>
		<path class="st38" d="M304.13,377.55c-0.87-0.15-1.63-0.65-2.11-1.38c-0.2-0.35-0.42-0.83-0.82-0.78s-0.54,0.47-0.63,0.84
			c-0.27,1.39-0.67,2.75-1.18,4.06c-0.52,1.32-1.39,2.47-2.53,3.33c-0.53,0.37-1.12,0.64-1.65,1.03c-0.43,0.38-0.9,0.74-1.39,1.05
			c-0.35,0.15-0.7,0.29-1.07,0.39c-0.54,0.2-1.05,0.46-1.52,0.78c-0.42,0.24-0.78,0.58-1.04,0.99c-0.26,0.42-0.29,0.94-0.08,1.38
			c0.22,0.36,0.59,0.62,1.01,0.69c0.42,0.06,0.84,0.06,1.26,0c1.67-0.12,3.34-0.27,5.01-0.41c0.7-0.05,1.4-0.14,2.09-0.29l1.09-0.3
			c0.62-0.16,1.26-0.26,1.91-0.28c0.19-0.02,0.38,0,0.56,0.05c0.38,0.13,0.66,0.51,1.06,0.59c0.27,0.03,0.53-0.01,0.78-0.1
			c1.22-0.26,2.46-0.39,3.71-0.38c0.55,0,1.19-0.14,1.44-0.63c0.31-0.61-0.2-1.29-0.42-1.95c-0.1-0.42-0.16-0.85-0.17-1.28
			c-0.09-1.06-0.41-2.1-0.92-3.04c-0.42-0.78-1-1.64-0.71-2.47c0.15-0.26,0.24-0.55,0.28-0.85
			C307.99,377.25,304.9,377.72,304.13,377.55z"/>
		<path class="st39" d="M334.67,354.09c-1.63-0.71-2.93-2-3.65-3.61c-0.15-0.34-0.27-0.71-0.42-1.06c-0.48-1.17-1.23-2.2-2.18-3.03
			c-0.2-0.22-0.49-0.34-0.78-0.34c-0.3,0.09-0.52,0.33-0.59,0.63c-0.09,0.32-0.11,0.65-0.06,0.98c0.08,0.77,0.21,1.53,0.39,2.28
			l0.45,2.02c0.06,0.31,0.15,0.61,0.27,0.9c0.19,0.34,0.44,0.64,0.74,0.88c0.41,0.38,0.82,0.74,1.24,1.1
			c0.24,0.21,0.5,0.39,0.78,0.54c0.44,0.21,0.91,0.35,1.39,0.41c1.87,0.24,3.66,0.93,5.21,2c0,0,0-1.35,0-1.5
			c-0.02-0.39-0.16-0.77-0.39-1.09C336.34,354.69,335.53,354.31,334.67,354.09z"/>
		<path class="st28" d="M334.67,354.09c-1.63-0.71-2.93-2-3.65-3.61c-0.15-0.34-0.27-0.71-0.42-1.06c-0.48-1.17-1.23-2.2-2.18-3.03
			c-0.2-0.22-0.49-0.34-0.78-0.34c-0.3,0.09-0.52,0.33-0.59,0.63c-0.09,0.32-0.11,0.65-0.06,0.98c0.08,0.77,0.21,1.53,0.39,2.28
			l0.45,2.02c0.06,0.31,0.15,0.61,0.27,0.9c0.19,0.34,0.44,0.64,0.74,0.88c0.41,0.38,0.82,0.74,1.24,1.1
			c0.24,0.21,0.5,0.39,0.78,0.54c0.44,0.21,0.91,0.35,1.39,0.41c1.87,0.24,3.66,0.93,5.21,2c0,0,0-1.35,0-1.5
			c-0.02-0.39-0.16-0.77-0.39-1.09C336.34,354.69,335.53,354.31,334.67,354.09z"/>
		<ellipse class="st38" cx="353.31" cy="336.41" rx="2.23" ry="2.24"/>
		<path class="st38" d="M351.93,335.06c-0.6-0.14-1.22-0.05-1.76,0.25c-0.26,0.23-0.46,0.51-0.6,0.82c-0.5,0.86-0.89,1.77-1.16,2.72
			c-0.2,0.78-0.23,1.67-0.48,2.47c-0.45,1.49-1.62,2.75-1.76,4.3c-0.06,0.7,0.05,1.51-0.45,1.98c-0.12,0.11-0.26,0.2-0.4,0.29
			c-0.35,0.23-0.65,0.54-0.88,0.9c-0.15,0.32-0.36,0.61-0.62,0.85c-0.45,0.34-1.21,0.31-1.43,0.78c-0.22,0.48,0.35,1.13,0.22,1.69
			c-0.13,0.56-0.63,0.67-0.98,0.99c-0.42,0.44-0.71,0.98-0.85,1.56c-1.51,0.29-3.07-0.1-4.27-1.06c0.52,1.57,0.74,3.22,0.67,4.87
			c0.08,0.53-0.06,1.08-0.39,1.5c1.77,0.13,3.52,0.44,5.23,0.91c0.74,0.25,1.54,0.25,2.28,0c0.4-0.21,0.75-0.49,1.05-0.83
			c0.94-0.95,1.93-2,2.16-3.32c0.06-0.75,0.07-1.5,0.04-2.25c0.09-0.93,0.28-1.84,0.57-2.73c0.5-1.84,0.83-3.72,1-5.62
			c0.1-1.17,1.12-2.11,1.65-3.13c1-1.98,2.04-4.04,2.11-6.26C352.92,336.04,352.67,335.14,351.93,335.06z"/>
		<path class="st28" d="M351.93,335.06c-0.6-0.14-1.22-0.05-1.76,0.25c-0.26,0.23-0.46,0.51-0.6,0.82c-0.5,0.86-0.89,1.77-1.16,2.72
			c-0.2,0.78-0.23,1.67-0.48,2.47c-0.45,1.49-1.62,2.75-1.76,4.3c-0.06,0.7,0.05,1.51-0.45,1.98c-0.12,0.11-0.26,0.2-0.4,0.29
			c-0.35,0.23-0.65,0.54-0.88,0.9c-0.15,0.32-0.36,0.61-0.62,0.85c-0.45,0.34-1.21,0.31-1.43,0.78c-0.22,0.48,0.35,1.13,0.22,1.69
			c-0.13,0.56-0.63,0.67-0.98,0.99c-0.42,0.44-0.71,0.98-0.85,1.56c-1.51,0.29-3.07-0.1-4.27-1.06c0.52,1.57,0.74,3.22,0.67,4.87
			c0.08,0.53-0.06,1.08-0.39,1.5c1.77,0.13,3.52,0.44,5.23,0.91c0.74,0.25,1.54,0.25,2.28,0c0.4-0.21,0.75-0.49,1.05-0.83
			c0.94-0.95,1.93-2,2.16-3.32c0.06-0.75,0.07-1.5,0.04-2.25c0.09-0.93,0.28-1.84,0.57-2.73c0.5-1.84,0.83-3.72,1-5.62
			c0.1-1.17,1.12-2.11,1.65-3.13c1-1.98,2.04-4.04,2.11-6.26C352.92,336.04,352.67,335.14,351.93,335.06z"/>
		<path class="st38" d="M349.85,370.68c-1.91-0.91-3.3-2.59-4.85-4.04c-2.94-2.76-6.54-4.69-9.64-7.3
			c-2.05-1.71-3.92-3.71-6.14-5.15c-1.99-1.26-4.24-2.04-6.58-2.29c-0.26-0.06-0.53-0.06-0.78,0c-0.3,0.13-0.55,0.33-0.74,0.59
			c-1,1.13-1.89,2.34-2.66,3.64c-3.92,6.65-9.5,12.24-14.11,18.42c-0.11,0.13-0.18,0.28-0.23,0.44c-0.02,0.24,0.04,0.48,0.17,0.68
			l0.94,1.83c0.53,1.03,1.37,2.23,2.5,2.03c0.51-0.15,0.96-0.44,1.31-0.84l4.22-4.03l4.42-4.22c2.59-2.46,5.22-4.99,6.92-8.15
			c1.32,2.28,3.66,3.78,5.26,5.87c0.61,0.78,1.11,1.67,1.66,2.51c0.87,1.35,1.87,2.61,2.85,3.91l5.07,6.46
			c0.64,0.91,1.44,1.71,2.35,2.35c1.25,0.68,2.65,1.05,4.07,1.09c1.91,0.17,3.82,0.24,5.73,0.2c1.47,0.06,2.92-0.21,4.27-0.78
			c1.37-0.6,2.27-1.94,2.31-3.44c-0.08-0.76-0.33-1.49-0.73-2.14C355.63,375.06,353.26,372.3,349.85,370.68z"/>
		<ellipse class="st40" cx="354.68" cy="337.96" rx="1.72" ry="1.72"/>
		<path class="st39" d="M354.31,336.67c0.38,0.77,0.45,1.66,0.19,2.47c-0.27,0.8-0.64,1.57-1.11,2.28c-0.4,0.73-0.88,1.41-1.43,2.03
			c2.65,0.13,5.21-0.91,7.54-2.16c1.88-1.01,3.76-2.25,4.76-4.14c-0.61,0.14-1.24,0.02-1.76-0.33c-0.51-0.35-0.96-0.77-1.34-1.24
			l-1.33-1.49c-0.3-0.33-0.56-0.69-0.78-1.07c-0.29-0.53-0.41-1.13-0.35-1.73c-0.53,0.55-1.12,1.04-1.76,1.46
			c-0.95,0.62-1.99,1.06-2.95,1.67c-0.33,0.22-1.08,0.56-0.89,1C353.3,335.86,354.04,336.2,354.31,336.67z"/>
		<path class="st28" d="M354.31,336.67c0.38,0.77,0.45,1.66,0.19,2.47c-0.27,0.8-0.64,1.57-1.11,2.28c-0.4,0.73-0.88,1.41-1.43,2.03
			c2.65,0.13,5.21-0.91,7.54-2.16c1.88-1.01,3.76-2.25,4.76-4.14c-0.61,0.14-1.24,0.02-1.76-0.33c-0.51-0.35-0.96-0.77-1.34-1.24
			l-1.33-1.49c-0.3-0.33-0.56-0.69-0.78-1.07c-0.29-0.53-0.41-1.13-0.35-1.73c-0.53,0.55-1.12,1.04-1.76,1.46
			c-0.95,0.62-1.99,1.06-2.95,1.67c-0.33,0.22-1.08,0.56-0.89,1C353.3,335.86,354.04,336.2,354.31,336.67z"/>
		<path class="st40" d="M354.34,336.93c-0.55,0.77-0.55,1.81,0,2.58c0.08,0.09,0.36,0.68,0.48,0.69c0.12-0.01,0.22-0.07,0.3-0.16
			c0.6-0.63,1.16-1.29,1.68-2c0.53-0.7,1.28-1.19,2.13-1.39c1.06-0.04,2.09,0.28,2.94,0.92c0.39,0.18,0.74,0.45,1.01,0.78
			c0.19,0.34,0.3,0.73,0.33,1.12c0.26,2.36,0.36,4.74,0.3,7.11c0.05,1.72-0.07,3.43-0.34,5.13c-0.17,0.87-0.42,1.72-0.54,2.61
			c-0.09,0.78-0.13,1.56-0.11,2.35v3.27c-0.02,0.6,0.02,1.2,0.13,1.79c0.16,0.71,0.49,1.38,0.72,2.07c0.23,0.8,0.39,1.62,0.48,2.45
			l0.45,3.38c0.14,1.06,0.25,2.23-0.4,3.13c-0.29,0.38-0.67,0.7-0.97,1.08c-1.11,1.44-0.78,3.5-1.22,5.26
			c-0.36,1.29-1.11,2.44-2.15,3.29c-0.75,0.74-1.78,1.11-2.83,1.01c-1.38-0.26-2.2-1.69-2.58-3.04c-0.38-1.35-0.51-2.82-1.33-3.97
			c-0.75-0.86-1.63-1.6-2.62-2.18c-1-0.59-1.73-1.54-2.05-2.65c-0.09-0.49,0-1-0.09-1.5c-0.15-1.28-0.99-2.38-2.19-2.87
			c-0.71-0.27-1.57-0.38-1.98-1.02c1.01-0.63,1.75-1.62,2.06-2.76c0.31-1.14,0.48-2.31,0.5-3.49l0.24-3.91
			c0.11-1.76,0.16-3.5,0.93-5.08c0.35-0.7,0.78-1.37,1.14-2.07c0.48-0.98,0.88-1.99,1.22-3.03c0.56-1.61,1.13-3.22,1.63-4.85
			c0.2-0.79,0.5-1.55,0.89-2.26C352.94,337.97,353.55,337.08,354.34,336.93z"/>
		<path class="st38" d="M345.6,362.47h1.04l0.22-1.56c0.03-0.31,0.1-0.62,0.22-0.92c0.17-0.31,0.37-0.6,0.6-0.88
			c1.02-1.45,0.95-3.36,1.2-5.13c0.45-2.33,1.23-4.58,2.29-6.7l2.02-4.5c0.18-0.37,0.33-0.75,0.44-1.15
			c0.08-0.44,0.13-0.88,0.13-1.33c0-0.7,0.22-3.23,0.24-3.91c0-0.26-0.57-0.12-0.69-0.34c-0.25-0.5-0.6,0.85-1.07,1.15
			c-0.45,0.34-0.78,0.82-0.93,1.36c-0.44,1.13-0.71,2.35-1.11,3.47c-0.35,1.17-1.01,2.22-1.89,3.07c-0.42,0.36-0.89,0.65-1.29,1.04
			c-1.25,1.24-1.38,3.2-1.42,4.97C345.57,352.18,345.36,362.47,345.6,362.47z"/>
		<path class="st38" d="M360.61,335.06c-0.98,0.51-1.67,1.45-1.86,2.54c-0.18,1.08-0.5,2.13-0.94,3.13
			c-1.27,2.21-4.51,2.85-5.41,5.23c-0.23,0.8-0.35,1.63-0.36,2.46c-0.16,1.71-0.72,3.36-0.89,5.07c-0.09,1.33-0.05,2.66,0.09,3.98
			l1.14,13.47c0.22,1.98,0.1,3.99-0.34,5.93c1.17,0.17,2.35-0.03,3.4-0.56c1.06-0.49,2.03-1.15,3.06-1.71
			c1.76-0.97,3.7-1.65,5.25-2.94c0.28-0.22,0.52-0.48,0.71-0.78c0.24-0.57,0.39-1.16,0.47-1.77c0.13-0.48,0.3-0.94,0.51-1.39
			c0.57-1.36,1.06-2.75,1.47-4.16c0.28-0.93,0.51-1.89,0.67-2.85c0.13-0.78,0.2-1.56,0.26-2.35c0.08-1.21,0.32-2.41,0.72-3.56
			c0.98-2.75,1.54-5.63,1.65-8.54c0.03-0.42,0-0.84-0.09-1.25c-0.17-0.5-0.4-0.98-0.69-1.43c-0.47-0.88-0.78-1.85-1.19-2.75
			c-1.11-1.98-2.71-3.65-4.63-4.86C362.7,335.35,361.63,334.69,360.61,335.06z"/>
		<path class="st39" d="M336.92,357.04c-0.8-0.42-1.53-0.97-2.16-1.64c-0.28-0.33-0.52-0.7-0.78-1.03
			c-0.73-0.78-1.67-1.33-2.71-1.56c-1.03-0.23-2.08-0.33-3.14-0.31c-0.71-0.05-1.42,0.04-2.09,0.25c-0.69,0.23-1.21,0.79-1.39,1.49
			c-0.06,0.87,0.34,1.7,1.06,2.19c0.61,0.5,1.34,0.85,2.11,1.02c0.63,0.11,1.27,0.19,1.91,0.23c3.75,0.39,7.1,2.43,10.38,4.28
			c2.89,1.64,5.83,3.16,8.83,4.57c0.12-0.89,0.17-1.8,0.15-2.7c0-0.67-0.05-1.71-0.69-2.1c-0.9-0.38-1.84-0.66-2.81-0.84
			c-1.94-0.63-3.82-1.39-5.65-2.28C338.89,358.16,337.9,357.61,336.92,357.04z"/>
		<ellipse class="st39" cx="353.31" cy="329.2" rx="6.68" ry="6.71"/>
		<path class="st38" d="M362.51,342.65c-0.53,0.75-0.97,1.56-1.29,2.42c-0.78,1.69-2.12,3.13-2.77,4.92c-0.65,1.79-0.66,4.09-2,5.56
			c-0.27,0.22-0.47,0.52-0.59,0.85c-0.01,0.2-0.03,0.41-0.06,0.61c-0.2,0.53-1.07,0.56-1.23,1.1c-0.05,0.16,0,0.33-0.08,0.49
			c-0.13,0.35-0.6,0.41-0.91,0.62c-0.65,0.44-0.52,1.46-0.98,2.09c-0.41,0.48-1.05,0.7-1.67,0.59c-0.61-0.12-1.19-0.34-1.73-0.65
			c-0.19-0.11-0.41-0.17-0.63-0.2c-0.26,0.01-0.51,0.1-0.72,0.25c-1.2,0.88-1.88,2.31-1.8,3.79c0.09,1.47,0.44,2.9,1.04,4.25
			c0.07,0.23,0.18,0.45,0.34,0.63c0.48,0.37,1.13,0.42,1.66,0.13c0.51-0.3,1.06-0.55,1.62-0.73c1.04-0.19,2.05,0.52,3.1,0.46
			c0.77-0.11,1.49-0.43,2.09-0.92c1.06-0.63,2-1.42,2.81-2.35c0.45-0.6,0.78-1.28,1.19-1.92c0.52-0.78,1.08-1.53,1.69-2.25
			l3.86-4.69c0.38-0.45,0.73-0.92,1.04-1.42c0.34-0.69,0.61-1.41,0.78-2.15c0.41-1.24,0.68-2.52,0.78-3.83
			c0.02-1.08-0.07-2.15-0.28-3.21c-0.12-1.05-0.38-2.08-0.78-3.06C366.13,342.26,364.09,340.82,362.51,342.65z"/>
		<path class="st41" d="M375.93,333.91c0.01-2.41-1.14-4.68-3.09-6.1c-0.07-4.36-3.28-8.04-7.6-8.69
			c-0.94-4.69-5.52-7.73-10.22-6.79c-3.6,0.72-6.36,3.62-6.88,7.25c-2.78-0.63-5.32,0.19-5.78,1.89c-0.46,1.71,1.5,3.91,4.42,4.69
			c0.92,0.26,1.88,0.35,2.84,0.28c1.38,2.02,3.55,3.37,5.98,3.72c0.73,3.29,3.25,5.89,6.52,6.71c0.45,1.07,1.14,2.02,2.02,2.78
			c0,0.21,0,0.43,0,0.65c0,3.12,2.52,5.65,5.64,5.65c3.12,0,5.66-2.52,5.66-5.63c0-0.01,0-0.01,0-0.02c0-0.86-0.18-1.71-0.54-2.5
			C375.6,336.62,375.95,335.27,375.93,333.91z"/>
		<path class="st28" d="M344.25,321.82c0.46-1.71,3-2.52,5.78-1.89c0.68-4.24,4.32-7.37,8.63-7.42h0.57
			c-0.8-0.24-1.63-0.37-2.46-0.37c-4.3,0.05-7.95,3.18-8.63,7.42c-2.78-0.63-5.32,0.19-5.78,1.89c-0.46,1.71,1.5,3.91,4.42,4.69
			c0.55,0.15,1.11,0.25,1.68,0.29C345.66,325.6,343.79,323.57,344.25,321.82z"/>
		<path class="st28" d="M365.99,340.63c-0.01-0.21-0.01-0.43,0-0.64c-0.88-0.75-1.57-1.71-2.02-2.78c-3.28-0.82-5.81-3.43-6.52-6.72
			c-2.43-0.34-4.6-1.68-5.98-3.71c-0.56,0.05-1.12,0.03-1.67-0.05c1.39,1.86,3.46,3.09,5.76,3.42c0.73,3.29,3.25,5.89,6.52,6.71
			c0.45,1.07,1.14,2.02,2.02,2.78c0,0.21,0,0.43,0,0.65c-0.05,3.16,2.46,5.76,5.62,5.84C367.45,345.25,365.97,343.06,365.99,340.63z
			"/>
		
			<ellipse transform="matrix(0.7941 -0.6078 0.6078 0.7941 -127.7061 284.1481)" class="st39" cx="355.55" cy="330.57" rx="1.03" ry="1.37"/>
	</g>
</g>
<g id="Capa_2">
</g>
</svg>
