<svg id="Capa_1" data-name="Capa 1" xmlns="http://www.w3.org/2000/svg" xmlns:xlink="http://www.w3.org/1999/xlink" viewBox="0 0 364 238"><defs><style>.cls-1{fill:url(#Degradado_sin_nombre_2);}.cls-2{fill:url(#Degradado_sin_nombre_2-2);}.cls-3{fill:#f0f0f0;}.cls-4{fill:#e6e6e6;}.cls-5{fill:url(#Degradado_sin_nombre_2-3);}.cls-6{fill:#fff;}.cls-7{fill:none;stroke-miterlimit:10;stroke:url(#Degradado_sin_nombre_2-4);}.cls-8{fill:url(#Degradado_sin_nombre_2-5);}.cls-9{fill:url(#Degradado_sin_nombre_2-6);}.cls-10{fill:url(#Degradado_sin_nombre_2-7);}.cls-11{fill:url(#Degradado_sin_nombre_2-8);}.cls-12{fill:#d0cde1;}.cls-13{fill:#ffb8b8;}.cls-14{opacity:0.1;isolation:isolate;}.cls-15{fill:#f7931e;}.cls-16{fill:#3f3d56;}.cls-17{fill:#2f2e41;}.cls-18{fill:url(#Degradado_sin_nombre_2-9);}.cls-19{fill:url(#Degradado_sin_nombre_2-10);}.cls-20{fill:url(#Degradado_sin_nombre_2-11);}.cls-21{fill:#f2f2f2;}.cls-22{fill:#2f8dcc;}.cls-23{fill:#812800;}.cls-24{fill:#ffb6b6;}.cls-25{fill:#2d0083;}.cls-26{fill:#9e616a;}</style><linearGradient id="Degradado_sin_nombre_2" x1="207.19" y1="129.88" x2="317.81" y2="129.88" gradientUnits="userSpaceOnUse"><stop offset="0" stop-color="#24c6dc"/><stop offset="1" stop-color="#514a9d"/></linearGradient><linearGradient id="Degradado_sin_nombre_2-2" x1="107.56" y1="53.41" x2="235.95" y2="53.41" xlink:href="#Degradado_sin_nombre_2"/><linearGradient id="Degradado_sin_nombre_2-3" x1="134.17" y1="48.46" x2="263.22" y2="177.5" xlink:href="#Degradado_sin_nombre_2"/><linearGradient id="Degradado_sin_nombre_2-4" x1="168.09" y1="59.33" x2="228.6" y2="59.33" xlink:href="#Degradado_sin_nombre_2"/><linearGradient id="Degradado_sin_nombre_2-5" x1="177.84" y1="55.55" x2="219.1" y2="55.55" xlink:href="#Degradado_sin_nombre_2"/><linearGradient id="Degradado_sin_nombre_2-6" x1="177.84" y1="60.4" x2="219.1" y2="60.4" xlink:href="#Degradado_sin_nombre_2"/><linearGradient id="Degradado_sin_nombre_2-7" x1="177.84" y1="50.69" x2="219.1" y2="50.69" xlink:href="#Degradado_sin_nombre_2"/><linearGradient id="Degradado_sin_nombre_2-8" x1="177.84" y1="65.25" x2="184.17" y2="65.25" xlink:href="#Degradado_sin_nombre_2"/><linearGradient id="Degradado_sin_nombre_2-9" x1="36.84" y1="165.71" x2="121.74" y2="165.71" xlink:href="#Degradado_sin_nombre_2"/><linearGradient id="Degradado_sin_nombre_2-10" x1="41.2" y1="103.2" x2="100.19" y2="103.2" xlink:href="#Degradado_sin_nombre_2"/><linearGradient id="Degradado_sin_nombre_2-11" x1="221.64" y1="222.99" x2="301.16" y2="222.99" xlink:href="#Degradado_sin_nombre_2"/></defs><path class="cls-1" d="M284.06,190.59l-.33-1c17.72-6,28.81-15.64,32.06-27.91,4.13-15.6-4.85-33.71-25.27-51S240.4,79,207.19,70.17l.26-1c33.36,8.83,63.1,23.31,83.74,40.76s29.84,36,25.6,52C313.45,174.58,302.13,184.48,284.06,190.59Z"/><path class="cls-2" d="M235.63,62.61c-6.43-2.1-13-4-19.67-5.8-38.1-10.09-75.54-13.67-108.29-10.35l-.11-1c32.88-3.33,70.45.26,108.66,10.38,6.64,1.75,13.28,3.71,19.73,5.81Z"/><path class="cls-3" d="M259.73,192.15l-.33-1c17.72-6,28.8-15.64,32.05-27.91,4.13-15.6-4.84-33.7-25.26-51s-50.12-31.76-83.34-40.56l.27-1c33.36,8.84,63.1,23.31,83.74,40.77s29.83,36,25.59,52C289.11,176.14,277.79,186,259.73,192.15Z"/><path class="cls-3" d="M211.3,64.16c-6.44-2.09-13.06-4-19.68-5.8C153.53,48.28,116.08,44.7,83.33,48l-.1-1c32.87-3.33,70.45.26,108.66,10.38,6.64,1.76,13.28,3.71,19.73,5.82Z"/><circle class="cls-4" cx="177.77" cy="29.52" r="4.14"/><path class="cls-5" d="M245.41,64.28h-1V36.36a16.12,16.12,0,0,0-16.15-16.15H169.13A16.13,16.13,0,0,0,153,36.36V189.6a16.13,16.13,0,0,0,16.16,16.15h59.14a16.12,16.12,0,0,0,16.15-16.15V84.16h1Z"/><path class="cls-6" d="M240.94,36.45V190.09a12.09,12.09,0,0,1-12.09,11.43H169.37a12.09,12.09,0,0,1-12.09-11.43V36.45a12.11,12.11,0,0,1,12.09-12.1h7.21a5.78,5.78,0,0,0,3.15,7.46,6.18,6.18,0,0,0,2.15.41h33.88a5.71,5.71,0,0,0,5.71-5.71,6.23,6.23,0,0,0-.41-2.16h7.7A12.18,12.18,0,0,1,240.94,36.45Z"/><path class="cls-7" d="M173.47,72.53h18.8s.75,3.75,4.5,3.75c-2-2-1.08-3.75-1.08-3.75h27.68a4.73,4.73,0,0,0,4.73-4.73L228,47.12a4.73,4.73,0,0,0-4.73-4.73H173.32a4.73,4.73,0,0,0-4.73,4.73l.15,20.68A4.73,4.73,0,0,0,173.47,72.53Z"/><path class="cls-8" d="M218.24,56.29H178.7a.75.75,0,1,1,0-1.49h39.54a.75.75,0,1,1,0,1.49Z"/><path class="cls-9" d="M218.24,61.14H178.7a.75.75,0,1,1,0-1.48h39.54a.75.75,0,1,1,0,1.48Z"/><path class="cls-10" d="M218.24,51.43H178.7a.75.75,0,1,1,0-1.48h39.54a.75.75,0,1,1,0,1.48Z"/><path class="cls-11" d="M183.31,66H178.7a.82.82,0,0,1-.86-.75.8.8,0,0,1,.86-.74h4.61a.81.81,0,0,1,.86.74A.83.83,0,0,1,183.31,66Z"/><ellipse class="cls-12" cx="199.48" cy="195.16" rx="32.62" ry="1.56"/><path class="cls-13" d="M199.34,141.16l4.19,16.3s.16,11.49,1.09,16,4,15.36,4,15.36l3.73.62-.78-15.21s0-9.16-.77-11.17-2.33-22.67-2.33-22.67Z"/><path class="cls-14" d="M199.34,141.16l4.19,16.3s.16,11.49,1.09,16,4,15.36,4,15.36l3.73.62-.78-15.21s0-9.16-.77-11.17-2.33-22.67-2.33-22.67Z"/><path class="cls-15" d="M211,72.85h0c-5.17,0-9.37,4.65-9.37,10.39v7.3h2.25l1.3-2.7-.33,2.7h14.42l1.18-2.46-.29,2.46h1.62V84.81C221.74,78.2,216.92,72.85,211,72.85Z"/><path class="cls-13" d="M195.38,138.6s-1.86,7.92.62,8.69,1.87-8.69,1.87-8.69Z"/><polygon class="cls-16" points="198.49 98.39 197.25 99.79 197.56 126.65 194.76 139.38 200.97 140 204.08 114.38 203.14 101.34 198.49 98.39"/><polygon class="cls-14" points="198.49 98.39 197.25 99.79 197.56 126.65 194.76 139.38 200.97 140 204.08 114.38 203.14 101.34 198.49 98.39"/><circle class="cls-13" cx="210.13" cy="82.85" r="6.67"/><path class="cls-13" d="M206.31,86.85s1.95,10.14,1.07,11.21,9.42-2,9.42-2-3.38-6.94-1.6-10.85Z"/><path class="cls-13" d="M223.17,131.3s1.86,7.92-.62,8.7-1.87-8.7-1.87-8.7Z"/><path class="cls-13" d="M208.81,139.3s-2.64,15.83-2.48,18.16a8.77,8.77,0,0,1,0,2.64,89.82,89.82,0,0,0-3.42,10.71,82.69,82.69,0,0,1-2.48,8.85s-2,4.5-.31,4.5a19.45,19.45,0,0,0,4-.62,8,8,0,0,1,1.71-4.95c1.86-2.35,7.45-13.37,7.45-14.77a41.66,41.66,0,0,1,.93-5.43l3.57-17.23Z"/><path class="cls-17" d="M197.94,128.74s-2.63,13.35-.31,13.66,5.59-2,9.78.62,11.18,2,11.18,2,4.81-12.26.46-15.21S197.94,128.74,197.94,128.74Z"/><path class="cls-17" d="M200.89,182.29a4.29,4.29,0,0,1,2.18-.31,2.81,2.81,0,0,0,2-.46s-1.24,4.5-1.08,6.21-.47,9-3.73,8.22-4.19-3.1-3-7.14a27.52,27.52,0,0,0,.93-8.69s2.27-2.34,2.69-2S200.89,182.29,200.89,182.29Z"/><path class="cls-17" d="M211.29,188s-1.55-3.42-3.41-.31a18.13,18.13,0,0,0-2,3.88s-5.28,4.81-1.55,5.28,6.67-.16,6.67-.94,1.87-.62,2-1.24-.31-6.36-.31-6.36Z"/><path class="cls-16" d="M214.79,92h0s-6.52,1.24-7.3,1.09a4.52,4.52,0,0,0-.53-.06,7.83,7.83,0,0,0-4.33,1.08c-2.16,1.25-5.38,3.49-5.38,5.65,0,3.26,4.19,8.85,4.19,8.85s-3.88,13.35-3.57,14.59-2.33,5.43-.62,6.83,18,0,20.95,1.4,1.55-18.63,1.55-18.63,7.92-18.16,3.88-19.87c-1.3-.55-2.43-1-3.36-1.29A7.1,7.1,0,0,0,214.79,92Z"/><path class="cls-16" d="M220.84,93.12l3.56.59S226,95.29,226,96.07s-.31,34.3-.77,35.39-5.59.62-5.59.62l.93-19.09Z"/><path class="cls-15" d="M213.62,75.71a4.89,4.89,0,0,0-3.87-2h-.19c-3.54,0-6.42,3.21-6.42,7.17h1.19l.19-1.46.28,1.46h7l.59-1.24-.15,1.24h1.39q1,4.81-2.79,9.64h2.36l1.18-2.47-.29,2.47h4.5l.89-5.69A9.62,9.62,0,0,0,213.62,75.71Z"/><circle class="cls-15" cx="214.92" cy="72.8" r="3.51"/><path class="cls-3" d="M85.41,141.62C69.53,126,62.83,109.68,66.53,95.71c4.75-17.94,25.84-30.34,57.88-34l.12,1C92.94,66.34,72.16,78.47,67.53,96c-3.6,13.6,3,29.55,18.61,44.91Z"/><path class="cls-3" d="M237.6,203.1a248.63,248.63,0,0,1-62.74-8.6c-26.45-7-50.7-17.58-70.13-30.57l.57-.86c19.34,12.93,43.49,23.45,69.83,30.43,23.8,6.3,47.78,9.22,69.34,8.45l0,1Q241.09,203.1,237.6,203.1Z"/><path class="cls-18" d="M121.32,197.54c-38.93-17.27-68.94-39.68-84.48-63.09l.86-.57c15.44,23.25,45.28,45.52,84,62.71Z"/><path class="cls-3" d="M258.23,227.45q-6,0-12.26-.26l.05-1c31,1.34,58.34-2.37,79.09-10.73l.39,1C307.4,223.68,284.33,227.45,258.23,227.45Z"/><path class="cls-19" d="M61.07,143.17C45.2,127.54,38.49,111.24,42.19,97.26c4.75-17.94,25.85-30.34,57.88-34l.12,1C68.6,67.9,47.83,80,43.19,97.52c-3.6,13.61,3,29.56,18.61,44.92Z"/><path class="cls-3" d="M256.15,214.26A249.13,249.13,0,0,1,192.84,213c-27.08-3.91-52.39-11.61-73.19-22.27l.47-.93C140.82,200.37,166,208,193,211.92c24.37,3.51,48.53,3.65,69.86.4l.15,1Q259.63,213.85,256.15,214.26Z"/><path class="cls-3" d="M97,199.09C58.05,181.82,28.05,159.42,12.5,136l.87-.57c15.43,23.25,45.28,45.52,84,62.71Z"/><path class="cls-20" d="M233.89,229q-6,0-12.25-.27l0-1c31,1.35,58.34-2.36,79.09-10.72l.39,1C283.06,225.23,260,229,233.89,229Z"/><path class="cls-21" d="M30.15,115.44C37.6,107.1,49.47,102,60.22,105.05a51.57,51.57,0,0,0-20.1,29.1c-1.16,4.54-2,9.72-5.76,12.49A11.46,11.46,0,0,1,26,148.39a34.12,34.12,0,0,1-8.32-2.63l-.73.06C19.05,134.84,22.71,123.78,30.15,115.44Z"/><path class="cls-6" d="M60.19,105.29A44,44,0,0,0,37.1,119.45a19.08,19.08,0,0,0-3.2,5,10.91,10.91,0,0,0-.64,5.68,22.61,22.61,0,0,1,.5,5.43,6.66,6.66,0,0,1-2.82,4.66,17.31,17.31,0,0,1-6.41,2.52c-2.49.59-5.08,1.16-7.11,2.81-.25.2-.55-.19-.3-.39,3.53-2.88,8.44-2.51,12.35-4.6A6.78,6.78,0,0,0,33.21,136a17.71,17.71,0,0,0-.4-5.52,11.49,11.49,0,0,1,.42-5.58,17.51,17.51,0,0,1,3-5.11,42.61,42.61,0,0,1,9.94-8.91,44.74,44.74,0,0,1,14-6c.31-.08.37.41.06.49Z"/><path class="cls-6" d="M38.9,117.07a6.61,6.61,0,0,1-.2-8.55c.2-.24.59.06.39.3a6.13,6.13,0,0,0,.21,8C39.51,117,39.12,117.31,38.9,117.07Z"/><path class="cls-6" d="M33,129.25a12.73,12.73,0,0,0,8.84-2.8c.25-.2.55.19.3.39a13.22,13.22,0,0,1-9.21,2.9C32.63,129.72,32.7,129.23,33,129.25Z"/><path class="cls-6" d="M50.55,108.69a3.72,3.72,0,0,0,3,1.86c.32,0,.25.51-.07.49A4.19,4.19,0,0,1,50.16,109a.24.24,0,1,1,.39-.29Z"/><path class="cls-21" d="M75.49,139.69H74.9a49.49,49.49,0,0,0-8,.46l-.61.09a51.72,51.72,0,0,0-18.05,6.29,49.62,49.62,0,0,0-6.33,4.3c-2.76,2.21-5.58,4.81-8.81,5.94a9.32,9.32,0,0,1-1,.3l-15-10.36a.75.75,0,0,0-.07-.12l-.61-.38.29-.27.18-.16.11-.1,0,0,.1-.09c.57-.51,1.15-1,1.73-1.51h0a74.08,74.08,0,0,1,14.44-9.92c.16-.08.32-.17.48-.24a47.78,47.78,0,0,1,7.28-2.94c1.37-.42,2.77-.77,4.17-1.05a35.34,35.34,0,0,1,11.05-.43c7.34.88,14.32,4.09,18.87,9.8Z"/><path class="cls-6" d="M75.33,139.86a44,44,0,0,0-27-2.6,19.05,19.05,0,0,0-5.56,2.08,10.91,10.91,0,0,0-3.94,4.15A22.25,22.25,0,0,1,36,148.12a6.62,6.62,0,0,1-5.05,2,17.21,17.21,0,0,1-6.64-1.84c-2.34-1-4.75-2.14-7.37-2a.25.25,0,0,1,0-.49c4.55-.17,8.25,3.08,12.63,3.76a6.76,6.76,0,0,0,5.76-1.43,17.73,17.73,0,0,0,3-4.65,11.59,11.59,0,0,1,3.7-4.2A17.25,17.25,0,0,1,47.48,137a42.59,42.59,0,0,1,13.31-1.12,44.77,44.77,0,0,1,14.79,3.58c.29.13,0,.55-.25.43Z"/><path class="cls-6" d="M51.24,136.45a6.6,6.6,0,0,1,5-6.95.25.25,0,0,1,.13.48,6.11,6.11,0,0,0-4.62,6.47C51.76,136.77,51.26,136.77,51.24,136.45Z"/><path class="cls-6" d="M39.21,142.63A12.66,12.66,0,0,0,48,145.72a.25.25,0,0,1,0,.49,13.23,13.23,0,0,1-9.1-3.23c-.24-.21.11-.56.35-.35Z"/><path class="cls-6" d="M65.58,136.77a3.76,3.76,0,0,0,1.29,3.31c.24.2-.11.55-.35.35a4.21,4.21,0,0,1-1.43-3.66.27.27,0,0,1,.25-.25.25.25,0,0,1,.24.25Z"/><path class="cls-21" d="M321.74,183.83c-4.21-10.36-13.68-19.13-24.83-19.88a51.52,51.52,0,0,1,9.15,34.16c-.43,4.67-1.4,9.81,1.22,13.7a11.52,11.52,0,0,0,7.29,4.45,34.34,34.34,0,0,0,8.72.32l.66.3C325.68,205.84,325.94,194.19,321.74,183.83Z"/><path class="cls-6" d="M296.86,164.18a44,44,0,0,1,17,21.1,18.9,18.9,0,0,1,1.32,5.79,10.92,10.92,0,0,1-1.3,5.57,22.37,22.37,0,0,0-2.29,4.94,6.64,6.64,0,0,0,1.09,5.34,17.33,17.33,0,0,0,5.18,4.53c2.15,1.38,4.4,2.79,5.76,5,.16.28.57,0,.41-.27-2.36-3.89-7.1-5.2-10.08-8.48a6.72,6.72,0,0,1-2-5.6,17.33,17.33,0,0,1,2.23-5.06,11.72,11.72,0,0,0,1.48-5.4,17.82,17.82,0,0,0-1.1-5.82,42.69,42.69,0,0,0-6.38-11.73,44.65,44.65,0,0,0-11.12-10.38c-.26-.18-.48.26-.22.44Z"/><path class="cls-6" d="M313,182.43a6.6,6.6,0,0,0,3.06-8,.25.25,0,0,0-.47.15,6.11,6.11,0,0,1-2.86,7.42c-.28.15,0,.56.27.41Z"/><path class="cls-6" d="M314.4,195.88a12.77,12.77,0,0,1-7.39-5.61c-.17-.27-.58,0-.42.27a13.27,13.27,0,0,0,7.71,5.82c.3.09.4-.4.1-.48Z"/><path class="cls-6" d="M304.79,170.62a3.71,3.71,0,0,1-3.46.74c-.31-.09-.41.4-.1.49a4.21,4.21,0,0,0,3.84-.82.25.25,0,0,0,.07-.34.26.26,0,0,0-.35-.07Z"/><path class="cls-21" d="M270.88,191.44l.57.18a49.54,49.54,0,0,1,7.36,3.12l.55.29a51.82,51.82,0,0,1,14.88,12,50.7,50.7,0,0,1,4.52,6.18c1.86,3,3.63,6.41,6.3,8.56.27.22.56.43.86.63l17.61-4.72.1-.09.72-.16a3.9,3.9,0,0,1-.19-.35l-.11-.2a.91.91,0,0,1-.07-.14l0,0-.06-.11c-.37-.67-.74-1.34-1.12-2h0a74.13,74.13,0,0,0-10.26-14.2l-.37-.39a48.37,48.37,0,0,0-5.87-5.21,43,43,0,0,0-3.58-2.4,35.41,35.41,0,0,0-10.26-4.11c-7.21-1.64-14.86-1-21.06,2.89Z"/><path class="cls-6" d="M271,191.65a44,44,0,0,1,26.27,6.62,19.18,19.18,0,0,1,4.55,3.82,11,11,0,0,1,2.31,5.24,22.44,22.44,0,0,0,1.14,5.32,6.71,6.71,0,0,0,4.09,3.61,17.25,17.25,0,0,0,6.86.49c2.56-.18,5.2-.41,7.63.56.3.12.46-.35.17-.47-4.23-1.69-8.8.13-13.16-.7a6.75,6.75,0,0,1-4.94-3.28,17.69,17.69,0,0,1-1.27-5.38,11.5,11.5,0,0,0-2.07-5.21,17.31,17.31,0,0,0-4.38-4A42.66,42.66,0,0,0,286,192.76a45,45,0,0,0-15.14-1.6c-.31,0-.22.51.09.49Z"/><path class="cls-6" d="M294.82,196.54a6.61,6.61,0,0,0-2.36-8.22c-.27-.18-.55.23-.28.4a6.11,6.11,0,0,1,2.17,7.65c-.13.29.34.46.47.17Z"/><path class="cls-6" d="M304.07,206.4a12.71,12.71,0,0,1-9.28,0c-.29-.12-.46.35-.16.47a13.28,13.28,0,0,0,9.65,0c.3-.12.09-.56-.21-.45Z"/><path class="cls-6" d="M281.2,192a3.78,3.78,0,0,1-2.32,2.68c-.3.11-.09.55.21.44a4.19,4.19,0,0,0,2.57-3,.25.25,0,0,0-.15-.31.24.24,0,0,0-.31.15Z"/><circle class="cls-22" cx="253.17" cy="205.97" r="4.14"/><path class="cls-21" d="M91,188.41c0,1.06,0,2.11.1,3.16.08,1.25.22,2.49.4,3.72a46.23,46.23,0,0,0,3.48,12l.26.57.13.29c0,.1.09.19.13.28s.12.25.18.37.15.31.23.46l0,.06.19.38.05.09c.07.14.15.3.23.44l.25.48.65,1.15.2.34.19.31a2.39,2.39,0,0,0,.13.21c.07.12.13.23.21.35l.48.77h0l.23.34h0l.71,1h0c.19.28.39.55.59.81h0l.38.51.32.42.07.09h0l.09.12c.46.59.94,1.16,1.43,1.73l.08.09.08.09.12.15.13.14a47.41,47.41,0,0,0,8.6,7.59c.42.29.85.57,1.28.84l.33.21.09.06.18.11.18.11.69.42.18.1.18.1h0c.29.17.59.33.89.49l.49.27c.37.2.75.39,1.13.58l.41.2.33.16.1.05.28.13.31.14c.12,0,.23.11.35.15.43.2.87.39,1.31.56a45.42,45.42,0,0,0,4.8,1.67l.23.06c.7.2,1.41.38,2.11.54,1.24.29,2.49.52,3.75.7h0l.45.07h0l.49.07h0l.47.06.51,0,.39,0h0l.35,0h0l.31,0c1.21.09,2.42.14,3.66.14s2.65,0,4-.17h0l.84-.08.21,0h.15a2.85,2.85,0,0,1,.29,0l.33,0,.32-.05h.08a1.81,1.81,0,0,0,.23,0h.11l.23,0h0a45.79,45.79,0,0,0,7-1.58l.36-.11h0l.1,0,1-.33,1.32-.47.35-.14.71-.28c.4-.16.8-.33,1.19-.51l1.1-.5h0l.24-.12h0a47.67,47.67,0,0,0,5.77-3.29q.88-.6,1.74-1.23c.46-.34.91-.69,1.36-1a46.35,46.35,0,0,0,6.16-5.89h0l.39-.45s0-.05.06-.06l.24-.29h0c.11-.12.22-.25.32-.38l.07-.09h0l.26-.32.12-.15h0c.26-.32.51-.64.75-1l.2-.27c.31-.42.62-.85.91-1.28h0c.12-.16.22-.33.34-.49l.32-.49.33-.52,0,0c.1-.16.21-.34.32-.5l.24-.41a2.54,2.54,0,0,0,.16-.28l.06-.09c.12-.21.24-.43.37-.64l.42-.75c.05-.1.1-.21.16-.31l.06-.11c.06-.12.13-.24.19-.37l.19-.37c.06-.12.13-.25.19-.38s.09-.19.14-.28a0,0,0,0,1,0,0,.84.84,0,0,0,.06-.14s0,0,0,0,.09-.2.13-.29.12-.26.18-.38.09-.18.12-.27.12-.25.17-.38l.18-.4a1,1,0,0,0,0-.1l.08-.18c.07-.16.14-.33.2-.49s.15-.37.22-.55.14-.34.2-.51l0-.06a47.08,47.08,0,0,0,2.29-8.22h0a46.4,46.4,0,0,0,.62-4.84c0-.09,0-.17,0-.26.08-1.1.11-2.2.11-3.31,0-.49,0-1,0-1.46a46.54,46.54,0,0,0-10.32-27.86l-.42-.52-.43-.51a46.77,46.77,0,0,0-75.09,5.39l-.63,1c-.21.34-.4.69-.6,1A46.39,46.39,0,0,0,91,188.41Z"/><path class="cls-6" d="M135.86,157.84a110.22,110.22,0,0,0,23.49,3.39,30.89,30.89,0,0,0,3.6,0c2.64-.22,4.89-1,7.4-1.5,1.21-.22,2.56-.37,3.77-.61-.28-.35-.56-.69-.85-1-2.63.22-5.29.95-7.94,1.28a25.44,25.44,0,0,1-13-1.64c-1.65-.77-2.92-1.72-4.58-2.49A2,2,0,0,0,147,155a2.4,2.4,0,0,0-1.35.35,18,18,0,0,1-10.54,1.91C134.87,157.47,135.4,157.72,135.86,157.84Z"/><path class="cls-6" d="M119.32,162.76h-.1a2.38,2.38,0,0,0,.4-.31Z"/><path class="cls-6" d="M97,165.53c1.56.12,3.13.21,4.7.27a28.82,28.82,0,0,0,3.6,0c2.64-.22,4.89-1.05,7.4-1.5,2.31-.42,5.1-.62,6.57-1.53-3.78-.66-7.7.67-11.59,1.17a27.55,27.55,0,0,1-9.45-.47C97.75,164.13,97.34,164.82,97,165.53Z"/><path class="cls-22" d="M115.83,229.73c.37.2.75.39,1.13.58l.41.2.33.16.1.05.28.13.31.14c.12,0,.23.11.35.15.43.2.87.39,1.31.56a45.42,45.42,0,0,0,4.8,1.67l.23.06c.7.2,1.41.38,2.11.54,1.24.29,2.49.52,3.75.7h0l.45.07h0l.49.07h0l.47.06.51,0,.39,0h0l.35,0h0l.31,0c1.21.09,2.42.14,3.66.14s2.65,0,4-.17h0l.84-.08.21,0h.15a2.85,2.85,0,0,1,.29,0l.33,0,.32-.05h.08a1.81,1.81,0,0,0,.23,0h.11l.23,0h0a45.79,45.79,0,0,0,7-1.58l.36-.11a17.38,17.38,0,0,0-9.56-12.09,4.17,4.17,0,0,0,1.19-2.11,4,4,0,0,0-.56-3.05,3.87,3.87,0,0,0-2.45-1.68l-6.43-1.35a4,4,0,0,0-4.69,3.13,4.4,4.4,0,0,0-.09,1C123.1,220.91,118.65,225.19,115.83,229.73Z"/><circle class="cls-13" cx="134.82" cy="196.77" r="13.4"/><path class="cls-23" d="M126.47,208.32a18.05,18.05,0,0,1-3.87-4.26,16.07,16.07,0,0,1-2.48-12.84,4.92,4.92,0,0,1,1.15-2.37,2.13,2.13,0,0,1,2.44-.48,4.39,4.39,0,0,1,.17-3.48,7.86,7.86,0,0,1,2.29-2.73,12.91,12.91,0,0,1,13.15-1.56c.83.39-.54-2.61.33-2.32a3.6,3.6,0,0,0,2.7,0c.82-.42,3.55,2,3.24,1.18a4.07,4.07,0,0,1,.94,6.81,22.69,22.69,0,0,1-2.31,1.42,6.62,6.62,0,0,0-2,8.56,8.77,8.77,0,0,0-2.59-1.12,3,3,0,0,0-2.65.64,3.31,3.31,0,0,0-.81,2.52c0,.91.25,1.8.27,2.71.07,2.67,1.5,7.74-.57,9.16C134.21,211.24,128.42,209.65,126.47,208.32Z"/><path class="cls-21" d="M351.12,86c0,1,0,2.11-.11,3.15-.07,1.25-.21,2.49-.39,3.73a46.34,46.34,0,0,1-3.48,12l-.26.57-.13.29c0,.09-.09.19-.14.28s-.11.25-.17.37l-.23.45,0,.07-.2.38a.2.2,0,0,1,0,.08c-.07.15-.15.3-.23.45l-.25.47c-.21.39-.43.77-.65,1.15l-.2.34a3.21,3.21,0,0,1-.19.31,2.53,2.53,0,0,1-.13.22l-.21.34-.49.77h0c-.07.12-.15.24-.23.35h0c-.23.35-.47.7-.71,1h0l-.59.81h0c-.13.16-.25.34-.38.51l-.33.42a.7.7,0,0,0-.06.09h0l-.1.11c-.46.59-.93,1.17-1.42,1.73l-.08.09-.08.1a.86.86,0,0,1-.13.14,1.58,1.58,0,0,1-.12.15,47.14,47.14,0,0,1-8.61,7.59c-.42.29-.85.57-1.28.84l-.32.21-.1.06-.17.11-.18.1c-.23.15-.46.29-.7.42l-.17.11-.18.1h0l-.88.49-.49.26c-.37.21-.75.4-1.13.59l-.41.2-.34.16-.09,0-.28.13-.31.14-.35.15c-.43.2-.87.38-1.31.56a47.11,47.11,0,0,1-4.81,1.67L317,131c-.69.2-1.4.37-2.11.54-1.23.28-2.48.52-3.74.7h0l-.45.06h-.05l-.5.06h0l-.47.05-.51.06-.39,0h0l-.35,0h0l-.3,0c-1.21.09-2.43.13-3.66.13s-2.65-.05-4-.16h0l-.84-.08-.22,0h-.14l-.29,0-.33,0-.33,0h-.07l-.23,0-.12,0-.23,0h0a44.67,44.67,0,0,1-7-1.59l-.36-.11h0l-.11,0-1-.32c-.45-.15-.88-.31-1.32-.48l-.35-.13-.71-.29-1.19-.5-1.1-.5,0,0-.25-.11h0a45.73,45.73,0,0,1-5.77-3.3c-.59-.39-1.17-.8-1.74-1.22s-.91-.69-1.36-1a46.93,46.93,0,0,1-6.16-5.88h0c-.14-.15-.26-.3-.39-.46l-.06-.06-.24-.29h0l-.32-.39-.07-.08h0l-.26-.32-.12-.16h0c-.26-.32-.51-.64-.75-1l-.2-.27c-.32-.42-.62-.85-.91-1.28h0l-.34-.48-.32-.5c-.11-.17-.23-.34-.33-.51l0,0-.32-.51-.25-.41c-.05-.09-.1-.18-.16-.27a.41.41,0,0,1-.05-.09l-.37-.64-.42-.75-.16-.32-.06-.1-.19-.37c-.07-.12-.13-.25-.2-.38l-.18-.37c-.05-.09-.09-.19-.14-.29v0a.38.38,0,0,1-.06-.13l0,0c-.05-.1-.09-.2-.14-.29l-.17-.39-.13-.26c0-.13-.11-.26-.17-.39l-.17-.39a.42.42,0,0,1,0-.1l-.08-.18c-.07-.16-.14-.33-.2-.49s-.16-.37-.23-.55-.13-.34-.2-.52l0-.06a46.74,46.74,0,0,1-2.29-8.21h0a46.21,46.21,0,0,1-.62-4.83,2.46,2.46,0,0,1,0-.26c-.08-1.1-.11-2.2-.11-3.31,0-.49,0-1,0-1.46A46.51,46.51,0,0,1,268,56.69c.14-.17.27-.35.42-.52l.43-.51a46.75,46.75,0,0,1,75.09,5.39l.63,1,.6,1A46.58,46.58,0,0,1,351.12,86Z"/><path class="cls-6" d="M306.23,55.43a109.68,109.68,0,0,1-23.49,3.39,28.82,28.82,0,0,1-3.6,0c-2.64-.22-4.89-1-7.41-1.5-1.2-.22-2.55-.38-3.76-.61.28-.35.56-.69.85-1,2.62.22,5.29.94,7.94,1.28a25.51,25.51,0,0,0,13-1.65c1.66-.76,2.93-1.72,4.59-2.49a2.16,2.16,0,0,1,.72-.22,2.57,2.57,0,0,1,1.35.35,18.09,18.09,0,0,0,10.54,1.92C307.22,55.06,306.69,55.31,306.23,55.43Z"/><path class="cls-6" d="M322.77,60.36l.1,0a3,3,0,0,1-.4-.3Z"/><path class="cls-6" d="M345.14,63.12c-1.56.13-3.13.22-4.71.28a28.84,28.84,0,0,1-3.6,0c-2.63-.23-4.88-1.05-7.4-1.51-2.3-.41-5.1-.61-6.56-1.53,3.78-.65,7.69.68,11.59,1.18a27.73,27.73,0,0,0,9.44-.47C344.34,61.73,344.75,62.42,345.14,63.12Z"/><ellipse class="cls-24" cx="299.1" cy="92.11" rx="14.04" ry="14.35"/><path class="cls-22" d="M326.26,127.32c-.37.21-.75.4-1.13.59l-.41.2-.34.16-.09,0-.28.13-.31.14-.35.15c-.43.2-.87.38-1.31.56a47.11,47.11,0,0,1-4.81,1.67L317,131c-.69.2-1.4.37-2.11.54-1.23.28-2.48.52-3.74.7h0l-.45.06h-.05l-.5.06h0l-.47.05-.51.06-.39,0h0l-.35,0h0l-.3,0c-1.21.09-2.43.13-3.66.13s-2.65-.05-4-.16h0l-.84-.08-.22,0h-.14l-.29,0-.33,0-.33,0h-.07l-.23,0-.12,0-.23,0h0a44.67,44.67,0,0,1-7-1.59l-.36-.11a17.43,17.43,0,0,1,9.55-12.09,4.12,4.12,0,0,1-1.18-2.11,4,4,0,0,1,.56-3,3.88,3.88,0,0,1,2.45-1.69L308,110.3a4,4,0,0,1,4.69,3.12,4.49,4.49,0,0,1,.08,1C319,118.51,323.44,122.78,326.26,127.32Z"/><path class="cls-25" d="M336.67,85.89c-2.38-2.79-3.52-6.48-5.43-9.64s-5.22-6-8.73-5.25c-2.42.5-4.29,2.64-5.23,5A24.35,24.35,0,0,0,316,83.59a12.93,12.93,0,0,0-8.22-12.09,12.11,12.11,0,0,0-13.54,4.44,7.33,7.33,0,0,0-9.72-.21A8.17,8.17,0,0,0,283.2,85.8a7.38,7.38,0,0,0,9.42,2.51l1.12,1a4.83,4.83,0,0,0,2.63,5.61c1.65.66,4,.55,4.61,2.29.44,1.22-.37,2.51-1.24,3.45s-1.88,1.89-2,3.18c-.16,2,1.86,3.32,3.69,3.73a11.49,11.49,0,0,0,11.85-5l.16-.23a17.07,17.07,0,0,0,3.43-13c-.14-.9,0-1.57.62-1.78,2.68-.92,10.2,1,12.47,2.76s4.1,4.06,6.29,5.92,5,3.3,7.77,2.79a8.63,8.63,0,0,0,5.4-4,24.17,24.17,0,0,0,2.66-6.49A12.55,12.55,0,0,1,336.67,85.89Z"/><path class="cls-21" d="M48.44,56.94c0,1.05,0,2.11.11,3.15.08,1.25.21,2.49.4,3.72a46.41,46.41,0,0,0,3.48,12l.26.57.13.29L53,77l.18.37.22.45,0,.06.2.39,0,.08c.08.15.16.3.23.45s.17.32.26.47c.21.39.42.77.65,1.15l.2.34.18.31a2.53,2.53,0,0,1,.13.22c.07.11.14.23.22.34l.48.77h0c.07.12.15.23.23.35h0c.23.35.46.7.7,1h0c.19.28.39.55.58.82h0l.39.52.32.42.07.08h0l.09.11c.46.59.93,1.17,1.42,1.73l.08.09a.39.39,0,0,1,.08.1l.13.14a.86.86,0,0,0,.13.14,46.38,46.38,0,0,0,8.6,7.59c.42.29.85.58,1.28.85l.33.2.09.07.18.11.17.1.7.42.18.11.18.1h0l.89.5c.16.09.32.18.49.26l1.12.59.41.2.34.16.1,0,.28.13.31.15.34.15,1.31.56a45.53,45.53,0,0,0,4.81,1.66l.23.07c.7.19,1.4.37,2.11.53,1.24.29,2.48.52,3.74.71h0l.45.06h0l.5.06h0l.47,0,.51,0,.39,0h0l.35,0h0l.3,0c1.22.1,2.43.14,3.66.14s2.66-.05,4-.16h0l.83-.08.22,0h.15l.29,0,.33,0,.32,0h.07l.24,0h.11l.23,0h0a47,47,0,0,0,7-1.59l.36-.11h0l.11,0,1-.32q.66-.23,1.32-.48l.35-.14.71-.28,1.19-.5,1.1-.51h0l.24-.12h0a45,45,0,0,0,5.76-3.29c.59-.39,1.17-.8,1.75-1.22s.91-.69,1.36-1a46.93,46.93,0,0,0,6.16-5.88h0c.13-.14.26-.3.39-.45l.05-.06.25-.29h0l.32-.39a.27.27,0,0,1,.07-.08h0c.08-.1.17-.2.25-.31s.08-.11.13-.16h0l.75-1,.2-.26.91-1.28h0l.33-.49.33-.49.33-.52v0c.11-.17.22-.34.32-.51l.25-.41c.05-.09.11-.18.16-.28a.7.7,0,0,0,.06-.09l.36-.63c.15-.25.28-.5.42-.75s.11-.21.17-.32a.47.47,0,0,0,0-.1l.2-.37.19-.38.19-.37c0-.1.09-.19.14-.29v0l.06-.13s0,0,0,0,.09-.19.14-.29l.18-.38.12-.27c.06-.12.12-.25.17-.38s.12-.26.17-.39l0-.1c0-.06.05-.12.08-.19s.13-.32.2-.48.15-.37.22-.55.13-.35.2-.52l0-.06a47.62,47.62,0,0,0,2.29-8.21h0c.29-1.6.49-3.21.62-4.83,0-.09,0-.18,0-.27.08-1.09.12-2.2.12-3.3,0-.49,0-1,0-1.47A46.57,46.57,0,0,0,131.6,27.62l-.42-.52-.44-.52A46.75,46.75,0,0,0,55.66,32c-.21.34-.43.68-.63,1s-.41.7-.61,1A46.58,46.58,0,0,0,48.44,56.94Z"/><path class="cls-6" d="M93.33,26.36a110.41,110.41,0,0,0,23.5,3.39,28.83,28.83,0,0,0,3.6,0c2.63-.22,4.89-1.05,7.4-1.5,1.21-.22,2.55-.38,3.77-.61-.28-.35-.57-.7-.86-1-2.62.23-5.28,1-7.94,1.29a25.51,25.51,0,0,1-13-1.65c-1.66-.76-2.93-1.72-4.58-2.49a2.31,2.31,0,0,0-.72-.22,2.58,2.58,0,0,0-1.36.35,18,18,0,0,1-10.53,1.91C92.35,26,92.88,26.24,93.33,26.36Z"/><path class="cls-6" d="M76.8,31.29l-.11,0a3.08,3.08,0,0,0,.41-.3Z"/><path class="cls-6" d="M54.42,34.05c1.56.12,3.13.22,4.71.28a28.83,28.83,0,0,0,3.6,0c2.63-.22,4.89-1,7.4-1.5,2.3-.41,5.1-.61,6.56-1.53C72.92,30.62,69,32,65.1,32.44A27.74,27.74,0,0,1,55.66,32C55.23,32.66,54.82,33.35,54.42,34.05Z"/><path class="cls-22" d="M73.31,98.25l1.12.59.41.2.34.16.1,0,.28.13.31.15.34.15,1.31.56a45.53,45.53,0,0,0,4.81,1.66l.23.07c.7.19,1.4.37,2.11.53,1.24.29,2.48.52,3.74.71h0l.45.06h0l.5.06h0l.47,0,.51,0,.39,0h0l.35,0h0l.3,0c1.22.1,2.43.14,3.66.14s2.66-.05,4-.16h0l.83-.08.22,0h.15l.29,0,.33,0,.32,0h.07l.24,0h.11l.23,0h0a47,47,0,0,0,7-1.59l.36-.11A17.45,17.45,0,0,0,99.8,89.41,4.13,4.13,0,0,0,101,87.3a4.07,4.07,0,0,0-.56-3A3.9,3.9,0,0,0,98,82.57l-6.43-1.34a4,4,0,0,0-4.68,3.12,3.91,3.91,0,0,0-.09,1C80.58,89.44,76.12,93.71,73.31,98.25Z"/><circle class="cls-26" cx="98.75" cy="61.23" r="15.65"/><path class="cls-17" d="M96.52,76.05c-3.92,1.06-8.24-.35-11.3-3a21.24,21.24,0,0,1-6.07-10.36c-.81-2.86-1.19-6,.08-8.72s4.71-4.5,7.35-3.14c-1.63-1.9-.81-5,1.09-6.67s4.52-2.09,7-2.35a25.48,25.48,0,0,1,10.79.76c3.44,1.17,6.57,3.74,7.65,7.21a5.49,5.49,0,0,0,6.54-1.48,5,5,0,0,1-2.74,5.39L122.21,52c.9,1.92-.69,4.3-2.72,4.91s-4.22-.06-6.15-.95-3.8-2-5.9-2.35-4.55.32-5.52,2.21a16.55,16.55,0,0,0-.83,3.22c-.29,1.08-1,2.19-2.15,2.28-.7,0-1.38-.32-2.08-.25a2.25,2.25,0,0,0-1.76,1.72,6.5,6.5,0,0,0,0,2.6l1.34,10.24Z"/><circle class="cls-22" cx="119.84" cy="26.42" r="4.14"/></svg>