<svg id="Capa_1" data-name="Capa 1" xmlns="http://www.w3.org/2000/svg" xmlns:xlink="http://www.w3.org/1999/xlink" viewBox="0 0 364 238"><defs><style>.cls-1{fill:#f2f2f2;}.cls-2{fill:#9e616a;}.cls-3{fill:#3f3d56;}.cls-4{fill:#fff;}.cls-5{fill:#f7931e;}.cls-6{fill:#ffb6b6;}.cls-7{fill:#2f8dcc;}.cls-8{fill:#2f2e41;}.cls-12,.cls-14,.cls-9{stroke-miterlimit:10;}.cls-9{fill:url(#Degradado_sin_nombre_2);stroke:url(#Degradado_sin_nombre_2-2);}.cls-10{fill:#ffb8b8;}.cls-11{fill:#933300;}.cls-12{fill:url(#Degradado_sin_nombre_2-3);stroke:url(#Degradado_sin_nombre_2-4);}.cls-13{fill:#653100;}.cls-14{fill:url(#Degradado_sin_nombre_2-5);stroke:url(#Degradado_sin_nombre_2-6);}.cls-15{fill:#e6e6e6;}</style><linearGradient id="Degradado_sin_nombre_2" x1="198.17" y1="78.47" x2="254.22" y2="78.47" gradientUnits="userSpaceOnUse"><stop offset="0" stop-color="#24c6dc"/><stop offset="1" stop-color="#514a9d"/></linearGradient><linearGradient id="Degradado_sin_nombre_2-2" x1="197.67" y1="78.47" x2="254.72" y2="78.47" xlink:href="#Degradado_sin_nombre_2"/><linearGradient id="Degradado_sin_nombre_2-3" x1="68.44" y1="49.91" x2="124.49" y2="49.91" xlink:href="#Degradado_sin_nombre_2"/><linearGradient id="Degradado_sin_nombre_2-4" x1="67.94" y1="49.91" x2="124.99" y2="49.91" xlink:href="#Degradado_sin_nombre_2"/><linearGradient id="Degradado_sin_nombre_2-5" x1="119.84" y1="134.6" x2="175.89" y2="134.6" xlink:href="#Degradado_sin_nombre_2"/><linearGradient id="Degradado_sin_nombre_2-6" x1="119.34" y1="134.6" x2="176.39" y2="134.6" xlink:href="#Degradado_sin_nombre_2"/></defs><path class="cls-1" d="M231.64,73.78A27.68,27.68,0,1,1,204,46.05h0a27.62,27.62,0,0,1,27.63,27.58Z"/><path class="cls-1" d="M122.64,181.66a33.56,33.56,0,1,1-33.5-33.61h0a33.48,33.48,0,0,1,33.5,33.44Z"/><path class="cls-2" d="M267.6,83.91l3.89-7.43c-3.49-4.22-14.93-9.33-14.93-9.33l-15.5-14.1a3.71,3.71,0,1,0-4.55,4.51l16.74,20.08Z"/><path class="cls-3" d="M265.72,83.4l5.49,1.75a18.88,18.88,0,0,0,12.24-.28h0a6.8,6.8,0,0,0,4.4-5.68h0a6.79,6.79,0,0,0-5.66-7.35C277,71,270.4,70.57,268,73.39l0,0Z"/><circle class="cls-4" cx="226.19" cy="78.47" r="27.68"/><path class="cls-5" d="M214.9,67.64A25.62,25.62,0,0,1,213,73.56c-4.88,10.33,9,7,14,7,5.44,0,10.63,2.85,9.84-9.84-.34-5.42-4.4-9.84-9.84-9.84C222.39,60.85,215.87,62.91,214.9,67.64Z"/><circle class="cls-6" cx="226.22" cy="72.53" r="7.99"/><path class="cls-5" d="M220.79,64.38a9.16,9.16,0,0,1,13.92,8c-4.07,1-8.35,1.81-12.69.25l-1-2.51-.6,2.51c-1.33.54-2.65,1-4,0A9.36,9.36,0,0,1,220.79,64.38Z"/><path class="cls-7" d="M247.71,96.87A27.67,27.67,0,0,1,209,99.67l2.38-6.62a7.12,7.12,0,0,1,6-4.16l1.51-.09,3.6-3.11s9.7-.34,9.56-.51L238,88.71v0l2.31.14a7.12,7.12,0,0,1,6,4.16Z"/><path class="cls-1" d="M223.77,210.92l-.69-9.57a31,31,0,0,0-14.53-3.26c7.08,5.48,6.52,16.42,11.42,23.91a18.63,18.63,0,0,0,13.88,8.23l5.9,3.39a31.23,31.23,0,0,0-7.26-25.09,30.67,30.67,0,0,0-5.68-5C225.52,207.24,223.77,210.92,223.77,210.92Z"/><path class="cls-1" d="M127.52,111.38l-.69-9.57a31,31,0,0,0-14.53-3.26c7.09,5.48,6.52,16.42,11.43,23.91a18.6,18.6,0,0,0,13.87,8.23l5.9,3.39A31.2,31.2,0,0,0,136.24,109a30,30,0,0,0-5.68-5C129.27,107.7,127.52,111.38,127.52,111.38Z"/><polygon class="cls-2" points="249.56 230.38 244.96 230.38 242.77 212.65 249.56 212.65 249.56 230.38"/><path class="cls-8" d="M250.73,234.84H235.9v-.19a5.77,5.77,0,0,1,5.77-5.77h0l2.71-2,5.05,2h1.3Z"/><polygon class="cls-2" points="290.08 230.38 285.49 230.38 283.3 212.65 290.09 212.65 290.08 230.38"/><path class="cls-8" d="M291.26,234.84H276.43v-.19a5.77,5.77,0,0,1,5.77-5.77h0l2.71-2,5,2h1.3Z"/><path class="cls-8" d="M283.09,135.45,287,172.2s5.15,36.79,4.18,41.86.24,5.81.24,5.81l-8.82-.63s.24-3.15-1.21-4.6-.72-5.8-.72-5.8L263.51,149l-10.4,31.43s-1.69,34.56-1.93,35.05-1,7-1,7h-8.94s1.21-3.87-.48-5.08-3.15-.24-1.7-2.42,1.94-4.83,1.45-6-.48-6-.48-6,.73-65.27,4.84-67.45S283.09,135.45,283.09,135.45Z"/><circle class="cls-2" cx="264.77" cy="51.54" r="9.51"/><path class="cls-3" d="M286.38,139.46c-18.43,3.8-42.84-2.74-42.84-2.74l6.51-28.23-2.31-29.55a8,8,0,0,1,5-8.2l4.42-1.65,3.66-5.23,10.44.34,4.17,5.49,3.29,1.75,7.14,3.78,0,0h0L283.62,97l-1.35,13.1s4.1,14.74,3.26,16.69-.11,1,.09,2,.83,1.11.93,3.17S286.38,139.46,286.38,139.46Z"/><path class="cls-8" d="M264.31,60.6a29.57,29.57,0,0,0,5-.48c1.63-.37,5.21-3.15,6.19-4.78h0a14.37,14.37,0,0,0,1.4-4.47,13.07,13.07,0,0,0-2.56-10.33,4.08,4.08,0,0,0-1.71-1.39l-.18,0a5.15,5.15,0,0,1-2.58-1.51,4.26,4.26,0,0,0-.43-.42,6.33,6.33,0,0,0-2.66-1.25c-1.57-.38-3.82.09-6.68,1.4a7,7,0,0,1-4.26.24.4.4,0,0,0-.37.14,2.82,2.82,0,0,1-1.9.82c-.43,0-.88.64-1.41,1.45-.12.18-.26.39-.36.52l0-.24-.24.28a3.43,3.43,0,0,0,1.7,5.54,7.57,7.57,0,0,0,1.34.18,7.71,7.71,0,0,1,.84.07,5.16,5.16,0,0,1,3.92,3.26,1.36,1.36,0,0,0,1.75.77,1.87,1.87,0,0,0,.31-.17,2.2,2.2,0,0,1,2-.42,1.49,1.49,0,0,1,.68.72,1.91,1.91,0,0,0,.75.84c1.12.54,1.26,3.07.92,5.18S264.68,60,264,60.13c-.54.06-.6.1-.64.2l0,.09.06.08A2.33,2.33,0,0,0,264.31,60.6Z"/><path class="cls-9" d="M226.19,106.49a28,28,0,1,1,28-28h0A28.06,28.06,0,0,1,226.19,106.49Zm0-55.35a27.33,27.33,0,1,0,27.33,27.33h0A27.35,27.35,0,0,0,226.19,51.14Z"/><circle class="cls-4" cx="96.46" cy="49.91" r="27.68"/><circle class="cls-10" cx="97.74" cy="43.71" r="9.02"/><path id="f183d98d-beca-4def-af6d-fbe16b93cf6a-281" class="cls-11" d="M105.69,37.75s2.35-4.49-2.82-4.9c0,0-4.41-4-8.9-.73a4.51,4.51,0,0,0-3.79,2.77,1.68,1.68,0,0,0-2.35,1.23,12.77,12.77,0,0,0,0,7.76C89.24,47.55,89.71,48,89.71,48s-1-4.56,4.65-5,10.81-3.94,11.28.55,1,2.46,1,2.46S111.09,39.59,105.69,37.75Z"/><path class="cls-7" d="M117.28,68.32a27.68,27.68,0,0,1-38.73,2.8l2.38-6.63a7.11,7.11,0,0,1,6-4.15l1.51-.1,3.6-3.1s9.7-.35,9.56-.51l5.88,3.53v0l2.31.14a7.13,7.13,0,0,1,6,4.15Z"/><path class="cls-12" d="M96.46,77.94a28,28,0,1,1,28-28h0A28.07,28.07,0,0,1,96.46,77.94Zm0-55.36a27.33,27.33,0,1,0,27.33,27.33h0A27.36,27.36,0,0,0,96.46,22.58Z"/><circle class="cls-4" cx="147.86" cy="134.6" r="27.68"/><path class="cls-13" d="M135,125.6c1.15-3.65,3.75-7,7.35-8.23s8.87.65,11.58,3.34c4.95,4.94,6.15,21.88,2.75,27.24-.67,0-3-.07-3.69-.09l-1-3.23v3.2c-1.09,0-2.19-.06-3.3-.07a14.35,14.35,0,0,1-14.17-14C134.5,130.21,134.58,127,135,125.6Z"/><circle class="cls-2" cx="147.45" cy="129.8" r="7.89"/><path class="cls-13" d="M140.65,122.87l9.08-4.55h0a11.42,11.42,0,0,1,6.68,9.46l.23,2.71-3.8-1-.42-3.47-.65,3.2-1.75-.44,0-5.39-1.76,5.38L142,127.36Z"/><path class="cls-7" d="M168.4,152.91a27.66,27.66,0,0,1-38.72,2.8l2.37-6.62a7.13,7.13,0,0,1,6-4.16l1.51-.09,3.61-3.1s9.7-.35,9.55-.52l5.88,3.54v0l2.31.15a7.09,7.09,0,0,1,6,4.15Z"/><path class="cls-14" d="M147.86,162.62a28,28,0,1,1,28-28h0A28.05,28.05,0,0,1,147.86,162.62Zm0-55.35a27.33,27.33,0,1,0,27.33,27.33h0a27.35,27.35,0,0,0-27.33-27.33Z"/><path class="cls-2" d="M251.76,92.83l-4.19-7.27c-5.43.69-15.88,7.62-15.88,7.62l-20.21,5.53a3.7,3.7,0,1,0,1.37,6.26l25.93-3.38Z"/><path class="cls-3" d="M250.31,94.14l9.38-7.85L261.06,80a6.81,6.81,0,0,0-2.45-6.76h0a6.78,6.78,0,0,0-9.23.84c-3.48,3.9-7.39,9.28-6.28,12.79v0Z"/><path class="cls-15" d="M189.53,191.44H154.28a3.57,3.57,0,0,1-3.56-3.56V166.17a3.58,3.58,0,0,1,3.56-3.57h35.25a3.57,3.57,0,0,1,3.56,3.57v21.71A3.56,3.56,0,0,1,189.53,191.44Z"/><path class="cls-4" d="M175.53,188.64H156.76a3.34,3.34,0,0,1-3.34-3.33V168.74a3.35,3.35,0,0,1,3.34-3.34h30.29a3.33,3.33,0,0,1,3.34,3.34v5A14.88,14.88,0,0,1,175.53,188.64Z"/><path class="cls-7" d="M184,174.47H159.78a.79.79,0,1,1,0-1.58H184a.79.79,0,1,1,0,1.58Z"/><path class="cls-7" d="M163.58,177.6h-3.8a.79.79,0,1,1,0-1.58h3.8a.79.79,0,1,1,0,1.58Z"/><path class="cls-7" d="M170.29,180.72H159.78a.79.79,0,1,1,0-1.58h10.51a.79.79,0,1,1,0,1.58Z"/><circle class="cls-3" cx="149.49" cy="162.17" r="7.46"/><path class="cls-15" d="M165.06,52H129.81a3.56,3.56,0,0,1-3.56-3.56V26.7a3.56,3.56,0,0,1,3.56-3.56h35.25a3.57,3.57,0,0,1,3.57,3.56V48.41A3.57,3.57,0,0,1,165.06,52Z"/><path class="cls-4" d="M151.06,49.18H132.29A3.35,3.35,0,0,1,129,45.84V29.27a3.34,3.34,0,0,1,3.34-3.33h30.29a3.33,3.33,0,0,1,3.34,3.33v5A14.88,14.88,0,0,1,151.06,49.18Z"/><path class="cls-7" d="M159.56,35H135.31a.8.8,0,0,1-.79-.79.79.79,0,0,1,.79-.79h24.25a.79.79,0,0,1,0,1.58Z"/><path class="cls-7" d="M139.11,38.13h-3.8a.79.79,0,1,1,0-1.58h3.8a.79.79,0,1,1,0,1.58Z"/><path class="cls-7" d="M145.82,41.26H135.31a.79.79,0,1,1,0-1.58h10.51a.79.79,0,1,1,0,1.58Z"/><circle class="cls-3" cx="125.02" cy="48.71" r="7.46"/><path class="cls-3" d="M341.47,235.16H23.14c-.46,0-.84-.19-.84-.41s.38-.41.84-.41H341.47c.46,0,.83.18.83.41S341.93,235.16,341.47,235.16Z"/></svg>