<svg id="Capa_1" data-name="Capa 1" xmlns="http://www.w3.org/2000/svg" xmlns:xlink="http://www.w3.org/1999/xlink" viewBox="0 0 364 238"><defs><style>.cls-1{fill:#f2f2f2;}.cls-2{fill:#fff;}.cls-3{fill:url(#Degradado_sin_nombre_10);}.cls-4{fill:url(#Degradado_sin_nombre_2);}.cls-5{fill:url(#Degradado_sin_nombre_2-2);}.cls-6{fill:url(#Degradado_sin_nombre_2-3);}.cls-7{fill:#3f3d56;}.cls-8{fill:#ffb6b6;}.cls-9{fill:#2f2e41;}.cls-10{fill:#9e005d;}</style><linearGradient id="Degradado_sin_nombre_10" x1="80.95" y1="178.4" x2="80.95" y2="234.68" gradientUnits="userSpaceOnUse"><stop offset="0" stop-color="#4079b5"/><stop offset="0.32" stop-color="#4669ad"/><stop offset="1" stop-color="#514a9d"/></linearGradient><linearGradient id="Degradado_sin_nombre_2" x1="138.17" y1="130.63" x2="138.17" y2="235.16" gradientUnits="userSpaceOnUse"><stop offset="0" stop-color="#24c6dc"/><stop offset="1" stop-color="#514a9d"/></linearGradient><linearGradient id="Degradado_sin_nombre_2-2" x1="195.4" y1="68.68" x2="195.4" y2="235.16" xlink:href="#Degradado_sin_nombre_2"/><linearGradient id="Degradado_sin_nombre_2-3" x1="253.16" y1="4.12" x2="253.16" y2="234.92" xlink:href="#Degradado_sin_nombre_2"/></defs><path class="cls-1" d="M77.55,234a46,46,0,0,1-31.47-6.88c-2.88-1.88-5.64-4.19-7.13-7.29a12.79,12.79,0,0,1,1.58-13.19A14.12,14.12,0,0,1,53,201.55a15.74,15.74,0,0,1,11.4,7.31c2.73,4.37,3.26,9.73,3.71,14.86a5.86,5.86,0,0,1,6.67-3.7,7,7,0,0,1,5.17,5.9,8.59,8.59,0,0,1-3.09,7.42"/><path class="cls-2" d="M44.5,203.69a75,75,0,0,1,22.08,29.78c.21.51,1.06.29.85-.24a75.82,75.82,0,0,0-11.82-19.74,75.4,75.4,0,0,0-10.49-10.42C44.68,202.72,44.06,203.33,44.5,203.69Z"/><path class="cls-3" d="M93,234.68H68.88a3.07,3.07,0,0,1-3.07-3.07V181.48a3.08,3.08,0,0,1,3.07-3.08H93a3.08,3.08,0,0,1,3.07,3.08v50.13A3.07,3.07,0,0,1,93,234.68Z"/><path class="cls-4" d="M150.23,235.16H126.11a3.54,3.54,0,0,1-3.54-3.55V134.18a3.55,3.55,0,0,1,3.54-3.55h24.12a3.56,3.56,0,0,1,3.55,3.55v97.43A3.55,3.55,0,0,1,150.23,235.16ZM126.11,131.58a2.61,2.61,0,0,0-2.6,2.6v97.43a2.6,2.6,0,0,0,2.6,2.6h24.12a2.61,2.61,0,0,0,2.61-2.6V134.18a2.62,2.62,0,0,0-2.61-2.6Z"/><path class="cls-5" d="M207.46,235.16H183.34a3.56,3.56,0,0,1-3.55-3.55V72.22a3.56,3.56,0,0,1,3.55-3.54h24.12A3.55,3.55,0,0,1,211,72.22V231.61A3.55,3.55,0,0,1,207.46,235.16ZM183.34,69.62a2.61,2.61,0,0,0-2.6,2.6V231.61a2.6,2.6,0,0,0,2.6,2.6h24.12a2.59,2.59,0,0,0,2.6-2.6V72.22a2.6,2.6,0,0,0-2.6-2.6Z"/><path class="cls-6" d="M265.22,234.92H241.1a3.08,3.08,0,0,1-3.07-3.07V7.19a3.07,3.07,0,0,1,3.07-3.07h24.12a3.07,3.07,0,0,1,3.08,3.07V231.85A3.08,3.08,0,0,1,265.22,234.92Z"/><path class="cls-7" d="M324.59,235H18.45a.57.57,0,0,1,0-1.13H324.59a.57.57,0,0,1,.56.57A.56.56,0,0,1,324.59,235Z"/><path class="cls-8" d="M304.6,52.65a4,4,0,0,0-4,6.94l14.1,20.5,3.8-4.29L306.43,58.51a3.78,3.78,0,0,0,.33-.63,4,4,0,0,0-2.16-5.23Z"/><polygon class="cls-8" points="295.61 209.1 303.33 209.1 300.84 229.29 295.61 229.29 295.61 209.1"/><polygon class="cls-7" points="291.69 154.93 294.25 223.85 303.53 223.85 308.99 154.93 291.69 154.93"/><polygon class="cls-7" points="299.96 92.11 323.43 87.78 319.57 74.46 309.54 74.46 310.88 80.81 298.17 81.64 294.47 83.5 299.96 92.11"/><path class="cls-9" d="M294.27,227.58h10.31a6.57,6.57,0,0,1,6.57,6.57v.22H294.27Z"/><circle class="cls-10" cx="287.69" cy="63.07" r="12.36"/><ellipse class="cls-10" cx="300.05" cy="53.69" rx="3.84" ry="5.11" transform="translate(49.92 227.89) rotate(-45)"/><ellipse class="cls-10" cx="279.51" cy="50.47" rx="5.11" ry="3.84" transform="translate(2.64 113.86) rotate(-23.13)"/><circle class="cls-8" cx="287.3" cy="66.02" r="10.49"/><path class="cls-10" d="M297,60.56a3.49,3.49,0,0,0-.32-4.14,7.18,7.18,0,0,0-3.82-2.16A15.37,15.37,0,0,0,280,56.84c-1.19.9-2.34,2.24-2.08,3.72a3.07,3.07,0,0,0,1.52,2,7.58,7.58,0,0,0,2.45.84,28.71,28.71,0,0,0,11.75-.07,8.62,8.62,0,0,1-3.46-1.42,14.27,14.27,0,0,0,8.15-2.52Z"/><polygon class="cls-8" points="318.07 178.92 322.2 185.45 303.8 194.14 301 189.72 318.07 178.92"/><path class="cls-9" d="M301.74,187.67l5.51,8.72h0a6.56,6.56,0,0,1-2,9.06l-.18.12-9-14.27Z"/><path class="cls-7" d="M278.82,106l6.7,19.64c-9.72,21.29,6.62,34.06,6.62,34.06l15-.71L326.24,165,305.88,185.2l4.94,8s35.24-19.26,35.89-31S313,133.06,313,133.06l-7.35-26.67c6.3-10.53-3.18-14.92-3.18-14.92l-4.26-9.83-24.78-3.71Z"/><path class="cls-8" d="M291.62,138.46a4,4,0,0,0,1.29-7.89L272.52,116.3l-2,5.35,17.38,12a3.34,3.34,0,0,0-.08.7,4,4,0,0,0,3.85,4.15Z"/><path class="cls-7" d="M280.44,97.43l-2.76,17.39,5.84,7.45-8.5,5.16-9.09-6.51s1.13-30.26,1.13-34.07,6.75-8.92,6.75-8.92l5.09,4Z"/></svg>