<svg id="Capa_1" data-name="Capa 1" xmlns="http://www.w3.org/2000/svg" xmlns:xlink="http://www.w3.org/1999/xlink" viewBox="0 0 364 238"><defs><style>.cls-1{fill:#f2f2f2;}.cls-2{fill:#fff;}.cls-3{fill:url(#Degradado_sin_nombre_2);}.cls-4{fill:url(#Degradado_sin_nombre_2-2);}.cls-5{fill:#2f8dcc;}.cls-6{fill:#a0616a;}.cls-7{fill:#2f2e41;}.cls-8{fill:#3f3d56;}.cls-9{fill:#4f2e00;}</style><linearGradient id="Degradado_sin_nombre_2" x1="10.8" y1="26.04" x2="287.7" y2="26.04" gradientUnits="userSpaceOnUse"><stop offset="0" stop-color="#24c6dc"/><stop offset="1" stop-color="#514a9d"/></linearGradient><linearGradient id="Degradado_sin_nombre_2-2" x1="10.8" y1="106.12" x2="287.7" y2="106.12" xlink:href="#Degradado_sin_nombre_2"/></defs><path class="cls-1" d="M348.08,158.6A28.43,28.43,0,0,1,339,165h0l-1,.44H338a58,58,0,0,1-7,2.5,97.82,97.82,0,0,1-43.24,2.25l-.83-.15V136.82l.83-.34q2.69-1.12,5.46-2c2.65-.9,5.33-1.67,8.06-2.32a87.43,87.43,0,0,1,27.17-2.18c1.65.12,3.31.3,5,.53a37.66,37.66,0,0,1,10.26,2.76h0c.46.22.92.45,1.37.69a15.44,15.44,0,0,1,6.68,6.51,12.53,12.53,0,0,1,1.12,3.27h0c.08.39.14.79.18,1.18A18.14,18.14,0,0,1,348.08,158.6Z"/><path class="cls-2" d="M353,144.88l-.12,0q-10.57.47-21.12,1.37h-.09q-10.83.94-21.61,2.34l-.9.12q-7.46,1-14.88,2.2c-2.19.35-4.37.73-6.54,1.11l-.83.15V151l.83-.15q10.88-1.92,21.82-3.35,2.75-.36,5.51-.69,8-1,16-1.66l1.17-.1q10.24-.85,20.51-1.31h.1C353.43,143.76,353.57,144.74,353,144.88Z"/><path class="cls-2" d="M338.33,164.23a33.75,33.75,0,0,1-23.64-9.77,32,32,0,0,1-4.61-5.77c-.41-.67-1.39.07-1,.73a34.89,34.89,0,0,0,21.72,15.21,33.41,33.41,0,0,0,7.66.82c.79,0,.63-1.22-.15-1.22Z"/><path class="cls-2" d="M301.22,132.11a.73.73,0,0,1-.52.47,26.83,26.83,0,0,0-5.79,2.25,28,28,0,0,0-7.21,5.43l-.32.33c-.18.18-.34.37-.51.56v-1.79c.27-.28.54-.55.83-.81a29.3,29.3,0,0,1,5.46-4.12C295.81,133.53,298.49,132.76,301.22,132.11Z"/><path class="cls-2" d="M344.33,132.9A28.57,28.57,0,0,0,331,144.61a.61.61,0,0,0,.33.8.63.63,0,0,0,.8-.32A27.17,27.17,0,0,1,344.79,134a.61.61,0,0,0-.46-1.13Z"/><path class="cls-1" d="M361.17,98.11a28.32,28.32,0,0,1-5.06,9.87h0c-.21.27-.43.56-.66.83h0a57.55,57.55,0,0,1-5.1,5.49,96.44,96.44,0,0,1-22,15.62,92.33,92.33,0,0,1-40.69,10.66h-.83V122c.27-.51.55-1,.83-1.52a90.13,90.13,0,0,1,13.17-17.95l.38-.4c1.93-2,3.95-4,6.06-5.78A86.91,86.91,0,0,1,335,80a37.33,37.33,0,0,1,10.38-2.29c.51,0,1,0,1.54,0a15.54,15.54,0,0,1,8.94,2.68,12.66,12.66,0,0,1,2.52,2.38c.26.32.49.64.72,1h0A18.1,18.1,0,0,1,361.17,98.11Z"/><path class="cls-2" d="M359.09,83.7h0l-.1.07q-9.14,5.28-18,11h0l-.07,0q-9.15,5.83-18.05,12.07l-.75.52q-6.13,4.32-12.15,8.83-11.36,8.5-22.21,17.66l-.83.7V133l.83-.69c2.77-2.34,5.57-4.63,8.39-6.9l2.54-2q11.3-9,23.09-17.24h0c1.54-1.08,3.09-2.16,4.64-3.22q6.63-4.55,13.38-8.86l1-.62q8.65-5.5,17.54-10.65l.09,0C359,82.49,359.57,83.3,359.09,83.7Z"/><path class="cls-2" d="M355.16,107.61a33.83,33.83,0,0,1-25.5,2.28,32.1,32.1,0,0,1-6.76-3c-.69-.4-1.21.71-.53,1.1a35,35,0,0,0,26.32,3.42,33,33,0,0,0,7.17-2.82c.7-.37,0-1.37-.7-1Z"/><path class="cls-2" d="M297.21,122.6a27.79,27.79,0,0,1-.39-6.5,29.49,29.49,0,0,1,4.43-14q2.89-3,6.06-5.78a.7.7,0,0,1-.24.65,26.3,26.3,0,0,0-4.08,4.67,28.22,28.22,0,0,0-4.56,20.85.51.51,0,0,1-.13.47.67.67,0,0,1-.94-.07A.61.61,0,0,1,297.21,122.6Z"/><path class="cls-2" d="M345.86,77.08a28.35,28.35,0,0,0-6.35,16.54.61.61,0,1,0,1.22-.1,27,27,0,0,1,6.07-15.65c.49-.61-.44-1.4-.94-.79Z"/><path class="cls-1" d="M303.25,90.54h0c0,.35-.06.7-.1,1h0A57.33,57.33,0,0,1,301.82,99c-.29,1.19-.6,2.37-.95,3.55,0,.15-.08.3-.13.45h0a91.77,91.77,0,0,1-3.59,10.1,98.37,98.37,0,0,1-9.45,17.3l-.83,1.18V67.4a7.66,7.66,0,0,1,.83,0h.39a12.41,12.41,0,0,1,3.41.66c.38.13.76.27,1.13.43a18.19,18.19,0,0,1,9.54,11A28.32,28.32,0,0,1,303.25,90.54Z"/><path class="cls-2" d="M292.63,68.49a.37.37,0,0,1-.05.11q-2.49,4.84-4.88,9.72c-.28.57-.56,1.13-.83,1.69V77.23c.27-.56.55-1.12.83-1.67q1.85-3.74,3.75-7.42a.22.22,0,0,1,.05-.08C291.88,67.52,292.81,67.89,292.63,68.49Z"/><path class="cls-2" d="M303.38,91.2a4.1,4.1,0,0,1-.23.4,32.5,32.5,0,0,1-4.28,5.83,35.51,35.51,0,0,1-11.17,8.1l-.83.37v-1.33l.83-.39a33.24,33.24,0,0,0,14.55-13.44.68.68,0,0,1,.92-.25l.08.06a.46.46,0,0,1,.13.65Z"/><path class="cls-3" d="M287.7,17.23V48.36h-.83V48H11.63v.33H10.8V17.23A13.57,13.57,0,0,1,24.38,3.71H274.12A13.57,13.57,0,0,1,287.7,17.23Z"/><path class="cls-4" d="M274.12,3.71H24.38A13.57,13.57,0,0,0,10.8,17.23V195a13.56,13.56,0,0,0,13.58,13.52H274.12A13.57,13.57,0,0,0,287.7,195V17.23A13.57,13.57,0,0,0,274.12,3.71ZM286.87,195a12.74,12.74,0,0,1-12.75,12.7H24.38A12.74,12.74,0,0,1,11.63,195V17.23A12.74,12.74,0,0,1,24.38,4.53H274.12a12.74,12.74,0,0,1,12.75,12.7Z"/><ellipse class="cls-2" cx="66.76" cy="26.04" rx="8.23" ry="8.19"/><ellipse class="cls-2" cx="231.74" cy="26.04" rx="8.23" ry="8.19"/><path class="cls-5" d="M90.53,117.39H41.58a7.81,7.81,0,0,1-7.82-7.79v-23a7.81,7.81,0,0,1,7.82-7.79h49a7.81,7.81,0,0,1,7.82,7.79v23A7.81,7.81,0,0,1,90.53,117.39Z"/><path class="cls-5" d="M173.8,117.39h-49A7.83,7.83,0,0,1,117,109.6v-23a7.82,7.82,0,0,1,7.82-7.79h49a7.82,7.82,0,0,1,7.83,7.79v23A7.83,7.83,0,0,1,173.8,117.39Z"/><path class="cls-1" d="M173.8,176.9h-49a8,8,0,0,1-8-8v-23a8.05,8.05,0,0,1,8-8h49a8.06,8.06,0,0,1,8.06,8v23A8,8,0,0,1,173.8,176.9Z"/><path class="cls-1" d="M90.37,176.9H41.42a8,8,0,0,1-8.06-8v-23a8.06,8.06,0,0,1,8.06-8h49a8.06,8.06,0,0,1,8.06,8v23A8,8,0,0,1,90.37,176.9Z"/><path class="cls-1" d="M257.08,176.9H208.13a8,8,0,0,1-8.06-8v-23a8.06,8.06,0,0,1,8.06-8h48.95a8.06,8.06,0,0,1,8.06,8v23A8,8,0,0,1,257.08,176.9Z"/><path class="cls-1" d="M257.08,117.43H208.13a8,8,0,0,1-8.06-8v-23a8.06,8.06,0,0,1,8.06-8h48.95a8.06,8.06,0,0,1,8.06,8v23A8,8,0,0,1,257.08,117.43Z"/><ellipse class="cls-2" cx="66.06" cy="98.08" rx="13.27" ry="13.22"/><path class="cls-5" d="M64.74,103.12a1.37,1.37,0,0,1-.83-.27h0l-3.12-2.38a1.38,1.38,0,1,1,1.68-2.19h0l2,1.54,4.78-6.2a1.38,1.38,0,0,1,1.94-.25h0l0,0,0,0a1.37,1.37,0,0,1,.26,1.93l-5.62,7.3A1.35,1.35,0,0,1,64.74,103.12Z"/><ellipse class="cls-2" cx="149.57" cy="97.89" rx="13.27" ry="13.22"/><path class="cls-5" d="M148.25,102.93a1.31,1.31,0,0,1-.83-.27h0l-3.12-2.38A1.38,1.38,0,1,1,146,98.08h0l2,1.54,4.78-6.2a1.38,1.38,0,0,1,1.94-.25h0l0,0,0,0A1.37,1.37,0,0,1,155,95.1l-5.62,7.3A1.35,1.35,0,0,1,148.25,102.93Z"/><path class="cls-6" d="M239.28,160.26A4.4,4.4,0,0,0,239,154a4.6,4.6,0,0,0-.62-.47L231,114.17l-9,3.33,10.12,37.68a4.42,4.42,0,0,0,1.78,6,4.49,4.49,0,0,0,5.43-.92Z"/><path class="cls-6" d="M167.36,100.14a3.66,3.66,0,0,1,0,.74l17.53,13.43,5-2,4.06,7.07-8.44,4.45a3.58,3.58,0,0,1-4.23-.67l-17.51-18a4.66,4.66,0,1,1,3.53-5.57,5.62,5.62,0,0,1,.09.57Z"/><polygon class="cls-6" points="208.3 230.18 203.26 230.18 200.86 214.91 208.3 214.91 208.3 230.18"/><path class="cls-7" d="M209.59,235.05H193.32v-.21a6.32,6.32,0,0,1,6.33-6.3h9.94Z"/><polygon class="cls-6" points="227.23 230.18 222.18 230.18 219.78 214.91 227.23 214.91 227.23 230.18"/><path class="cls-7" d="M228.51,235.05H212.25v-.21a6.31,6.31,0,0,1,6.33-6.3h9.93Z"/><path class="cls-7" d="M202.21,227.16a1.85,1.85,0,0,1-1.84-1.67L196,166.63h.21l30.25-2.48v.21l2.4,61a1.84,1.84,0,0,1-1.78,1.91h-6a1.84,1.84,0,0,1-1.83-1.56l-8-49.26a.21.21,0,0,0-.24-.17.2.2,0,0,0-.17.2l-.37,48.63a1.84,1.84,0,0,1-1.75,1.83l-6.34.25Z"/><ellipse class="cls-6" cx="207.37" cy="82.18" rx="10.11" ry="10.06"/><path class="cls-8" d="M209.33,170.39a50.17,50.17,0,0,1-13.07-1.78,1.85,1.85,0,0,1-1.33-1.92c1.36-20.36,1.68-36.15-1.18-47.08a18.28,18.28,0,0,1,1.52-13.47A17.78,17.78,0,0,1,211,96.84h0q.47,0,.93,0c9.78.5,17.41,9.31,17,19.64l-2,49.22a1.84,1.84,0,0,1-1.16,1.66A47.24,47.24,0,0,1,209.33,170.39Z"/><path class="cls-8" d="M195.41,123.38l-7.57-9.23a2.35,2.35,0,0,1,.34-3.32,2.83,2.83,0,0,1,.28-.2l10.26-6.08A6.56,6.56,0,0,1,207,114.73l-8,8.75a2.38,2.38,0,0,1-3.35.16,2,2,0,0,1-.24-.26Z"/><path class="cls-8" d="M219.22,122.23a2.36,2.36,0,0,1-1.3-1.48l-3.41-11.35a6.58,6.58,0,0,1,11.91-5.59l6.59,9.91a2.36,2.36,0,0,1-.67,3.27l-.3.17-10.84,5A2.4,2.4,0,0,1,219.22,122.23Z"/><path class="cls-9" d="M212.37,90.44l-7.49-1.71c-.78-.17-1.7-.51-1.81-1.29-.15-1,1.37-1.78,1.23-2.83s-1.52-1.15-2.5-1.45a3.74,3.74,0,0,1-2.34-4.65,3.44,3.44,0,0,1-4.89.41,4.3,4.3,0,0,1-.82-5,5.9,5.9,0,0,1,4.42-3,9.28,9.28,0,0,1,5.35,1c.11-1.16,1.57-1.63,2.74-1.64a11.66,11.66,0,0,1,11,8c1.44,4.61.48,9.66-3.54,12.36Z"/><path class="cls-8" d="M357.87,235.16H3.73c-.51,0-.93-.19-.93-.41s.42-.41.93-.41H357.87c.52,0,.93.18.93.41S358.39,235.16,357.87,235.16Z"/></svg>