<svg id="Capa_1" data-name="Capa 1" xmlns="http://www.w3.org/2000/svg" xmlns:xlink="http://www.w3.org/1999/xlink" viewBox="0 0 667.74 668.76"><defs><style>.cls-1,.cls-2{fill:#69c7f2;}.cls-1{opacity:0.07;}.cls-2{opacity:0.12;}.cls-3{fill:#646464;}.cls-4{fill:#2f8dcc;}.cls-5{fill:url(#Degradado_sin_nombre_13);}.cls-6,.cls-7{fill:none;stroke-linecap:round;stroke-linejoin:round;}.cls-6{stroke-width:6px;stroke:url(#Degradado_sin_nombre_13-2);}.cls-7{stroke:gray;stroke-width:3px;opacity:0.8;}</style><linearGradient id="Degradado_sin_nombre_13" x1="2269.06" y1="268.78" x2="2401.26" y2="497.75" gradientTransform="translate(-1996 31)" gradientUnits="userSpaceOnUse"><stop offset="0" stop-color="#1a94e2"/><stop offset="1" stop-color="#0045a2"/></linearGradient><linearGradient id="Degradado_sin_nombre_13-2" x1="118.87" y1="322.38" x2="547.87" y2="322.38" gradientTransform="matrix(1, 0, 0, 1, 0, 0)" xlink:href="#Degradado_sin_nombre_13"/></defs><circle class="cls-1" cx="333.87" cy="334.38" r="330"/><circle class="cls-2" cx="318.87" cy="346.38" r="301"/><path class="cls-3" d="M268,560.35a.7.7,0,0,1-.49-.19.59.59,0,0,1-.21-.47.64.64,0,0,1,.21-.49A.74.74,0,0,1,268,559H279.1a.76.76,0,0,1,.51.18.64.64,0,0,1,.21.49.61.61,0,0,1-.21.49.8.8,0,0,1-.51.17Zm5.58,15.06a.7.7,0,0,1-.54-.22.67.67,0,0,1-.21-.49V559.79h1.47V574.7a.73.73,0,0,1-.72.71Z"/><path class="cls-3" d="M289.94,563.44a.66.66,0,0,1,.5.21.73.73,0,0,1,.2.52V574.7a.67.67,0,0,1-.21.49.66.66,0,0,1-.49.22.65.65,0,0,1-.52-.22.73.73,0,0,1-.19-.49v-2.78l.4-.17a2.89,2.89,0,0,1-.36,1.33,4.56,4.56,0,0,1-1,1.26,5.19,5.19,0,0,1-1.48.94,4.72,4.72,0,0,1-1.84.36,5.08,5.08,0,0,1-2.85-.82,5.65,5.65,0,0,1-2-2.25,7,7,0,0,1-.72-3.21,6.75,6.75,0,0,1,.73-3.21,5.58,5.58,0,0,1,2-2.19,5,5,0,0,1,2.78-.8,5.16,5.16,0,0,1,1.89.35,5.22,5.22,0,0,1,1.53,1,4.61,4.61,0,0,1,1,1.39,3.78,3.78,0,0,1,.38,1.63l-.5-.35v-3a.77.77,0,0,1,.19-.52A.67.67,0,0,1,289.94,563.44Zm-4.87,10.89a3.87,3.87,0,0,0,2.2-.65,4.38,4.38,0,0,0,1.51-1.77,5.89,5.89,0,0,0,.55-2.55,5.63,5.63,0,0,0-.55-2.47,4.45,4.45,0,0,0-1.51-1.75,4.08,4.08,0,0,0-4.39,0,4.11,4.11,0,0,0-1.52,1.72,5.5,5.5,0,0,0-.56,2.52,5.75,5.75,0,0,0,.56,2.55,4.35,4.35,0,0,0,1.5,1.77A3.88,3.88,0,0,0,285.07,574.33Z"/><path class="cls-3" d="M295,575.41a.67.67,0,0,1-.53-.22.7.7,0,0,1-.2-.49V564.21a.68.68,0,0,1,.21-.49.7.7,0,0,1,.52-.21.66.66,0,0,1,.5.21.71.71,0,0,1,.2.49v3.52l-.35.07a5.08,5.08,0,0,1,.41-1.63,5.51,5.51,0,0,1,.92-1.49,4.71,4.71,0,0,1,1.4-1.1,3.83,3.83,0,0,1,1.81-.42,2,2,0,0,1,.82.18.59.59,0,0,1,.4.57.73.73,0,0,1-.19.54.61.61,0,0,1-.44.19,1.05,1.05,0,0,1-.46-.12,1.49,1.49,0,0,0-.64-.12,2.58,2.58,0,0,0-1.32.39,4.61,4.61,0,0,0-1.19,1,5.62,5.62,0,0,0-.86,1.46,4.45,4.45,0,0,0-.31,1.63v5.78a.67.67,0,0,1-.21.49A.66.66,0,0,1,295,575.41Z"/><path class="cls-3" d="M304,561.66a1,1,0,0,1-.73-.22.8.8,0,0,1-.25-.64v-.24a.78.78,0,0,1,.27-.64,1.11,1.11,0,0,1,.74-.23,1,1,0,0,1,.69.23.83.83,0,0,1,.24.64v.24a.83.83,0,0,1-.24.64A1,1,0,0,1,304,561.66Zm.71,13a.67.67,0,0,1-.21.49.68.68,0,0,1-.5.22.61.61,0,0,1-.51-.22.69.69,0,0,1-.19-.49V563.93a.71.71,0,0,1,.2-.49.66.66,0,0,1,.5-.21.68.68,0,0,1,.51.21.71.71,0,0,1,.2.49Z"/><path class="cls-3" d="M313.56,563.68a.66.66,0,0,1,.47.18.66.66,0,0,1-.47,1.13h-5.74a.69.69,0,0,1-.65-.66.59.59,0,0,1,.2-.48.63.63,0,0,1,.45-.17Zm-.89-5.51a5.37,5.37,0,0,1,.76.07,2.28,2.28,0,0,1,.72.26.59.59,0,0,1,.3.52.68.68,0,0,1-.19.48.55.55,0,0,1-.42.19,1.47,1.47,0,0,1-.58-.14,2.12,2.12,0,0,0-.75-.14,1.56,1.56,0,0,0-.85.23,1.46,1.46,0,0,0-.54.63,2.43,2.43,0,0,0-.18,1V574.7a.7.7,0,0,1-.2.49.64.64,0,0,1-.51.22.63.63,0,0,1-.5-.22.7.7,0,0,1-.2-.49V561.26a3,3,0,0,1,.88-2.29A3.25,3.25,0,0,1,312.67,558.17Z"/><path class="cls-3" d="M326.58,563.44a.66.66,0,0,1,.5.21.73.73,0,0,1,.2.52V574.7a.67.67,0,0,1-.21.49.69.69,0,0,1-1,0,.72.72,0,0,1-.18-.49v-2.78l.39-.17a2.89,2.89,0,0,1-.36,1.33,4.52,4.52,0,0,1-1,1.26,5.39,5.39,0,0,1-1.49.94,4.68,4.68,0,0,1-1.84.36,5,5,0,0,1-2.84-.82,5.6,5.6,0,0,1-2-2.25,7,7,0,0,1-.71-3.21,6.87,6.87,0,0,1,.72-3.21,5.58,5.58,0,0,1,2-2.19,5,5,0,0,1,2.78-.8,5.16,5.16,0,0,1,1.89.35,5.22,5.22,0,0,1,1.53,1,4.61,4.61,0,0,1,1,1.39,3.78,3.78,0,0,1,.38,1.63l-.49-.35v-3a.77.77,0,0,1,.18-.52A.67.67,0,0,1,326.58,563.44Zm-4.87,10.89a3.87,3.87,0,0,0,2.2-.65,4.38,4.38,0,0,0,1.51-1.77,5.89,5.89,0,0,0,.55-2.55,5.63,5.63,0,0,0-.55-2.47,4.45,4.45,0,0,0-1.51-1.75,3.87,3.87,0,0,0-2.2-.65,4,4,0,0,0-2.19.63,4.11,4.11,0,0,0-1.52,1.72,5.5,5.5,0,0,0-.55,2.52,5.75,5.75,0,0,0,.55,2.55,4.3,4.3,0,0,0,1.51,1.77A3.85,3.85,0,0,0,321.71,574.33Z"/><path class="cls-3" d="M342.73,563.35a4,4,0,0,1,2.48.76,3.85,3.85,0,0,1,1.41,2.26l-.33.09.14-.42a3.63,3.63,0,0,1,1-1.32,5.77,5.77,0,0,1,1.63-1,4.81,4.81,0,0,1,1.85-.37,4.05,4.05,0,0,1,2.37.63,3.58,3.58,0,0,1,1.31,1.7,6.5,6.5,0,0,1,.41,2.4v6.62a.69.69,0,0,1-.19.49.67.67,0,0,1-.51.22.61.61,0,0,1-.51-.22.69.69,0,0,1-.19-.49v-6.55a5,5,0,0,0-.3-1.76,2.77,2.77,0,0,0-1-1.26,2.93,2.93,0,0,0-1.76-.47,3.74,3.74,0,0,0-1.85.47,4,4,0,0,0-1.42,1.26,3.08,3.08,0,0,0-.55,1.76v6.55a.66.66,0,0,1-.2.49.68.68,0,0,1-1,0,.66.66,0,0,1-.2-.49v-6.62a5.08,5.08,0,0,0-.28-1.72,2.58,2.58,0,0,0-.92-1.23,2.74,2.74,0,0,0-1.7-.47,3.63,3.63,0,0,0-1.82.47,3.91,3.91,0,0,0-1.38,1.23,2.94,2.94,0,0,0-.53,1.72v6.62a.67.67,0,0,1-.21.49.64.64,0,0,1-.49.22.68.68,0,0,1-.53-.22.7.7,0,0,1-.2-.49V564.21a.68.68,0,0,1,.21-.49.73.73,0,0,1,.52-.21.66.66,0,0,1,.5.21.67.67,0,0,1,.2.49v2.18l-.63.87a3.71,3.71,0,0,1,.46-1.41,4.36,4.36,0,0,1,1-1.26,4.94,4.94,0,0,1,1.43-.9A4.3,4.3,0,0,1,342.73,563.35Z"/><path class="cls-3" d="M364.11,575.64a6.52,6.52,0,0,1-3.19-.77,5.51,5.51,0,0,1-2.15-2.16,6.54,6.54,0,0,1-.77-3.23,6.88,6.88,0,0,1,.78-3.39,5.7,5.7,0,0,1,2-2.17,5,5,0,0,1,2.66-.76,5.74,5.74,0,0,1,2,.36,5.2,5.2,0,0,1,1.73,1.08,5.45,5.45,0,0,1,1.22,1.74,6.51,6.51,0,0,1,.5,2.39.69.69,0,0,1-.23.48.67.67,0,0,1-.49.2h-9.39l-.28-1.26h9.22l-.3.28V568a3.5,3.5,0,0,0-.73-1.86,4.11,4.11,0,0,0-1.46-1.17,4,4,0,0,0-1.79-.41,4,4,0,0,0-1.44.28,3.76,3.76,0,0,0-1.34.88,4.46,4.46,0,0,0-1,1.52,5.84,5.84,0,0,0-.37,2.19,5.44,5.44,0,0,0,.56,2.5,4.22,4.22,0,0,0,1.62,1.78,4.73,4.73,0,0,0,2.54.66,4.2,4.2,0,0,0,1.47-.24,4.1,4.1,0,0,0,1.15-.62,4.53,4.53,0,0,0,.83-.8.78.78,0,0,1,.49-.21.58.58,0,0,1,.43.18.61.61,0,0,1,.18.42.65.65,0,0,1-.24.5,6.26,6.26,0,0,1-1.82,1.46A5,5,0,0,1,364.11,575.64Z"/><path class="cls-3" d="M377.57,563.16a4.41,4.41,0,0,1,2.47.62,3.51,3.51,0,0,1,1.34,1.69,6.55,6.55,0,0,1,.41,2.35v6.88a.71.71,0,0,1-1.23.49.66.66,0,0,1-.2-.49v-6.81a4.52,4.52,0,0,0-.31-1.71,2.64,2.64,0,0,0-1-1.23,3.2,3.2,0,0,0-1.8-.46,4.23,4.23,0,0,0-1.91.46,4.09,4.09,0,0,0-1.46,1.23,2.84,2.84,0,0,0-.57,1.71v6.81a.67.67,0,0,1-.21.49.64.64,0,0,1-.49.22.68.68,0,0,1-.53-.22.7.7,0,0,1-.2-.49V564.21a.74.74,0,0,1,.73-.7.66.66,0,0,1,.5.21.67.67,0,0,1,.2.49v2l-.54.84a3.24,3.24,0,0,1,.48-1.44,5,5,0,0,1,1.12-1.24,5.48,5.48,0,0,1,1.51-.86A4.67,4.67,0,0,1,377.57,563.16Z"/><path class="cls-3" d="M384.78,573.51a.93.93,0,0,1-.17-.55.49.49,0,0,1,.29-.43.53.53,0,0,1,.43-.14.7.7,0,0,1,.46.23,4.84,4.84,0,0,0,1.53,1.32,4.3,4.3,0,0,0,2.15.51,4,4,0,0,0,1.3-.23,2.46,2.46,0,0,0,1.06-.68,1.63,1.63,0,0,0,.42-1.15,1.59,1.59,0,0,0-.42-1.16,3.08,3.08,0,0,0-1.09-.71,10.6,10.6,0,0,0-1.44-.45q-.8-.21-1.53-.48a5.94,5.94,0,0,1-1.33-.68,3.13,3.13,0,0,1-.92-1,2.75,2.75,0,0,1-.34-1.43,3,3,0,0,1,.53-1.73,3.49,3.49,0,0,1,1.46-1.17,5,5,0,0,1,2.08-.42,6,6,0,0,1,1.29.15,5.12,5.12,0,0,1,1.34.51,4.05,4.05,0,0,1,1.17,1,.66.66,0,0,1,.21.48.71.71,0,0,1-.24.5.65.65,0,0,1-.43.13.6.6,0,0,1-.41-.2,3.58,3.58,0,0,0-1.33-1,4.4,4.4,0,0,0-1.67-.32,3.57,3.57,0,0,0-1.27.22,2.35,2.35,0,0,0-1,.65,1.72,1.72,0,0,0-.39,1.17,1.66,1.66,0,0,0,.47,1.1,3.4,3.4,0,0,0,1.15.7,14.56,14.56,0,0,0,1.61.52,12.71,12.71,0,0,1,1.44.44,5.15,5.15,0,0,1,1.21.65,2.94,2.94,0,0,1,.85,1,3.08,3.08,0,0,1,.31,1.47,2.83,2.83,0,0,1-.57,1.78,3.57,3.57,0,0,1-1.53,1.15,5.44,5.44,0,0,1-2.14.4,6.26,6.26,0,0,1-2.44-.49A5.34,5.34,0,0,1,384.78,573.51Z"/><path class="cls-3" d="M405.39,563.51a.66.66,0,0,1,.5.21.71.71,0,0,1,.2.49v6.61a4.6,4.6,0,0,1-1.31,3.53,5,5,0,0,1-3.54,1.22,4.94,4.94,0,0,1-3.52-1.22,4.59,4.59,0,0,1-1.3-3.53v-6.61a.68.68,0,0,1,.21-.49.69.69,0,0,1,.51-.21.66.66,0,0,1,.51.21.71.71,0,0,1,.2.49v6.61a3.41,3.41,0,1,0,6.81,0v-6.61a.71.71,0,0,1,.2-.49A.69.69,0,0,1,405.39,563.51Z"/><path class="cls-3" d="M419.57,563.44a.68.68,0,0,1,.51.21.73.73,0,0,1,.2.52V574.7a.74.74,0,0,1-.71.71.63.63,0,0,1-.51-.22.69.69,0,0,1-.19-.49v-2.78l.4-.17a2.89,2.89,0,0,1-.36,1.33,4.56,4.56,0,0,1-1,1.26,5.34,5.34,0,0,1-1.48.94,4.72,4.72,0,0,1-1.84.36,5.08,5.08,0,0,1-2.85-.82,5.65,5.65,0,0,1-2-2.25,7,7,0,0,1-.72-3.21,6.75,6.75,0,0,1,.73-3.21,5.63,5.63,0,0,1,2-2.19,5.08,5.08,0,0,1,2.79-.8,5.16,5.16,0,0,1,1.89.35,5.22,5.22,0,0,1,1.53,1,4.61,4.61,0,0,1,1,1.39,3.77,3.77,0,0,1,.37,1.63l-.49-.35v-3a.73.73,0,0,1,.19-.52A.65.65,0,0,1,419.57,563.44Zm-4.87,10.89a3.88,3.88,0,0,0,2.21-.65,4.38,4.38,0,0,0,1.51-1.77,5.89,5.89,0,0,0,.55-2.55,5.63,5.63,0,0,0-.55-2.47,4.45,4.45,0,0,0-1.51-1.75,4.08,4.08,0,0,0-4.39,0,4.2,4.2,0,0,0-1.53,1.72,5.63,5.63,0,0,0-.55,2.52,5.89,5.89,0,0,0,.55,2.55,4.38,4.38,0,0,0,1.51,1.77A3.87,3.87,0,0,0,414.7,574.33Z"/><path class="cls-3" d="M425.5,574.7a.67.67,0,0,1-.21.49.66.66,0,0,1-.49.22.64.64,0,0,1-.51-.22.7.7,0,0,1-.2-.49V558.78a.67.67,0,0,1,.21-.49.69.69,0,0,1,.5-.21.66.66,0,0,1,.5.21.7.7,0,0,1,.2.49Z"/><path class="cls-3" d="M429.52,575.41a.74.74,0,0,1-.6-.26,1,1,0,0,1-.21-.66V574a.92.92,0,0,1,.21-.65.75.75,0,0,1,.6-.24h.17a.78.78,0,0,1,.61.24.92.92,0,0,1,.21.65v.49a1,1,0,0,1-.21.66.76.76,0,0,1-.61.26Z"/><path class="cls-4" d="M162.26,215.62a25.38,25.38,0,0,1-8.32-1.27,20.49,20.49,0,0,1-6.95-4.26,3.73,3.73,0,0,1-1.07-1.33,3.5,3.5,0,0,1-.36-1.53,3.14,3.14,0,0,1,.91-2.21,3,3,0,0,1,2.27-1,3,3,0,0,1,1.95.71,18.54,18.54,0,0,0,5.17,3.45,15.84,15.84,0,0,0,6.34,1.17,13,13,0,0,0,4.78-.85,8.93,8.93,0,0,0,3.47-2.27,4.78,4.78,0,0,0,1.3-3.32,5.88,5.88,0,0,0-1.36-3.83,10.18,10.18,0,0,0-3.8-2.54,30.15,30.15,0,0,0-6-1.69,32.89,32.89,0,0,1-5.85-1.69,14.71,14.71,0,0,1-4.38-2.63,10.87,10.87,0,0,1-2.77-3.8,12.49,12.49,0,0,1-1-5.07,11.41,11.41,0,0,1,2.08-6.86,13.38,13.38,0,0,1,5.65-4.45,20,20,0,0,1,8.06-1.56,22.9,22.9,0,0,1,7.67,1.26,15.72,15.72,0,0,1,5.79,3.42,3.89,3.89,0,0,1,1.56,2.92,3.14,3.14,0,0,1-.94,2.21,3,3,0,0,1-2.18,1,2.44,2.44,0,0,1-1.56-.52,10,10,0,0,0-2.8-2,23.13,23.13,0,0,0-3.73-1.46,13.47,13.47,0,0,0-3.81-.58,13.75,13.75,0,0,0-5,.81,7.37,7.37,0,0,0-3.19,2.21,5.27,5.27,0,0,0-1.1,3.35,5.13,5.13,0,0,0,1.27,3.6,9,9,0,0,0,3.54,2.28,42.07,42.07,0,0,0,5.2,1.59,56.84,56.84,0,0,1,6.4,1.76,16.21,16.21,0,0,1,4.78,2.5,10,10,0,0,1,3,3.8,13.66,13.66,0,0,1,1,5.66,11,11,0,0,1-2.21,6.82,14.69,14.69,0,0,1-5.82,4.55A19.37,19.37,0,0,1,162.26,215.62Z"/><path class="cls-4" d="M211.08,180.78a3.14,3.14,0,0,1,2.31.94,3.25,3.25,0,0,1,.94,2.37v17.1q0,6.75-3.77,10.56t-10.66,3.8q-6.9,0-10.63-3.8t-3.74-10.56v-17.1a3.22,3.22,0,0,1,.95-2.37,3.18,3.18,0,0,1,2.37-.94,3.14,3.14,0,0,1,2.31.94,3.25,3.25,0,0,1,.94,2.37v17.1q0,4.22,2,6.3a7.65,7.65,0,0,0,5.82,2.08q3.9,0,5.88-2.08t2-6.3v-17.1a3.22,3.22,0,0,1,1-2.37A3.18,3.18,0,0,1,211.08,180.78Z"/><path class="cls-4" d="M221.35,209.64a3.43,3.43,0,0,1-.52-2.12,2.6,2.6,0,0,1,1.36-2,2.93,2.93,0,0,1,1.92-.49,3.13,3.13,0,0,1,1.92,1,14.56,14.56,0,0,0,4.06,3.18,11.61,11.61,0,0,0,5.43,1.17,12.77,12.77,0,0,0,2.66-.42,5.2,5.2,0,0,0,2.34-1.3,3.67,3.67,0,0,0,1-2.76,3.3,3.3,0,0,0-1-2.57,8.7,8.7,0,0,0-2.73-1.59,31.22,31.22,0,0,0-3.71-1.17c-1.38-.39-2.77-.83-4.16-1.3a17,17,0,0,1-3.8-1.86,8.49,8.49,0,0,1-2.76-2.95,8.88,8.88,0,0,1-1-4.49,8.37,8.37,0,0,1,1.69-5.26,11.2,11.2,0,0,1,4.48-3.45,14.68,14.68,0,0,1,6-1.23,17.86,17.86,0,0,1,4,.48,16.88,16.88,0,0,1,4,1.53,11.3,11.3,0,0,1,3.38,2.73,3.68,3.68,0,0,1,.75,2,2.47,2.47,0,0,1-1.07,2.14,2.45,2.45,0,0,1-1.89.55,3,3,0,0,1-1.82-.74,8,8,0,0,0-3.18-2.41,11.1,11.1,0,0,0-4.42-.84,10.63,10.63,0,0,0-2.57.32,4.63,4.63,0,0,0-2.24,1.24,3.58,3.58,0,0,0-.91,2.66,3.35,3.35,0,0,0,1.07,2.6,8.78,8.78,0,0,0,2.83,1.63,38.76,38.76,0,0,0,3.83,1.17c1.35.34,2.68.76,4,1.23a15.32,15.32,0,0,1,3.58,1.85,8.57,8.57,0,0,1,3.6,7.45,8.25,8.25,0,0,1-1.85,5.42,11.72,11.72,0,0,1-4.68,3.42,15.4,15.4,0,0,1-5.95,1.17,21.39,21.39,0,0,1-7.37-1.34A13.46,13.46,0,0,1,221.35,209.64Z"/><path class="cls-4" d="M269.58,180a24.06,24.06,0,0,1,6.24.74,10.75,10.75,0,0,1,4.25,2.08,4,4,0,0,1,1.53,3.09A3.56,3.56,0,0,1,281,188a2.2,2.2,0,0,1-1.95.94,3.8,3.8,0,0,1-1.59-.29,4.28,4.28,0,0,1-1.11-.78A4.6,4.6,0,0,0,275,187a5.84,5.84,0,0,0-2.15-.68,16.29,16.29,0,0,0-2.47-.23,10.65,10.65,0,0,0-9.85,5.75,12.67,12.67,0,0,0-1.39,6,12.83,12.83,0,0,0,1.39,6,11,11,0,0,0,3.84,4.23,10.31,10.31,0,0,0,5.69,1.56,14,14,0,0,0,3.15-.3,8.47,8.47,0,0,0,2.11-.74,9.16,9.16,0,0,0,1.73-1.21,2.74,2.74,0,0,1,1.91-.61,2.71,2.71,0,0,1,2.18.87,3.26,3.26,0,0,1,.75,2.18,3.64,3.64,0,0,1-1.73,2.76,13.67,13.67,0,0,1-4.58,2.18,22.57,22.57,0,0,1-6.37.85,16.13,16.13,0,0,1-8.74-2.34,15.91,15.91,0,0,1-5.79-6.37,19.87,19.87,0,0,1-2-9.1,19,19,0,0,1,2.14-9.14A16.2,16.2,0,0,1,269.58,180Z"/><path class="cls-4" d="M291.42,215a3.23,3.23,0,0,1-3.32-3.32V184.09a3.21,3.21,0,0,1,3.32-3.31,3.1,3.1,0,0,1,2.3.94,3.22,3.22,0,0,1,.95,2.37v7.28l-.65-2.79a11.14,11.14,0,0,1,1.59-3.38,12.11,12.11,0,0,1,2.57-2.73,11.67,11.67,0,0,1,7.21-2.47,4.8,4.8,0,0,1,2.93.91,2.72,2.72,0,0,1,1.23,2.27,3.27,3.27,0,0,1-.91,2.57,3,3,0,0,1-2,.81,4.48,4.48,0,0,1-1.89-.42,5.08,5.08,0,0,0-2.14-.42,6.18,6.18,0,0,0-2.8.71,8.26,8.26,0,0,0-2.6,2.11,10.76,10.76,0,0,0-1.85,3.29,12.17,12.17,0,0,0-.68,4.22v15.6a3.2,3.2,0,0,1-.95,2.37A3.11,3.11,0,0,1,291.42,215Z"/><path class="cls-4" d="M318.13,176.23a4.32,4.32,0,0,1-2.73-.69,2.8,2.8,0,0,1-.84-2.3v-1a2.6,2.6,0,0,1,.91-2.28,4.7,4.7,0,0,1,2.73-.65A4.49,4.49,0,0,1,321,170a2.75,2.75,0,0,1,.85,2.25v1a2.77,2.77,0,0,1-.88,2.34A4.86,4.86,0,0,1,318.13,176.23Zm3.32,35.42a3.29,3.29,0,0,1-.91,2.37,3.36,3.36,0,0,1-4.68,0,3.25,3.25,0,0,1-.91-2.37V183.83a3.21,3.21,0,0,1,.94-2.37,3.35,3.35,0,0,1,4.65,0,3.31,3.31,0,0,1,.91,2.37Z"/><path class="cls-4" d="M347.45,180.19a14.62,14.62,0,0,1,8.09,2.28,16.21,16.21,0,0,1,5.62,6.2,19.26,19.26,0,0,1,2.08,9.14,19.57,19.57,0,0,1-2.08,9.19,16.25,16.25,0,0,1-5.59,6.28,14.3,14.3,0,0,1-7.93,2.27,13.93,13.93,0,0,1-4.68-.78,14.45,14.45,0,0,1-3.9-2.05A13.36,13.36,0,0,1,336.3,210a7,7,0,0,1-1.33-2.6l1.75-.91v18.13a3.21,3.21,0,0,1-.94,2.37,3.15,3.15,0,0,1-2.31.95,3.23,3.23,0,0,1-3.31-3.32V184a3.24,3.24,0,0,1,.94-2.34,3.16,3.16,0,0,1,2.37-1,3.09,3.09,0,0,1,2.31,1,3.24,3.24,0,0,1,.94,2.34v4.49l-1-.59a5.67,5.67,0,0,1,1.24-2.57,13.68,13.68,0,0,1,6.27-4.38A12.71,12.71,0,0,1,347.45,180.19Zm-.72,6a9.61,9.61,0,0,0-5.43,1.53,10.41,10.41,0,0,0-3.6,4.13,13.13,13.13,0,0,0-1.3,6,13.62,13.62,0,0,0,1.3,6,10.22,10.22,0,0,0,3.6,4.22,9.61,9.61,0,0,0,5.43,1.53,9.32,9.32,0,0,0,5.33-1.53,10.32,10.32,0,0,0,3.58-4.22,13.76,13.76,0,0,0,1.3-6,13.34,13.34,0,0,0-1.3-5.95,10.47,10.47,0,0,0-3.58-4.16A9.32,9.32,0,0,0,346.73,186.17Z"/><path class="cls-4" d="M385.73,180a24.06,24.06,0,0,1,6.24.74,10.87,10.87,0,0,1,4.26,2.08,4,4,0,0,1,1.53,3.09,3.56,3.56,0,0,1-.65,2.05,2.22,2.22,0,0,1-1.95.94,3.85,3.85,0,0,1-1.6-.29,4.07,4.07,0,0,1-1.1-.78,4.82,4.82,0,0,0-1.27-.88,5.84,5.84,0,0,0-2.14-.68,16.4,16.4,0,0,0-2.47-.23,11,11,0,0,0-5.95,1.56,10.84,10.84,0,0,0-3.9,4.19,12.67,12.67,0,0,0-1.4,6,12.84,12.84,0,0,0,1.4,6,11,11,0,0,0,3.83,4.23,10.33,10.33,0,0,0,5.69,1.56,13.89,13.89,0,0,0,3.15-.3,8.56,8.56,0,0,0,2.12-.74,9.39,9.39,0,0,0,1.72-1.21,2.75,2.75,0,0,1,1.92-.61,2.7,2.7,0,0,1,2.17.87,3.26,3.26,0,0,1,.75,2.18,3.62,3.62,0,0,1-1.72,2.76,13.86,13.86,0,0,1-4.58,2.18,22.57,22.57,0,0,1-6.37.85,16.14,16.14,0,0,1-8.75-2.34,15.81,15.81,0,0,1-5.78-6.37,19.75,19.75,0,0,1-2.05-9.1,19,19,0,0,1,2.15-9.14A16.17,16.17,0,0,1,385.73,180Z"/><path class="cls-4" d="M407.12,176.23a4.3,4.3,0,0,1-2.73-.69,2.77,2.77,0,0,1-.85-2.3v-1a2.6,2.6,0,0,1,.91-2.28,4.74,4.74,0,0,1,2.73-.65,4.55,4.55,0,0,1,2.8.68,2.75,2.75,0,0,1,.84,2.25v1a2.74,2.74,0,0,1-.88,2.34A4.8,4.8,0,0,1,407.12,176.23Zm3.31,35.42a3.25,3.25,0,0,1-.91,2.37,3.36,3.36,0,0,1-4.68,0,3.25,3.25,0,0,1-.91-2.37V183.83a3.21,3.21,0,0,1,.94-2.37,3.35,3.35,0,0,1,4.65,0,3.27,3.27,0,0,1,.91,2.37Z"/><path class="cls-4" d="M452,197.87a18.24,18.24,0,0,1-2.27,9.2,16.76,16.76,0,0,1-6.18,6.27,17.27,17.27,0,0,1-23.75-6.27,19.59,19.59,0,0,1,0-18.46,17.2,17.2,0,0,1,29.93,0A18.34,18.34,0,0,1,452,197.87Zm-6.5,0a12.77,12.77,0,0,0-1.43-6.21,10.72,10.72,0,0,0-3.86-4.12,10.18,10.18,0,0,0-5.43-1.5,10.33,10.33,0,0,0-5.46,1.5,10.6,10.6,0,0,0-3.9,4.12,14,14,0,0,0,0,12.32,10.57,10.57,0,0,0,3.9,4.16,10.33,10.33,0,0,0,5.46,1.5,10.18,10.18,0,0,0,5.43-1.5A10.7,10.7,0,0,0,444,204,12.65,12.65,0,0,0,445.46,197.87Zm-10.79-19.69a2.11,2.11,0,0,1-1.17-.49,1.44,1.44,0,0,1-.58-1.33,2,2,0,0,1,.39-1.11l3.84-6.5a5.53,5.53,0,0,1,1.23-1.53,2.71,2.71,0,0,1,1.82-.68,3.11,3.11,0,0,1,2.34.81,2.62,2.62,0,0,1,.71,2.05,3.93,3.93,0,0,1-.32,1.17,5.29,5.29,0,0,1-.72,1.17l-4.94,5.4A3.23,3.23,0,0,1,436,178,4.29,4.29,0,0,1,434.67,178.18Z"/><path class="cls-4" d="M476.92,180q4.62,0,7.15,1.91a10.06,10.06,0,0,1,3.55,5.14,24,24,0,0,1,1,7.18v17.42a3.19,3.19,0,0,1-.94,2.37,3.15,3.15,0,0,1-2.31.95,3.23,3.23,0,0,1-3.31-3.32V194.3a12.77,12.77,0,0,0-.65-4.2,5.89,5.89,0,0,0-2.21-2.95,7.54,7.54,0,0,0-4.42-1.11,9.53,9.53,0,0,0-4.68,1.11A8.15,8.15,0,0,0,467,190.1a7.88,7.88,0,0,0-1.14,4.2v17.35a3.23,3.23,0,0,1-.94,2.37,3.15,3.15,0,0,1-2.31.95,3.25,3.25,0,0,1-3.32-3.32V184.09a3.23,3.23,0,0,1,3.32-3.31,3.14,3.14,0,0,1,2.31.94,3.25,3.25,0,0,1,.94,2.37v3.64l-1.17.65a9.27,9.27,0,0,1,1.59-2.89,15.53,15.53,0,0,1,2.76-2.73,13.6,13.6,0,0,1,3.64-2A12.48,12.48,0,0,1,476.92,180Z"/><path class="cls-4" d="M200.81,254.23a4.3,4.3,0,0,1-2.73-.69,2.8,2.8,0,0,1-.85-2.3v-1a2.62,2.62,0,0,1,.91-2.28,4.74,4.74,0,0,1,2.73-.65,4.53,4.53,0,0,1,2.8.68,2.75,2.75,0,0,1,.84,2.25v1a2.77,2.77,0,0,1-.87,2.34A4.86,4.86,0,0,1,200.81,254.23Zm3.31,35.42a3.25,3.25,0,0,1-.91,2.37,3.36,3.36,0,0,1-4.68,0,3.29,3.29,0,0,1-.91-2.37V261.83a3.22,3.22,0,0,1,.95-2.37,3.33,3.33,0,0,1,4.64,0,3.27,3.27,0,0,1,.91,2.37Z"/><path class="cls-4" d="M219.92,289.65A3.23,3.23,0,0,1,219,292a3.28,3.28,0,0,1-4.62,0,3.19,3.19,0,0,1-.94-2.37V248.18a3.16,3.16,0,0,1,1-2.37,3.24,3.24,0,0,1,2.34-.94,3,3,0,0,1,2.31.94,3.33,3.33,0,0,1,.88,2.37Z"/><path class="cls-4" d="M232.4,254.23a4.3,4.3,0,0,1-2.73-.69,2.77,2.77,0,0,1-.85-2.3v-1a2.62,2.62,0,0,1,.91-2.28,4.74,4.74,0,0,1,2.73-.65,4.55,4.55,0,0,1,2.8.68,2.75,2.75,0,0,1,.84,2.25v1a2.77,2.77,0,0,1-.87,2.34A4.86,4.86,0,0,1,232.4,254.23Zm3.31,35.42a3.25,3.25,0,0,1-.91,2.37,3.36,3.36,0,0,1-4.68,0,3.29,3.29,0,0,1-.91-2.37V261.83a3.22,3.22,0,0,1,.95-2.37,3.33,3.33,0,0,1,4.64,0,3.27,3.27,0,0,1,.91,2.37Z"/><path class="cls-4" d="M261.65,258.19q4.8,0,7.41,2.37A11.64,11.64,0,0,1,272.5,267l-1-.33.46-1a13.44,13.44,0,0,1,2.56-3.41,14.68,14.68,0,0,1,4.13-2.86,11.85,11.85,0,0,1,5.14-1.14,11.09,11.09,0,0,1,6.95,1.92,10,10,0,0,1,3.45,5.13,24.77,24.77,0,0,1,1,7.19v17.22a3.25,3.25,0,0,1-.91,2.37,3.36,3.36,0,0,1-4.68,0,3.25,3.25,0,0,1-.91-2.37V272.49a13.07,13.07,0,0,0-.62-4.16,6,6,0,0,0-2.14-3,6.88,6.88,0,0,0-4.19-1.14,8.83,8.83,0,0,0-4.55,1.14,8.36,8.36,0,0,0-3.06,3,8,8,0,0,0-1.1,4.16v17.16a3.29,3.29,0,0,1-.91,2.37,3.36,3.36,0,0,1-4.68,0,3.25,3.25,0,0,1-.91-2.37V272.43a13,13,0,0,0-.62-4.13,6.09,6.09,0,0,0-2.11-3,6.74,6.74,0,0,0-4.16-1.14,8.74,8.74,0,0,0-4.49,1.14,8,8,0,0,0-4.09,7.12v17.22a3.2,3.2,0,0,1-1,2.37,3.11,3.11,0,0,1-2.3,1,3.23,3.23,0,0,1-3.32-3.32V262.09a3.21,3.21,0,0,1,3.32-3.31,3.1,3.1,0,0,1,2.3.94,3.22,3.22,0,0,1,1,2.37v3.84l-1.24.71a10.68,10.68,0,0,1,1.5-2.92,12.31,12.31,0,0,1,2.63-2.73,14.34,14.34,0,0,1,3.54-2A11.29,11.29,0,0,1,261.65,258.19Z"/><path class="cls-4" d="M307,254.23a4.3,4.3,0,0,1-2.73-.69,2.77,2.77,0,0,1-.85-2.3v-1a2.6,2.6,0,0,1,.91-2.28,4.74,4.74,0,0,1,2.73-.65,4.55,4.55,0,0,1,2.8.68,2.75,2.75,0,0,1,.84,2.25v1a2.74,2.74,0,0,1-.88,2.34A4.8,4.8,0,0,1,307,254.23Zm3.31,35.42a3.25,3.25,0,0,1-.91,2.37,3.36,3.36,0,0,1-4.68,0,3.25,3.25,0,0,1-.91-2.37V261.83a3.25,3.25,0,0,1,.94-2.37,3.35,3.35,0,0,1,4.65,0,3.27,3.27,0,0,1,.91,2.37Z"/><path class="cls-4" d="M318.65,259.17h15.28a3,3,0,0,1,3.05,3.05,2.85,2.85,0,0,1-.88,2.15,3,3,0,0,1-2.17.84H318.65a3,3,0,0,1-3-3,2.86,2.86,0,0,1,.87-2.15A3,3,0,0,1,318.65,259.17Zm6.83-8.45a3.11,3.11,0,0,1,2.34.94,3.31,3.31,0,0,1,.91,2.37v30.16a4,4,0,0,0,.39,1.89,2,2,0,0,0,1.07,1,4,4,0,0,0,1.4.26,3,3,0,0,0,1.26-.26,3.2,3.2,0,0,1,1.34-.26,1.92,1.92,0,0,1,1.43.72,2.78,2.78,0,0,1,.65,1.95,2.89,2.89,0,0,1-1.69,2.53,7.18,7.18,0,0,1-3.64,1,20.43,20.43,0,0,1-2.6-.2,8,8,0,0,1-2.9-1,6.15,6.15,0,0,1-2.34-2.51,10.16,10.16,0,0,1-.94-4.84V254a3.17,3.17,0,0,1,1-2.37A3.24,3.24,0,0,1,325.48,250.72Z"/><path class="cls-4" d="M372.21,258.26a3.11,3.11,0,0,1,2.34.94,3.27,3.27,0,0,1,.91,2.37v28.08a3.25,3.25,0,0,1-.91,2.37,3.36,3.36,0,0,1-4.68,0,3.25,3.25,0,0,1-.91-2.37V285l1.37.26a5,5,0,0,1-.95,2.57,11.92,11.92,0,0,1-2.56,2.76,15.14,15.14,0,0,1-3.84,2.18,12.86,12.86,0,0,1-4.75.88,14.57,14.57,0,0,1-8.06-2.31,16.26,16.26,0,0,1-5.65-6.34,21.45,21.45,0,0,1,0-18.43,16.21,16.21,0,0,1,5.62-6.27,14.83,14.83,0,0,1,13-1.36,14.66,14.66,0,0,1,4.13,2.34,12.08,12.08,0,0,1,2.73,3,5.83,5.83,0,0,1,1,3l-2,.2v-5.92a3.29,3.29,0,0,1,.91-2.34A3.06,3.06,0,0,1,372.21,258.26ZM359,287.64a9.51,9.51,0,0,0,5.4-1.56,10.44,10.44,0,0,0,3.63-4.26,14.46,14.46,0,0,0,0-12,10.26,10.26,0,0,0-3.63-4.22A9.64,9.64,0,0,0,359,264a9.39,9.39,0,0,0-5.3,1.53,10.56,10.56,0,0,0-3.64,4.19,14.33,14.33,0,0,0,0,12.06,10.77,10.77,0,0,0,3.64,4.26A9.25,9.25,0,0,0,359,287.64Z"/><path class="cls-4" d="M412.57,244.87a3.08,3.08,0,0,1,2.34.94,3.27,3.27,0,0,1,.91,2.37v41.47a3.25,3.25,0,0,1-.91,2.37,3.36,3.36,0,0,1-4.68,0,3.29,3.29,0,0,1-.91-2.37V285l1.37.07a5.11,5.11,0,0,1-.94,2.69,12.32,12.32,0,0,1-2.57,2.8,14.31,14.31,0,0,1-3.84,2.21,12.8,12.8,0,0,1-4.74.88,14.52,14.52,0,0,1-8.06-2.31,16.33,16.33,0,0,1-5.66-6.31,21.36,21.36,0,0,1,0-18.39,16.34,16.34,0,0,1,5.63-6.31,14.1,14.1,0,0,1,7.83-2.3,14.3,14.3,0,0,1,5.17.91,14.6,14.6,0,0,1,4.12,2.34,12.08,12.08,0,0,1,2.73,3,5.83,5.83,0,0,1,1,3l-2,.2V248.18a3.31,3.31,0,0,1,.91-2.37A3.11,3.11,0,0,1,412.57,244.87Zm-13.26,42.77a9.47,9.47,0,0,0,5.43-1.56,10.59,10.59,0,0,0,3.61-4.23,14.7,14.7,0,0,0,0-12.09,10.26,10.26,0,0,0-3.64-4.19,9.64,9.64,0,0,0-5.4-1.53,9.33,9.33,0,0,0-5.29,1.53,10.49,10.49,0,0,0-3.64,4.19,14.31,14.31,0,0,0,0,12.09,10.74,10.74,0,0,0,3.64,4.23A9.2,9.2,0,0,0,399.31,287.64Z"/><path class="cls-4" d="M452.94,258.26a3.11,3.11,0,0,1,2.34.94,3.31,3.31,0,0,1,.91,2.37v28.08a3.29,3.29,0,0,1-.91,2.37,3.36,3.36,0,0,1-4.68,0,3.25,3.25,0,0,1-.91-2.37V285l1.36.26a4.93,4.93,0,0,1-.94,2.57,11.76,11.76,0,0,1-2.57,2.76,14.9,14.9,0,0,1-3.83,2.18,12.89,12.89,0,0,1-4.75.88,14.55,14.55,0,0,1-8.06-2.31,16.18,16.18,0,0,1-5.65-6.34,21.45,21.45,0,0,1,0-18.43,16.13,16.13,0,0,1,5.62-6.27,14.83,14.83,0,0,1,13-1.36,14.66,14.66,0,0,1,4.13,2.34,12.08,12.08,0,0,1,2.73,3,5.81,5.81,0,0,1,1,3l-2,.2v-5.92a3.29,3.29,0,0,1,.91-2.34A3,3,0,0,1,452.94,258.26Zm-13.26,29.38a9.5,9.5,0,0,0,5.39-1.56,10.39,10.39,0,0,0,3.64-4.26,14.57,14.57,0,0,0,0-12,10.21,10.21,0,0,0-3.64-4.22,9.63,9.63,0,0,0-5.39-1.53,9.36,9.36,0,0,0-5.3,1.53,10.56,10.56,0,0,0-3.64,4.19,14.33,14.33,0,0,0,0,12.06,10.77,10.77,0,0,0,3.64,4.26A9.23,9.23,0,0,0,439.68,287.64Z"/><path class="cls-5" d="M188.46,402.91a31.93,31.93,0,0,0-15.89-4,32.32,32.32,0,0,0-7.44.87,37.52,37.52,0,0,0-6.57,2.15c-.42.18-.8.37-1.17.56L160.6,381h34.63a6.23,6.23,0,0,0,4.49-1.74,5.7,5.7,0,0,0,1.81-4.29,6.22,6.22,0,0,0-1.81-4.62,6.08,6.08,0,0,0-4.49-1.81H156a6.46,6.46,0,0,0-4.49,1.61,7.32,7.32,0,0,0-2.35,3.88l-4.69,33.52a14.8,14.8,0,0,0,.33,4.09,6.77,6.77,0,0,0,2.22,3.75,7.66,7.66,0,0,0,5.22,1.54,10.78,10.78,0,0,0,5-1.4q2.67-1.41,6-2.82a19.88,19.88,0,0,1,7.77-1.41,20.62,20.62,0,0,1,9.72,2.28,17.42,17.42,0,0,1,6.91,6.44,18.32,18.32,0,0,1,2.55,9.78,20.77,20.77,0,0,1-2.75,10.8,18.58,18.58,0,0,1-7.85,7.17,26.64,26.64,0,0,1-12.06,2.55,16.78,16.78,0,0,1-6.24-1.21,32.26,32.26,0,0,1-5.69-3,8.66,8.66,0,0,0-5-2.14,6,6,0,0,0-4.63,1.81,5.41,5.41,0,0,0-1.68,3.68,9.59,9.59,0,0,0,.81,3.69,7.78,7.78,0,0,0,2.28,3.15,27,27,0,0,0,9.45,4.69,38.89,38.89,0,0,0,10.79,1.61q11,0,19-4.09A29.92,29.92,0,0,0,199.12,447a33.3,33.3,0,0,0,4.42-17.36,31.09,31.09,0,0,0-4-15.82A28.89,28.89,0,0,0,188.46,402.91Zm83.79-25.67a28.42,28.42,0,0,0-9.79-8,29.07,29.07,0,0,0-13.34-2.95,29.39,29.39,0,0,0-15.55,4.22,31.69,31.69,0,0,0-11.06,11.19A29.66,29.66,0,0,0,218.42,397,34.59,34.59,0,0,0,222,412.9a27.29,27.29,0,0,0,10,11,28,28,0,0,0,15.15,4,23.12,23.12,0,0,0,9.92-2,28.16,28.16,0,0,0,7.38-4.9l.32-.31a40.16,40.16,0,0,1-4.81,9.83,53.46,53.46,0,0,1-10.86,11.93,45.06,45.06,0,0,1-12.81,7.44,9.42,9.42,0,0,0-4.29,2.55,6.1,6.1,0,0,0-1.6,4.29q0,3.36,2.07,4.83a8,8,0,0,0,4.76,1.47,12.87,12.87,0,0,0,2.55-.27,50.27,50.27,0,0,0,16.42-8.37,54.27,54.27,0,0,0,11.53-12.27,69.21,69.21,0,0,0,7.44-14.21,78.55,78.55,0,0,0,4-14.15,69.61,69.61,0,0,0,1.2-12,41.53,41.53,0,0,0-2.08-13.13A37.54,37.54,0,0,0,272.25,377.24Zm-7.78,29a16.82,16.82,0,0,1-6.23,6.77,17.28,17.28,0,0,1-9.25,2.48,17,17,0,0,1-9.12-2.41,15.52,15.52,0,0,1-5.9-6.64,21.74,21.74,0,0,1-2-9.45,19.22,19.22,0,0,1,2.28-9.39,17.5,17.5,0,0,1,6.17-6.57,16.5,16.5,0,0,1,8.85-2.41,16.73,16.73,0,0,1,9.05,2.48,17.43,17.43,0,0,1,6.16,6.57,19,19,0,0,1,2.22,9.18A20.12,20.12,0,0,1,264.47,406.2Zm33.32,38.74h-1.47a6.86,6.86,0,0,0-5.17,1.88,7.26,7.26,0,0,0-1.81,5.23v2.41a7.24,7.24,0,0,0,1.81,5.23,6.86,6.86,0,0,0,5.17,1.88h1.47a6.61,6.61,0,0,0,5.09-1.88,7.35,7.35,0,0,0,1.75-5.23v-2.41a7.37,7.37,0,0,0-1.75-5.23A6.61,6.61,0,0,0,297.79,444.94Zm243.06-55.16q-4-10.93-11.73-17.1t-19-6.16q-11.26,0-19,6.16t-11.73,17.1a80.7,80.7,0,0,0,0,49.94q4,11,11.73,17.16t19,6.16q11.26,0,19-6.16t11.73-17.16a79.56,79.56,0,0,0,0-49.94Zm-13,43.9q-2.42,7.79-6.91,11.8a15.61,15.61,0,0,1-10.79,4,15.87,15.87,0,0,1-10.86-4q-4.56-4-7-11.8a75.29,75.29,0,0,1,0-37.87q2.42-7.71,7-11.73a15.87,15.87,0,0,1,10.86-4,15.61,15.61,0,0,1,10.79,4q4.48,4,6.91,11.73a75.59,75.59,0,0,1,0,37.87Zm-80.24-61q-7.71-6.17-19-6.16t-19,6.16q-7.77,6.17-11.73,17.1a80.7,80.7,0,0,0,0,49.94q3.94,11,11.73,17.16t19,6.16q11.26,0,19-6.16t11.73-17.16a79.56,79.56,0,0,0,0-49.94Q455.32,378.85,447.61,372.68Zm-1.28,61q-2.4,7.79-6.9,11.8a15.63,15.63,0,0,1-10.79,4,15.87,15.87,0,0,1-10.86-4q-4.56-4-7-11.8a75.29,75.29,0,0,1,0-37.87q2.42-7.71,7-11.73a15.87,15.87,0,0,1,10.86-4,15.63,15.63,0,0,1,10.79,4q4.49,4,6.9,11.73a75.29,75.29,0,0,1,0,37.87Zm-73.4-56.44a28.3,28.3,0,0,0-9.78-8,31.15,31.15,0,0,0-28.89,1.27,31.61,31.61,0,0,0-11.06,11.19A29.66,29.66,0,0,0,319.11,397a34.59,34.59,0,0,0,3.55,15.95,27.38,27.38,0,0,0,10,11,28,28,0,0,0,15.15,4,23.15,23.15,0,0,0,9.92-2,28.1,28.1,0,0,0,7.37-4.9l.32-.31a39.81,39.81,0,0,1-4.81,9.83,53,53,0,0,1-10.86,11.93,45,45,0,0,1-12.8,7.44,9.37,9.37,0,0,0-4.29,2.55,6.07,6.07,0,0,0-1.61,4.29q0,3.36,2.08,4.83a8,8,0,0,0,4.76,1.47,12.85,12.85,0,0,0,2.54-.27,50.32,50.32,0,0,0,16.43-8.37,54.5,54.5,0,0,0,11.53-12.27,70.2,70.2,0,0,0,7.44-14.21,79.31,79.31,0,0,0,4-14.15,69.71,69.71,0,0,0,1.21-12A41.81,41.81,0,0,0,379,388.64,37.79,37.79,0,0,0,372.93,377.24Zm-7.77,29a16.85,16.85,0,0,1-6.24,6.77,17.28,17.28,0,0,1-9.25,2.48,17,17,0,0,1-9.11-2.41,15.39,15.39,0,0,1-5.9-6.64,21.74,21.74,0,0,1-2-9.45,19.22,19.22,0,0,1,2.28-9.39,17.47,17.47,0,0,1,6.16-6.57,16.5,16.5,0,0,1,8.85-2.41,16.7,16.7,0,0,1,9.05,2.48,17.45,17.45,0,0,1,6.17,6.57,19.05,19.05,0,0,1,2.21,9.18A20.24,20.24,0,0,1,365.16,406.2Z"/><line class="cls-6" x1="121.87" y1="322.38" x2="544.87" y2="322.38"/><path class="cls-3" d="M230.23,501.32l-10.6,26.29a1.39,1.39,0,0,1-.48.66,1.18,1.18,0,0,1-.7.21,1.27,1.27,0,0,1-.95-.32,1.12,1.12,0,0,1-.31-.81,1.06,1.06,0,0,1,0-.52l11.51-28.17a1.27,1.27,0,0,1,.51-.68,1.43,1.43,0,0,1,.76-.19,1.34,1.34,0,0,1,.81.24,1.65,1.65,0,0,1,.5.63l11.46,28a1.54,1.54,0,0,1,.09.52,1.16,1.16,0,0,1-.39.94,1.43,1.43,0,0,1-.92.32,1.25,1.25,0,0,1-.76-.24,1.56,1.56,0,0,1-.5-.63L229.44,501.1Zm-8.07,18.31,1.09-2.57h13.52l.52,2.57Z"/><path class="cls-3" d="M256.61,505.64a8.14,8.14,0,0,1,4.6,1.15,6.49,6.49,0,0,1,2.48,3.14,12.06,12.06,0,0,1,.77,4.38v12.82a1.27,1.27,0,0,1-.4.92,1.24,1.24,0,0,1-.91.39,1.3,1.3,0,0,1-1.35-1.31V514.44a8.57,8.57,0,0,0-.57-3.18A4.86,4.86,0,0,0,259.4,509a5.91,5.91,0,0,0-3.36-.85,7.71,7.71,0,0,0-3.55.85,7.55,7.55,0,0,0-2.73,2.29,5.28,5.28,0,0,0-1,3.18v12.69a1.26,1.26,0,0,1-.39.92,1.24,1.24,0,0,1-.91.39,1.27,1.27,0,0,1-1-.39,1.29,1.29,0,0,1-.38-.92V507.6a1.27,1.27,0,0,1,.4-.92,1.3,1.3,0,0,1,1-.39,1.22,1.22,0,0,1,.93.39,1.28,1.28,0,0,1,.37.92v3.66l-1,1.57a5.67,5.67,0,0,1,.9-2.68,9,9,0,0,1,2.07-2.31,10.2,10.2,0,0,1,2.81-1.62A8.74,8.74,0,0,1,256.61,505.64Z"/><path class="cls-3" d="M268.42,506.25h10.16a1.13,1.13,0,0,1,.87.37,1.21,1.21,0,0,1,.35.89,1.2,1.2,0,0,1-1.22,1.22H268.42a1.26,1.26,0,0,1-1.26-1.26,1.16,1.16,0,0,1,.37-.88A1.25,1.25,0,0,1,268.42,506.25Zm4.49-6.15a1.24,1.24,0,0,1,.94.39,1.28,1.28,0,0,1,.37.92v21.88a4,4,0,0,0,.33,1.84,1.64,1.64,0,0,0,.85.8,3,3,0,0,0,1.05.2,1.81,1.81,0,0,0,.63-.11,1.81,1.81,0,0,1,.63-.11.89.89,0,0,1,.68.31,1.13,1.13,0,0,1,.28.78,1.2,1.2,0,0,1-.7,1,3.23,3.23,0,0,1-1.65.41c-.27,0-.66,0-1.18-.07a4.33,4.33,0,0,1-1.62-.48,3.29,3.29,0,0,1-1.39-1.46,6.37,6.37,0,0,1-.57-3v-22a1.26,1.26,0,0,1,.39-.92A1.34,1.34,0,0,1,272.91,500.1Z"/><path class="cls-3" d="M293.06,528.88a11.92,11.92,0,0,1-5.93-1.44,10.24,10.24,0,0,1-4-4,12.16,12.16,0,0,1-1.44-6,12.7,12.7,0,0,1,1.46-6.32,10.72,10.72,0,0,1,3.79-4,9.44,9.44,0,0,1,4.95-1.41,10.6,10.6,0,0,1,3.73.67,9.54,9.54,0,0,1,3.23,2,9.76,9.76,0,0,1,2.26,3.25A11.88,11.88,0,0,1,302,516a1.37,1.37,0,0,1-.43.9,1.35,1.35,0,0,1-.92.37H283.2l-.52-2.36h17.18l-.57.53v-.88a6.43,6.43,0,0,0-1.35-3.46,7.76,7.76,0,0,0-6.06-2.95,7.51,7.51,0,0,0-2.68.53,7.12,7.12,0,0,0-2.49,1.63,8.51,8.51,0,0,0-1.81,2.84,10.9,10.9,0,0,0-.69,4.07,10.4,10.4,0,0,0,1,4.67,8.07,8.07,0,0,0,3,3.31,8.82,8.82,0,0,0,4.74,1.22,7.67,7.67,0,0,0,4.86-1.59,8.47,8.47,0,0,0,1.54-1.5,1.49,1.49,0,0,1,.92-.39,1.07,1.07,0,0,1,.81.34,1.17,1.17,0,0,1,.32.79,1.21,1.21,0,0,1-.43.92,11.88,11.88,0,0,1-3.4,2.72A9.33,9.33,0,0,1,293.06,528.88Z"/><path class="cls-3" d="M304.92,524.91a1.77,1.77,0,0,1-.33-1,1,1,0,0,1,.55-.8,1,1,0,0,1,.8-.27,1.38,1.38,0,0,1,.85.44,9.25,9.25,0,0,0,2.86,2.46,8,8,0,0,0,4,.94,7.55,7.55,0,0,0,2.42-.41,4.74,4.74,0,0,0,2-1.27,3,3,0,0,0,.79-2.16,2.91,2.91,0,0,0-.79-2.15,5.75,5.75,0,0,0-2-1.31,19.73,19.73,0,0,0-2.69-.85c-1-.26-1.94-.56-2.85-.9a10.43,10.43,0,0,1-2.47-1.26,5.93,5.93,0,0,1-1.72-1.85,5.26,5.26,0,0,1-.63-2.66,5.51,5.51,0,0,1,1-3.23,6.42,6.42,0,0,1,2.73-2.18,9.37,9.37,0,0,1,3.88-.78,11,11,0,0,1,2.4.28,9.64,9.64,0,0,1,2.48.94,7.49,7.49,0,0,1,2.18,1.78,1.25,1.25,0,0,1,.39.9,1.3,1.3,0,0,1-.43.93,1.22,1.22,0,0,1-.81.25,1,1,0,0,1-.76-.38,6.7,6.7,0,0,0-2.49-1.76,8.13,8.13,0,0,0-3.09-.59,7.12,7.12,0,0,0-2.38.39,4.38,4.38,0,0,0-1.85,1.22,3.13,3.13,0,0,0-.74,2.18,3,3,0,0,0,.89,2.05,6.28,6.28,0,0,0,2.14,1.31,26.2,26.2,0,0,0,3,1,24,24,0,0,1,2.68.83,9.21,9.21,0,0,1,2.27,1.2,5.27,5.27,0,0,1,1.57,1.81,5.73,5.73,0,0,1,.59,2.74A5.32,5.32,0,0,1,320.2,526a6.71,6.71,0,0,1-2.85,2.13,10.21,10.21,0,0,1-4,.75,11.79,11.79,0,0,1-4.56-.92A9.79,9.79,0,0,1,304.92,524.91Z"/><path class="cls-3" d="M325.67,510.3a1.38,1.38,0,0,1-1.13-.48,1.86,1.86,0,0,1-.39-1.22v-.92a1.86,1.86,0,0,1,.39-1.24,1.42,1.42,0,0,1,1.13-.46H326a1.42,1.42,0,0,1,1.13.46,1.86,1.86,0,0,1,.39,1.24v.92a1.86,1.86,0,0,1-.39,1.22,1.38,1.38,0,0,1-1.13.48Zm0,18.14a1.39,1.39,0,0,1-1.13-.46,1.77,1.77,0,0,1-.39-1.2v-1a1.77,1.77,0,0,1,.39-1.22,1.44,1.44,0,0,1,1.13-.43H326a1.44,1.44,0,0,1,1.13.43,1.77,1.77,0,0,1,.39,1.22v1a1.77,1.77,0,0,1-.39,1.2,1.39,1.39,0,0,1-1.13.46Z"/><path class="cls-3" d="M348.78,528.44a1.36,1.36,0,0,1-1-.39,1.26,1.26,0,0,1-.39-.92V500.88l.48.44-5.8,3.92a1.36,1.36,0,0,1-.74.22,1.25,1.25,0,0,1-.94-.44,1.3,1.3,0,0,1-.42-.91,1.25,1.25,0,0,1,.7-1.13l7.28-4.8a1.57,1.57,0,0,1,.55-.24,1.23,1.23,0,0,1,.5,0,1.2,1.2,0,0,1,.87.41,1.35,1.35,0,0,1,.31.9v27.9a1.26,1.26,0,0,1-.39.92A1.39,1.39,0,0,1,348.78,528.44Z"/><path class="cls-3" d="M363.48,528.44a1.39,1.39,0,0,1-1-.39,1.26,1.26,0,0,1-.39-.92V500.88l.48.44-5.8,3.92a1.33,1.33,0,0,1-.74.22,1.25,1.25,0,0,1-.94-.44,1.33,1.33,0,0,1-.41-.91,1.23,1.23,0,0,1,.7-1.13l7.28-4.8a1.45,1.45,0,0,1,.54-.24,1.56,1.56,0,0,1,1.38.39,1.4,1.4,0,0,1,.3.9v27.9a1.26,1.26,0,0,1-.39.92A1.36,1.36,0,0,1,363.48,528.44Z"/><path class="cls-3" d="M380.39,497.44a10.16,10.16,0,0,1,4.47.91,8.54,8.54,0,0,1,3.12,2.49,11.1,11.1,0,0,1,1.83,3.51,13.09,13.09,0,0,1,.61,4,20.3,20.3,0,0,1-.54,4.47,26.52,26.52,0,0,1-1.62,4.79,24.28,24.28,0,0,1-2.65,4.6,21.34,21.34,0,0,1-3.73,3.93,16.47,16.47,0,0,1-4.76,2.7,2.35,2.35,0,0,1-.56.09,1.37,1.37,0,0,1-.94-.37,1.25,1.25,0,0,1-.41-1,1.13,1.13,0,0,1,.26-.76,1.61,1.61,0,0,1,.78-.51,16.8,16.8,0,0,0,4.78-3.11,22.75,22.75,0,0,0,4-4.8,16,16,0,0,0,2.22-5.65l1-.56a8.47,8.47,0,0,1-2,2.55,9.93,9.93,0,0,1-2.85,1.76,9,9,0,0,1-3.47.66,8.3,8.3,0,0,1-4.82-1.4,9.38,9.38,0,0,1-3.14-3.66,11,11,0,0,1-1.11-4.88,9.75,9.75,0,0,1,1.24-4.8,9.94,9.94,0,0,1,3.43-3.6A9.07,9.07,0,0,1,380.39,497.44Zm.09,2.53a7.08,7.08,0,0,0-3.62.91,6.49,6.49,0,0,0-2.46,2.55,7.71,7.71,0,0,0-.89,3.78,8.69,8.69,0,0,0,.76,3.61,6.29,6.29,0,0,0,2.29,2.73,6.49,6.49,0,0,0,3.7,1,7.55,7.55,0,0,0,4-1,7,7,0,0,0,2.55-2.73,8,8,0,0,0,.89-3.75,7.28,7.28,0,0,0-.85-3.48,6.73,6.73,0,0,0-2.49-2.62A7.3,7.3,0,0,0,380.48,500Z"/><path class="cls-3" d="M393.26,528.44a1.4,1.4,0,0,1-1.14-.48,1.88,1.88,0,0,1-.39-1.22v-.92a1.77,1.77,0,0,1,.39-1.22,1.46,1.46,0,0,1,1.14-.43h.3a1.46,1.46,0,0,1,1.14.43,1.77,1.77,0,0,1,.39,1.22v.92a1.88,1.88,0,0,1-.39,1.22,1.4,1.4,0,0,1-1.14.48Z"/><path class="cls-3" d="M408,497.44a10.15,10.15,0,0,1,4.46.91,8.54,8.54,0,0,1,3.12,2.49,10.9,10.9,0,0,1,1.83,3.51,13.09,13.09,0,0,1,.61,4,20.3,20.3,0,0,1-.54,4.47,26.47,26.47,0,0,1-1.61,4.79,24.88,24.88,0,0,1-2.66,4.6,21.34,21.34,0,0,1-3.73,3.93,16.55,16.55,0,0,1-4.75,2.7,2.5,2.5,0,0,1-.57.09,1.37,1.37,0,0,1-.94-.37,1.25,1.25,0,0,1-.41-1,1.13,1.13,0,0,1,.26-.76,1.61,1.61,0,0,1,.78-.51,16.8,16.8,0,0,0,4.78-3.11,22.75,22.75,0,0,0,4-4.8,16,16,0,0,0,2.22-5.65l1-.56a8.47,8.47,0,0,1-2,2.55,9.93,9.93,0,0,1-2.85,1.76,9,9,0,0,1-3.47.66,8.32,8.32,0,0,1-4.82-1.4,9.46,9.46,0,0,1-3.14-3.66,11,11,0,0,1-1.11-4.88,9.66,9.66,0,0,1,1.25-4.8,9.83,9.83,0,0,1,3.42-3.6A9.08,9.08,0,0,1,408,497.44Zm.08,2.53a7.08,7.08,0,0,0-3.62.91,6.56,6.56,0,0,0-2.46,2.55,7.71,7.71,0,0,0-.89,3.78,8.69,8.69,0,0,0,.76,3.61,6.29,6.29,0,0,0,2.29,2.73,6.51,6.51,0,0,0,3.7,1,7.55,7.55,0,0,0,4-1,7,7,0,0,0,2.55-2.73,8,8,0,0,0,.89-3.75,7.28,7.28,0,0,0-.85-3.48A6.7,6.7,0,0,0,412,501,7.34,7.34,0,0,0,408.08,500Z"/><path class="cls-3" d="M431.76,528.88a8.52,8.52,0,0,1-5.84-2.07,12.68,12.68,0,0,1-3.54-5.65,27.87,27.87,0,0,1,0-16,12.61,12.61,0,0,1,3.54-5.63,9.37,9.37,0,0,1,11.75,0,12.74,12.74,0,0,1,3.51,5.63,27.64,27.64,0,0,1,0,16,12.82,12.82,0,0,1-3.51,5.65A8.59,8.59,0,0,1,431.76,528.88Zm0-2.71a6,6,0,0,0,4.29-1.61,9.94,9.94,0,0,0,2.6-4.56,27.28,27.28,0,0,0,0-13.67,9.94,9.94,0,0,0-2.6-4.53,6.44,6.44,0,0,0-8.54,0,10.14,10.14,0,0,0-2.62,4.53,26.69,26.69,0,0,0,0,13.67,10.14,10.14,0,0,0,2.62,4.56A6,6,0,0,0,431.76,526.17Z"/><path class="cls-3" d="M456.26,528.88a8.53,8.53,0,0,1-5.84-2.07,12.58,12.58,0,0,1-3.53-5.65,27.64,27.64,0,0,1,0-16,12.51,12.51,0,0,1,3.53-5.63,9.37,9.37,0,0,1,11.75,0,12.57,12.57,0,0,1,3.51,5.63,27.64,27.64,0,0,1,0,16,12.64,12.64,0,0,1-3.51,5.65A8.56,8.56,0,0,1,456.26,528.88Zm0-2.71a6,6,0,0,0,4.3-1.61,9.93,9.93,0,0,0,2.59-4.56,27.28,27.28,0,0,0,0-13.67,9.92,9.92,0,0,0-2.59-4.53,6.45,6.45,0,0,0-8.55,0,10,10,0,0,0-2.61,4.53,26.4,26.4,0,0,0,0,13.67,10,10,0,0,0,2.61,4.56A6,6,0,0,0,456.26,526.17Z"/><line class="cls-7" x1="337.87" y1="527.38" x2="474.37" y2="496.88"/></svg>